<svg width="88" height="84" viewBox="0 0 88 84" fill="none" xmlns="http://www.w3.org/2000/svg">
<path d="M13.195 15.91V10.8709C13.195 10.5701 12.7419 10.5701 12.7419 10.8709V15.91C12.738 16.2069 13.195 16.2108 13.195 15.91Z" fill="black"/>
<path d="M24.98 10.871V15.9101C24.98 16.2109 25.4331 16.2109 25.4331 15.9101V10.871C25.4331 10.5702 24.98 10.5702 24.98 10.871Z" fill="black"/>
<path d="M37.277 10.871V15.9101C37.277 16.2109 37.7301 16.2109 37.7301 15.9101V10.871C37.7301 10.5702 37.277 10.5702 37.277 10.871Z" fill="black"/>
<path d="M49.57 10.871V15.9101C49.57 16.2109 50.0231 16.2109 50.0231 15.9101V10.871C50.0231 10.5702 49.57 10.5702 49.57 10.871Z" fill="black"/>
<path d="M55.715 10.871V15.9101C55.715 16.2109 56.1681 16.2109 56.1681 15.9101V10.871C56.172 10.5702 55.715 10.5702 55.715 10.871Z" fill="black"/>
<path d="M17.953 11.246C16.3046 13.6405 17.7694 16.7265 19.4921 16.7265C20.4296 16.7265 20.9335 15.8632 21.0819 14.9296C21.2616 13.789 21.0858 12.5819 20.5897 11.5312C19.9374 10.1601 18.785 10.0351 17.953 11.246ZM19.7733 16.2265C18.3788 16.6679 16.7733 13.7617 18.328 11.5038C20.2186 8.74991 21.7225 15.5936 19.7733 16.2265Z" fill="black"/>
<path d="M33.371 14.93C33.5507 13.7855 33.3749 12.5784 32.8788 11.5316C31.4921 8.6058 28.8007 11.973 29.7147 14.8207C30.4803 17.1762 32.9687 17.5042 33.371 14.93ZM31.5741 10.8753C31.996 10.9065 32.2968 11.3558 32.4725 11.7269C32.9296 12.6917 33.0897 13.805 32.9257 14.8597C32.5858 17.0433 30.7265 16.4613 30.1562 14.6839C29.5351 12.7698 30.7264 10.8284 31.5741 10.8753Z" fill="black"/>
<path d="M45.668 14.93C45.8477 13.7855 45.6719 12.5784 45.1758 11.5316C44.5078 10.1214 43.3516 10.0707 42.5391 11.2464C40.8946 13.6409 42.3516 16.7269 44.0782 16.7269C45.0157 16.7269 45.5235 15.8636 45.668 14.93ZM42.9141 11.5042C44.7969 8.76201 46.3164 15.594 44.3633 16.2269C42.9766 16.6761 41.3594 13.7699 42.9141 11.5042Z" fill="black"/>
<path d="M64.105 11.535C63.437 10.1248 62.2808 10.0741 61.4683 11.2498C60.1949 13.1053 60.7222 15.742 62.316 16.5545C63.2378 17.0272 64.3393 16.5702 64.5971 14.9334C64.7768 13.785 64.6011 12.5818 64.105 11.535ZM64.148 14.8592C63.9409 16.1834 63.1753 16.4803 62.523 16.1483C61.1519 15.4452 60.7574 13.0897 61.8433 11.5038C63.1831 9.5546 64.5035 12.5857 64.148 14.8592Z" fill="black"/>
<path d="M13.195 35.352V30.3129C13.195 30.0121 12.7419 30.0121 12.7419 30.3129V35.352C12.738 35.6528 13.195 35.6528 13.195 35.352Z" fill="black"/>
<path d="M24.98 30.312V35.3511C24.98 35.6519 25.4331 35.6519 25.4331 35.3511V30.312C25.4331 30.0112 24.98 30.0112 24.98 30.312Z" fill="black"/>
<path d="M37.277 30.312V35.3511C37.277 35.6519 37.7301 35.6519 37.7301 35.3511V30.312C37.7301 30.0112 37.277 30.0112 37.277 30.312Z" fill="black"/>
<path d="M17.426 34.266C17.6252 34.8793 18.1252 35.6527 18.801 35.9965C19.7229 36.4653 20.8244 36.0082 21.0783 34.3715C21.258 33.227 21.0822 32.0199 20.5861 30.9731C19.2111 28.0669 16.5003 31.3949 17.426 34.266ZM19.7737 35.6722C18.9378 35.9339 18.1175 34.9378 17.8596 34.1253C17.2541 32.2542 18.4026 30.3167 19.2346 30.3167C20.6565 30.3167 21.3791 35.1487 19.7737 35.6722Z" fill="black"/>
<path d="M33.371 34.371C33.5507 33.2265 33.3749 32.0194 32.8788 30.9726C31.4999 28.0585 28.7968 31.3984 29.7147 34.2617C30.4803 36.6172 32.9687 36.9452 33.371 34.371ZM30.1522 34.1249C29.8241 33.1093 30.0155 31.8319 30.6209 30.9452C31.9764 28.9725 33.2732 32.0546 32.9217 34.3007C32.5819 36.4804 30.7264 35.9023 30.1522 34.1249Z" fill="black"/>
<path d="M39.676 20.66V25.6991C39.676 25.9999 40.1291 25.9999 40.1291 25.6991V20.66C40.1291 20.3592 39.676 20.3592 39.676 20.66Z" fill="black"/>
<path d="M27.383 20.66V25.6991C27.383 25.9999 27.8361 25.9999 27.8361 25.6991V20.66C27.8361 20.3592 27.383 20.3592 27.383 20.66Z" fill="black"/>
<path d="M21.234 20.66V25.6991C21.234 25.9999 21.6871 25.9999 21.6871 25.6991V20.66C21.6871 20.3592 21.234 20.3592 21.234 20.66Z" fill="black"/>
<path d="M44.523 21.324C44.0269 22.3709 43.8511 23.5779 44.0308 24.7224C44.1753 25.656 44.6831 26.5193 45.6206 26.5193C46.5776 26.5193 47.3979 25.5037 47.687 24.6131C48.605 21.7615 45.9059 18.3983 44.523 21.324ZM45.3355 26.0193C43.3785 25.3826 44.9019 18.5584 46.7808 21.2966C48.3472 23.5622 46.7183 26.4607 45.3355 26.0193Z" fill="black"/>
<path d="M32.23 21.324C31.7339 22.3709 31.562 23.5779 31.7378 24.7224C31.9917 26.3552 33.0933 26.8162 34.0151 26.3474C35.6089 25.5349 36.1401 22.8982 34.8628 21.0388C34.0659 19.8747 32.9058 19.8982 32.23 21.324ZM33.812 25.9373C33.1597 26.2654 32.3979 25.9764 32.1909 24.6482C31.8276 22.3396 33.1518 19.3435 34.4917 21.2927C35.5855 22.8865 35.1831 25.2342 33.812 25.9373Z" fill="black"/>
<path d="M13.301 21.324C12.8049 22.3709 12.633 23.5779 12.8088 24.7224C12.9533 25.656 13.4611 26.5193 14.3986 26.5193C16.1213 26.5193 17.5861 23.4334 15.9377 21.0388C15.1369 19.8747 13.9768 19.8982 13.301 21.324ZM14.1135 26.0193C12.1565 25.3826 13.6799 18.5584 15.5588 21.2966C16.6565 22.8864 15.4885 26.4607 14.1135 26.0193Z" fill="black"/>
<path d="M39.676 39.016V44.0551C39.676 44.3559 40.1291 44.3559 40.1291 44.0551V39.016C40.1291 38.7152 39.676 38.7152 39.676 39.016Z" fill="black"/>
<path d="M27.383 39.016V44.0551C27.383 44.3559 27.8361 44.3559 27.8361 44.0551V39.016C27.8361 38.7152 27.383 38.7152 27.383 39.016Z" fill="black"/>
<path d="M21.234 39.016V44.0551C21.234 44.3559 21.6871 44.3559 21.6871 44.0551V39.016C21.6871 38.7152 21.234 38.7152 21.234 39.016Z" fill="black"/>
<path d="M32.23 39.68C31.7339 40.7269 31.562 41.9339 31.7378 43.0784C31.9917 44.7112 33.0933 45.1722 34.0151 44.7034C34.687 44.3597 35.1909 43.5862 35.3901 42.9729C36.312 40.1096 33.6129 36.7542 32.23 39.68ZM33.812 44.2933C33.1558 44.6253 32.394 44.3246 32.1909 43.0042C31.8315 40.7073 33.1518 37.6956 34.4917 39.6487C35.5815 41.2346 35.1909 43.5863 33.812 44.2933Z" fill="black"/>
<path d="M13.301 39.68C12.8049 40.7269 12.633 41.9339 12.8088 43.0784C12.9533 44.012 13.4611 44.8753 14.3986 44.8753C15.3517 44.8753 16.1759 43.8597 16.465 42.9691C17.383 40.1097 14.6839 36.7543 13.301 39.68ZM14.1135 44.3714C12.1604 43.7386 13.676 36.8987 15.5588 39.6448C17.1213 41.9221 15.5002 44.8128 14.1135 44.3714Z" fill="black"/>
<path d="M75.773 51.977C73.2886 51.5434 70.8746 50.0708 68.98 47.8286C67.1831 45.6997 66.0191 43.1294 65.1167 40.895C65.0034 40.6138 64.5815 40.7856 64.6948 41.0669C65.6089 43.3364 66.7925 45.9497 68.6323 48.1216C70.5971 50.4458 73.105 51.9693 75.6948 52.4224C75.9839 52.4849 76.0738 52.0317 75.773 51.977Z" fill="black"/>
<path d="M71.793 46.496C72.0586 46.6366 72.2696 46.2343 72.0039 46.0937C70.375 45.2421 69.043 43.789 68.3437 42.1054C68.2305 41.828 67.8086 41.9999 67.9219 42.2811C68.6601 44.0584 70.0703 45.5937 71.793 46.496Z" fill="black"/>
<path d="M59.773 42.547C60.8433 46.7618 60.5503 51.1173 58.9488 54.813C58.8277 55.0903 59.2457 55.27 59.3668 54.9927C61.0074 51.2036 61.312 46.7427 60.2144 42.4337C60.1402 42.1407 59.6988 42.254 59.773 42.547Z" fill="black"/>
<path d="M57.77 46.023C57.8794 47.1714 57.7192 48.3316 57.3012 49.3824C57.1919 49.6637 57.6137 49.8277 57.7231 49.5504C58.1645 48.4332 58.3403 47.1988 58.2231 45.9801C58.1958 45.6793 57.7426 45.73 57.77 46.023Z" fill="black"/>
<path d="M57.727 35.172C57.4262 35.2892 57.2661 35.6564 57.3676 35.9845C57.4692 36.3165 57.7973 36.4884 58.102 36.3712C58.4067 36.254 58.5668 35.8908 58.4614 35.5587C58.3559 35.2267 58.0278 35.0548 57.727 35.172Z" fill="black"/>
<path d="M63.285 32.934C62.9842 33.0512 62.8241 33.4184 62.9256 33.7465C63.0272 34.0785 63.3553 34.2504 63.66 34.1332C63.9647 34.016 64.1248 33.6528 64.0194 33.3207C63.91 32.9887 63.5858 32.8129 63.285 32.934Z" fill="black"/>
<path d="M76.492 31.762C69.9022 25.7229 59.543 25.5745 52.754 32.0628C52.7501 32.0706 52.7384 32.0745 52.7306 32.0823C45.3868 39.1253 45.5197 51.2153 53.7345 57.9963C53.7501 58.0119 53.754 58.0393 53.7774 58.051C53.7891 58.0588 53.8009 58.0549 53.8126 58.0588C56.1251 59.9455 58.8868 61.2268 61.879 61.7346C66.8126 62.5159 71.4063 61.258 74.992 58.6408C75.3201 58.4103 76.3045 57.6447 76.3865 57.5158C83.9959 50.7736 84.1287 38.707 76.492 31.762ZM76.1092 43.848C75.449 42.8558 74.699 41.9496 73.8748 41.1527C74.5076 40.6488 75.199 40.4964 76.1092 40.9339V43.848ZM76.1092 32.032V40.4461C75.0389 40.0203 74.2576 40.2391 73.535 40.8406C72.1248 39.5594 70.4803 38.5164 68.6483 37.9304C68.4413 34.1843 65.4374 30.6687 61.6717 30.6843C61.7732 30.657 61.8514 30.5749 61.8436 30.4656C61.8201 30.0906 61.9295 28.6765 62.3045 27.8484C67.3826 27.1101 72.4062 28.6804 76.1092 32.032ZM62.6792 35.1062C62.3706 34.9578 62.1323 34.6843 62.0151 34.3328C61.6675 33.2625 62.5932 32.2156 63.5542 32.657C63.8667 32.8015 64.1128 33.0866 64.2378 33.4382C64.6167 34.5437 63.6401 35.5593 62.6792 35.1062ZM57.8159 36.9695C56.8432 36.4929 56.9409 34.9304 57.9292 34.5281C58.5385 34.282 59.1948 34.6492 59.4097 35.3172C59.7573 36.4266 58.7495 37.4266 57.8159 36.9695ZM61.7768 27.9461C61.4487 28.868 61.3705 30.1531 61.3862 30.4969C61.394 30.5985 61.4682 30.6649 61.558 30.6922C59.226 30.7469 57.2494 32.1766 56.0932 34.1766C56.0854 34.1415 56.0815 34.1024 56.0542 34.075C55.144 33.1219 54.4644 32.6806 53.3394 32.1337C55.8121 29.8681 58.6596 28.5047 61.7768 27.9461ZM52.9916 32.4617C55.476 33.6531 55.5619 34.4539 55.8939 34.4539C55.9173 34.4539 55.9329 34.4344 55.9525 34.4305C54.9955 36.2313 54.6908 38.4422 55.3119 40.5203C55.5228 41.2312 55.847 41.8641 56.2376 42.4305C55.1165 44.0008 54.3899 45.7586 54.0306 47.618C53.7689 47.6492 53.5228 47.7039 53.3119 47.7977C52.6908 48.0789 52.2025 48.6844 51.933 49.4499H48.5541C46.7689 43.4811 48.3705 36.9297 52.9916 32.4617ZM53.808 49.4457H52.4135C52.7065 48.7269 53.1869 48.2191 53.9565 48.0824C53.8823 48.5355 53.8314 48.9886 53.808 49.4457ZM51.6596 55.2738H54.7573C54.8706 55.5433 54.9214 55.7035 55.3354 56.4418C55.1675 56.4809 55.0112 56.5277 54.8706 56.5941C54.4682 56.7699 54.1206 57.0863 53.8433 57.5004C53.0503 56.8324 52.3198 56.0863 51.6596 55.2738ZM59.8901 60.7855C57.812 60.1566 55.8823 59.1371 54.1987 57.7855C54.4331 57.4261 54.7221 57.1605 55.0581 57.0121C55.2104 56.9378 55.3823 56.8949 55.5737 56.8636C56.6284 58.5784 58.0971 59.9027 59.8901 60.7855ZM67.9096 53.2582C68.0229 53.3988 68.1401 53.5277 68.2533 53.6644C67.6049 53.8051 66.9799 54.0238 66.3861 54.3246C66.3861 54.1527 66.3822 53.9809 66.3783 53.809C66.8705 53.5785 67.3823 53.391 67.9096 53.2582ZM71.0971 56.434C71.2573 56.559 71.4252 56.6723 71.5893 56.7895C69.4838 57.3051 67.5463 57.9575 65.6752 59.2426C65.7494 59.0082 65.8275 58.7738 65.89 58.5355C67.5697 57.4925 69.2456 56.9106 71.0971 56.434ZM74.8315 58.1918C71.4917 56.6137 67.4877 52.7348 65.5463 48.1718C64.8861 45.5038 63.9135 42.8163 62.8901 40.1796C62.7807 39.9023 62.3549 40.0624 62.4643 40.3437C63.5307 43.0898 64.6088 46.0625 65.2612 48.9492C65.1479 49.4296 67.4135 55.6172 64.1987 61.5042C64.0815 61.5003 64.187 61.512 63.8589 61.4846C54.1948 60.301 51.8629 49.3906 56.5542 42.7616C58.8315 39.5116 61.6909 38.8436 61.937 38.6835C67.2417 36.2577 73.121 39.6913 76.14 44.7187C80.683 52.2773 76.0892 57.1017 76.0618 57.1917C75.6556 57.5706 75.2651 57.8793 74.8315 58.1918Z" fill="black"/>
<path d="M87.426 48.422C88.5432 41.8009 86.7854 34.848 81.9377 29.356V1.766C81.9377 0.926163 81.258 0.254303 80.426 0.254303H1.762C0.922158 0.254303 0.250298 0.926183 0.250298 1.766V53.758C0.250298 54.5978 0.922178 55.2697 1.762 55.2697H43.5L38.9102 58.0549C38.8086 58.1174 38.7735 58.2424 38.8243 58.3479C38.8282 58.3557 38.8321 58.3596 38.836 58.3674L38.0078 58.8713C38.3711 57.926 37.7305 57.2775 36.8398 56.8088C34.9648 55.8127 32.0429 55.7385 30.5898 57.344C29.9492 58.0549 29.6484 59.0198 29.7188 59.9417C29.2188 59.344 28.6954 58.887 27.9922 58.6253C25.5469 57.7815 23.0586 60.3948 23.6328 62.305C21.7695 61.1253 19.0469 62.3948 19.7851 65.4339C19.5194 65.1721 19.164 64.8753 18.7187 64.7971C18.1562 64.6995 17.5429 64.9768 17.1484 65.512C16.4726 66.4573 16.5624 67.8987 16.6327 68.9729C16.8046 71.4846 17.7772 74.2346 20.5155 77.2932C22.7343 79.7854 24.6639 82.6994 28.1093 83.4963C32.6171 84.5549 38.5623 82.1565 41.4533 77.3244C42.1447 76.1799 42.5783 74.9416 42.9963 73.7463C43.719 71.6721 43.5588 72.1096 44.426 71.1643C46.0666 69.387 47.6291 67.9338 47.9104 66.0784C47.8948 64.4456 47.6175 63.3557 45.8713 62.8596L48.4221 60.7268C51.7619 64.1252 56.0979 66.4143 60.9451 67.2424C73.4371 69.3557 85.313 60.8943 87.426 48.422ZM64.207 20.66V21.6483C62.7578 21.6795 61.3398 21.8553 59.9648 22.1483C59.6875 21.2342 59.0234 20.1288 58.0898 20.2108C56.9609 20.2928 56.4101 22.0936 56.3164 23.246C54.9492 23.785 53.6523 24.4648 52.4258 25.246V20.6601C52.4258 20.3593 51.9727 20.3593 51.9727 20.6601V25.5429C49.4258 27.2577 47.2383 29.4687 45.5469 32.0585C44.9336 29.5155 43.4414 29.3397 42.5469 30.6835C41.211 32.6132 41.8555 35.3163 43.4883 36.0273C41.7149 40.4492 41.3789 45.0429 42.336 49.4413L7.33599 49.4452C6.64458 49.4452 6.07819 48.8827 6.07819 48.1874V7.33939C6.07819 6.64798 6.64069 6.08159 7.33599 6.08159H74.844C75.5432 6.08159 76.1096 6.64409 76.1096 7.33939C76.1096 7.43314 76.1057 20.9484 76.1096 24.6324C72.6721 22.6715 68.7971 21.609 64.6606 21.6441V20.6597C64.6606 20.3589 64.207 20.3592 64.207 20.66ZM59.5234 22.2538C58.5937 22.4686 57.6836 22.7343 56.8007 23.0585C57.0312 21.2187 58.0351 19.7812 59.0741 21.2929C59.2694 21.5741 59.414 21.9061 59.5234 22.2538ZM43.6564 35.6128C42.3166 35.023 41.7345 32.6558 42.922 30.9409C43.9181 29.4448 44.9376 30.8432 45.2032 32.605C44.6173 33.5659 44.1017 34.5659 43.6564 35.6128ZM44.3791 55.2728H44.4494C45.4259 57.1322 46.6955 58.8939 48.1096 60.3939L45.2815 62.7572C44.4338 62.722 43.8792 63.1713 43.3362 63.8119C41.7073 62.2416 40.3557 60.4057 39.3206 58.3353L44.3791 55.2728ZM47.4533 66.0108C47.0665 68.5655 43.5705 70.8389 43.0705 72.1866C42.4298 73.8507 42.0002 75.5421 41.0627 77.0889C38.2307 81.8233 32.4338 84.042 28.2107 83.0498C24.9177 82.2881 23.0076 79.4053 20.8513 76.9873C18.1794 74.0029 17.2458 71.3545 17.0818 68.917C17.0193 67.9326 16.9333 66.585 17.5153 65.7725C17.7693 65.4287 18.2068 65.1631 18.6403 65.2373C19.2224 65.3389 19.8942 66.1905 20.238 66.667C20.5271 67.4327 20.992 68.1358 21.5778 68.7061C21.3786 68.8819 21.195 69.0694 21.0544 69.3038C20.8942 69.5616 21.2888 69.7921 21.4411 69.5421C21.82 68.9249 22.5309 68.5655 23.1599 68.253C23.4216 68.1202 23.2341 67.7178 22.9568 67.8467C22.6287 68.0108 22.2615 68.1944 21.9216 68.4327C21.7654 68.1983 21.3161 67.8819 20.8591 66.9483C20.9138 66.8194 20.863 66.7647 20.8044 66.6709C19.8005 65.0967 19.7302 62.9092 21.6443 62.3818C22.5388 62.1357 23.5662 62.5732 24.1013 63.3896C24.3786 64.3857 24.8669 65.331 25.5232 66.1318C25.5271 66.1357 25.5349 66.1357 25.5388 66.1396C25.3161 66.3115 25.0974 66.4912 24.9021 66.6904C24.6872 66.9053 25.0193 67.2217 25.2263 67.0107C25.6325 66.6006 26.0974 66.2568 26.613 65.9873C26.8786 65.8467 26.6677 65.4444 26.402 65.585C26.2263 65.6787 26.0622 65.792 25.8942 65.9014C25.8083 65.6944 25.0466 64.9522 24.5817 63.3936C24.5895 63.2842 24.6013 63.3272 24.4333 62.9913C24.2185 62.5655 24.0114 62.167 23.9997 61.7335C23.9763 60.9405 24.6442 59.9991 25.2888 59.5147C26.1052 58.8975 27.2302 58.6904 28.2419 59.2334C28.9255 59.6123 29.4411 60.2725 29.9685 61.0342C30.3279 62.2608 30.9997 63.4053 31.906 64.3037C31.7419 64.4443 31.5779 64.585 31.4333 64.7451C31.2302 64.9678 31.5701 65.2725 31.7693 65.0498C32.656 64.0693 33.2537 64.1553 33.0545 63.792C32.992 63.6826 32.8553 63.6436 32.7459 63.7022C32.5779 63.7959 32.4217 63.9131 32.2654 64.0225C31.4725 63.249 30.867 62.2686 30.5037 61.2139C30.535 61.1475 30.5467 61.0772 30.5076 61.0108C29.9217 59.9796 30.0975 58.5655 30.9295 57.6436C32.7967 55.5772 37.3865 56.8545 37.6404 58.2178C37.7263 58.6475 37.4295 59.085 37.0974 59.374C36.9099 59.5341 36.7068 59.6709 36.4881 59.8115C33.4256 61.8154 35.0858 63.9443 38.1404 65.8974C38.4255 66.0849 38.781 66.2841 39.0427 66.4755C39.0974 66.5185 39.156 66.5614 39.2185 66.5966L37.9333 66.8661C37.6442 66.9247 37.7223 67.3661 38.027 67.3114C40.1286 66.8739 40.5348 66.8427 40.6989 66.581C43.4997 65.3154 43.6794 63.0732 45.3551 63.206C46.6246 63.2997 47.6954 64.3897 47.4533 66.0108ZM61.0193 66.7921C51.5974 65.1866 44.7493 58.0421 42.8313 49.6201C40.7766 40.7256 44.343 31.2061 52.2454 25.9051C52.3 25.8933 52.3391 25.866 52.3704 25.823C61.8392 19.5652 74.4364 21.3464 81.7654 29.8386C86.2029 34.9363 88.1013 41.6866 86.9763 48.3506C84.9021 60.5846 73.2613 68.8591 61.0193 66.7921Z" fill="black"/>
<path d="M46.684 77.703C46.3285 79.0155 47.4184 80.6444 49.1606 80.6444C50.0551 80.6444 50.9926 80.2303 51.6567 79.5038C53.2856 77.7186 52.9809 75.1718 52.6489 72.9491C52.602 72.6483 52.1567 72.7225 52.1997 73.0155C52.5161 75.1327 52.8286 77.5428 51.3208 79.1952C50.5825 80.0038 49.4653 80.3671 48.5396 80.1015C47.5513 79.8163 46.8755 78.7304 47.1216 77.8163C47.2036 77.5311 46.7621 77.4139 46.684 77.703Z" fill="black"/>
<path d="M55.781 74.422C55.9372 75.5704 56.2458 76.6954 56.7029 77.7618C56.8201 78.0352 57.2419 77.8634 57.1208 77.5821C56.6794 76.5548 56.3826 75.4688 56.2341 74.3633C56.1872 74.0703 55.738 74.1212 55.781 74.422Z" fill="black"/>
<path d="M66.621 74.828C66.9569 73.8085 66.5233 72.578 65.5702 71.8319C64.6014 71.0741 63.371 70.9452 62.496 70.9569C62.1952 70.9647 62.2069 71.4217 62.5077 71.41C63.2968 71.3983 64.4296 71.5116 65.2929 72.1874C66.0859 72.8085 66.4648 73.8554 66.1914 74.6835C65.4257 77.0155 59.8906 77.7226 56.7266 71.7304C56.5898 71.4647 56.1836 71.6757 56.3242 71.9452C59.625 78.203 65.7029 77.6249 66.621 74.828Z" fill="black"/>
<path d="M10.809 64.566C8.8442 68.5894 9.97697 73.4644 13.5356 76.207C13.7661 76.3867 14.0551 76.0351 13.8129 75.8476C10.4535 73.2578 9.32854 68.6328 11.2152 64.7656C11.348 64.4922 10.9379 64.2926 10.809 64.566Z" fill="black"/>
<path d="M5.816 65.215C5.21444 67.2931 5.566 69.6173 6.7535 71.4259C6.91756 71.6798 7.30038 71.4259 7.13241 71.1759C6.01521 69.4767 5.68711 67.2931 6.2535 65.34C6.33553 65.0548 5.89803 64.9259 5.816 65.215Z" fill="black"/>
<path d="M83.785 26.152C85.4725 27.9879 86.6444 30.2497 87.1834 32.6832C87.2459 32.9762 87.6912 32.8824 87.6287 32.5855C87.074 30.0699 85.8631 27.7417 84.1209 25.8433C83.9178 25.6246 83.5858 25.9293 83.785 26.152Z" fill="black"/>
<path d="M87.109 27.414C87.152 27.707 87.6012 27.6523 87.5582 27.3515C87.4098 26.2929 87.0231 25.2538 86.441 24.3554C86.2809 24.1015 85.8941 24.3515 86.0582 24.6015C86.609 25.4492 86.9723 26.4218 87.109 27.414Z" fill="black"/>
</svg>
