<svg width="84" height="88" viewBox="0 0 84 88" fill="none" xmlns="http://www.w3.org/2000/svg">
<path d="M69.469 87.863C72.301 87.863 75.5979 85.4646 76.262 84.9568C78.5003 83.2654 79.1839 81.4295 79.2425 79.0974C79.4027 73.7419 77.1605 68.5544 73.6683 65.2454L73.5902 61.972L71.0472 56.054L71.0237 55.4563C71.0198 55.3352 70.9183 55.2376 70.7972 55.2376H65.0472L64.5159 54.1556C64.4612 54.0423 64.3245 53.9993 64.2112 54.0501C64.1878 54.0618 64.18 54.0892 64.1605 54.1087C64.0511 54.054 63.93 54.0189 63.7972 54.0267C59.762 54.3587 55.6331 54.3509 51.4182 54.0267C51.1643 54.0071 50.9416 54.14 50.801 54.3353C50.7854 54.3196 50.7775 54.2962 50.7541 54.2845C50.6369 54.2337 50.5041 54.2884 50.4572 54.4056L50.1018 55.2415H38.4138L37.8825 54.1595C37.6559 53.6986 33.9255 54.7337 24.7925 54.0306C24.5308 54.0111 24.3081 54.1439 24.1714 54.3392C24.1519 54.3236 24.1441 54.2962 24.1206 54.2884C24.0074 54.2376 23.8706 54.2923 23.8238 54.4056L23.4644 55.2415H14.9605C14.9175 55.2415 14.7847 55.3158 14.7574 55.3665L12.1714 60.5892C9.42925 60.7885 7.18315 58.9525 5.90975 56.4798C4.41365 53.5423 4.42145 50.0189 5.7535 47.2181C6.57381 47.7689 7.6402 48.3001 8.6285 48.1947C10.8043 47.9681 10.9254 45.4017 9.12069 44.7689C8.06209 44.3783 6.60119 44.8041 5.59339 46.5423C1.28479 43.1634 0.63249 35.0623 3.96449 31.4373C4.74965 32.4412 6.00749 33.367 7.28869 33.2889C8.18713 33.2303 8.98009 32.6287 9.17539 31.8592C9.44492 30.7928 8.56992 29.703 7.49569 29.4647C6.25349 29.1991 4.95659 29.871 4.02299 30.7381C2.78859 28.8475 2.63629 26.3319 2.73779 24.5193C3.16357 16.0857 8.39009 12.4763 14.7578 14.2073C14.7617 15.2737 14.8047 36.8593 14.8086 37.9223C14.8086 38.8793 15.5859 39.6567 16.543 39.6567H45.051V45.0395H39.0315C38.9299 45.0395 38.8596 45.1137 38.8284 45.2036H35.3556C33.7658 45.2036 32.4768 46.4927 32.4768 48.0825C32.4768 49.6723 33.7658 50.9614 35.3556 50.9614H54.6447C56.2345 50.9614 57.5236 49.6723 57.5236 48.0825C57.5236 46.4927 56.2345 45.2036 54.6447 45.2036H50.9844C50.9532 45.1098 50.8829 45.0395 50.7813 45.0395H45.504V39.6567H74.801C75.7581 39.6567 76.5354 38.8794 76.5354 37.9223L76.5393 1.8673C76.5393 0.910274 75.762 0.132904 74.8049 0.132904L16.5469 0.136811C15.5899 0.136811 14.8125 0.914151 14.8125 1.87121C14.8125 8.12511 14.8243 -1.01939 14.7618 13.7462C7.30086 11.8048 2.67576 16.8165 2.28876 24.5002C2.18329 26.4064 2.35126 29.0666 3.69896 31.0705C0.0817573 34.8986 0.804456 43.4375 5.38256 46.9575C3.99196 49.7583 3.89816 53.5356 5.50756 56.6919C6.81226 59.231 9.07786 61.1255 11.9451 61.0513C11.3865 62.1919 11.3786 62.1568 11.3747 62.2466L11.2693 68.9419C8.53878 73.5357 8.17948 78.8755 8.91378 81.3519C9.43722 83.0667 10.656 84.2581 11.5896 84.9574C12.2536 85.4652 15.5544 87.8636 18.3865 87.8636C20.2459 87.8636 23.7654 86.8792 26.6013 84.9847C28.5935 83.637 28.8825 83.0355 31.8747 81.6292H55.9687C58.9765 83.0394 59.2929 83.6644 61.2539 84.9847C64.0703 86.8753 67.6058 87.863 69.469 87.863ZM8.973 45.203C10.3441 45.6835 10.2699 47.5702 8.58628 47.746C7.70347 47.8319 6.69958 47.3124 5.96908 46.8163C6.85189 45.2616 8.1058 44.8788 8.973 45.203ZM7.4066 29.91C8.22301 30.0897 8.9496 30.9295 8.7425 31.7498C8.59797 32.3357 7.97687 32.7928 7.2698 32.8357C6.1214 32.8943 4.9925 32.0232 4.2932 31.1091C5.12132 30.3318 6.2972 29.6756 7.4066 29.91ZM42.4846 46.965H47.1799C47.4963 46.965 47.4963 47.4416 47.1799 47.4416H42.4846C42.1682 47.4455 42.1682 46.965 42.4846 46.965ZM54.2076 49.9377H38.0126C37.6962 49.9377 37.6962 49.4611 38.0126 49.4611H54.2076C54.524 49.4611 54.524 49.9377 54.2076 49.9377ZM74.8056 39.2037H45.2896C45.2857 39.2037 45.2857 39.1998 45.2818 39.1998C45.2779 39.1998 45.2779 39.2037 45.274 39.2037H16.547C15.8399 39.2037 15.2658 38.6295 15.2658 37.9264L15.2697 7.8714H76.0857V37.9264C76.0818 38.6295 75.5075 39.2037 74.8045 39.2037H74.8056ZM16.5476 0.590695H74.8016C75.5047 0.590695 76.0789 1.16492 76.0789 1.868V7.411L15.2699 7.4149V1.8719C15.2699 1.16487 15.8406 0.590695 16.5476 0.590695ZM70.5786 55.6957L70.9184 63.7543C70.6919 63.723 70.4575 63.7074 70.2075 63.7309C69.7075 63.7816 69.2114 64.0824 68.9809 64.4691C68.7036 64.1371 68.309 63.8832 67.8598 63.7387L67.9301 61.1996C67.9301 61.1644 67.9223 61.1253 67.9067 61.0941L65.2661 55.6996L70.5786 55.6957ZM65.3013 63.8012C65.1216 63.0785 64.9888 62.3207 64.899 61.4262C65.0083 61.1371 64.938 61.4106 64.5982 55.3637L67.4732 61.2387L67.4068 63.6332C66.7271 63.5277 65.9771 63.6254 65.3013 63.8012ZM55.0313 59.2465C55.5938 60.8246 57.8243 61.5395 59.9415 60.1059C60.3048 59.8598 60.7071 59.5004 60.5626 59.0864C60.4845 58.8559 60.2306 58.684 59.7423 58.5512C57.3282 57.852 56.2384 58.309 55.7384 57.4926C55.461 57.0434 55.6524 56.4614 55.9493 56.1098C56.6915 55.227 58.129 55.2583 58.8204 56.2153C59.0118 56.477 58.6173 56.7465 58.4376 56.5004C58.1993 56.1762 57.797 55.9575 57.3868 55.9458C56.4454 55.9223 55.8673 56.8051 56.1485 57.2427C56.4727 57.7778 57.4571 57.3911 59.8673 58.0903C60.3165 58.2153 60.8478 58.4223 61.0196 58.9302C61.2266 59.5981 60.7852 60.1021 60.2071 60.5044C57.7266 62.1411 55.2071 61.1919 54.5782 59.4067C54.4688 59.1176 54.9141 58.9457 55.0313 59.2465ZM64.4141 61.8598C64.4414 61.852 64.461 61.8364 64.4883 61.8285C64.5821 62.602 64.7032 63.2933 64.8711 63.9457C64.418 64.1372 64.086 64.4223 63.9649 64.8989C61.9376 63.1255 58.6094 65.3247 59.336 67.5356C57.3243 66.6762 55.1758 65.977 52.9922 66.0981C52.2109 66.1332 51.6055 66.309 51.1445 66.6254C50.6289 66.9926 50.1835 67.7231 50.4101 68.4574C50.7148 69.4808 52.0624 69.8168 53.3671 70.2894C51.789 70.1839 50.1913 70.0355 48.5859 69.8129C48.6054 69.7933 48.6289 69.7777 48.6406 69.7504C49.7929 67.1957 50.6562 64.5121 51.2226 61.7699C51.832 62.1409 57.684 63.4536 64.4141 61.8598ZM50.6721 55.0512C50.7893 58.2856 50.8674 61.0824 50.8987 61.266C50.6799 61.6332 50.4338 64.4769 48.426 69.0902L48.2033 60.8285L50.6721 55.0512ZM49.9026 55.6957L47.7659 60.6918C47.7541 60.7231 47.7463 60.7543 47.7463 60.7856C48.0784 70.1684 47.8245 70.1684 48.1916 70.2153C50.4494 70.5395 52.7111 70.7504 54.9064 70.8442C57.6369 71.8247 61.1837 73.1919 62.9494 75.5473L25.0784 75.3051C26.9534 73.0903 30.2034 71.8285 32.7815 70.9028C35.4924 70.852 38.2112 70.6215 40.8596 70.2153C40.969 70.1997 41.0471 70.1059 41.0511 69.9965L41.2971 61.1918C41.2971 61.1567 41.2893 61.1176 41.2737 61.0864L38.6331 55.6919L49.9026 55.6957ZM37.9726 55.3676L40.8476 61.2426L40.6249 69.184C39.3476 66.2621 38.539 64.1801 38.2694 61.4379C38.3085 61.3403 38.3358 61.2387 38.3319 61.1254L37.9726 55.3676ZM29.1562 60.4653C29.5077 60.6645 29.957 60.7309 30.5781 60.6762C31.5117 60.5864 31.7617 60.2544 31.7031 59.4184C31.6093 58.352 31.1679 57.3481 30.7304 56.3676C30.2812 56.3872 29.3124 56.3833 28.3632 56.3208C28.0234 56.2973 28.0937 55.8012 28.3906 55.8442C32.6562 56.1137 33.5664 55.3677 33.6094 55.9028C33.6289 56.0356 33.5312 56.1489 33.4101 56.1684C32.6836 56.2544 31.9687 56.3208 31.246 56.3481C31.7382 57.4497 32.6405 59.5981 31.9335 60.5747C31.2343 61.4927 28.2968 61.5708 27.9843 59.5083C27.9062 58.938 28.0898 58.3442 28.4882 57.9263C28.7226 57.6919 29.0468 58.0474 28.832 58.2583C28.2226 58.8833 28.328 59.981 29.1562 60.4653ZM37.7851 61.8598C37.8124 61.852 37.8319 61.8364 37.8593 61.8286C38.1796 64.5552 39.0468 66.7309 40.4101 69.8247C38.3593 70.1254 36.2656 70.3207 34.1718 70.4067C34.7187 70.2114 35.2695 70.0161 35.8085 69.8051C37.4101 69.1918 37.371 68.5473 37.453 68.4574C37.6405 67.8207 37.3358 67.0668 36.7147 66.6215C36.2577 66.3051 35.6483 66.1332 34.8631 66.0942C32.66 65.9731 30.5272 66.6723 28.5154 67.5317C29.2342 65.3364 25.9529 63.102 23.8904 64.8872C23.8826 64.852 23.8592 64.8169 23.8474 64.7817C24.1287 63.8403 24.3748 62.8247 24.5974 61.7661C24.6599 61.8013 24.7224 61.8325 24.7967 61.8481C29.0701 62.9184 33.4065 62.8989 37.7851 61.8598ZM24.0431 55.0512C24.0939 56.395 24.2462 61.0512 24.2735 61.2582C24.1329 61.477 24.1837 61.9145 23.5118 64.2816C23.047 63.8519 22.3282 63.7191 21.6485 63.6293L21.5704 60.8246L24.0431 55.0512ZM23.2735 55.6957L21.1368 60.6918C21.1251 60.7231 21.1173 60.7543 21.1173 60.7856L21.1954 63.5864C20.086 63.5395 19.3321 63.9145 18.8712 64.4692C18.6251 64.059 18.1056 63.7739 17.6368 63.727C16.6876 63.6333 15.7071 63.9887 14.7032 64.7778L15.1798 55.6919L23.2735 55.6957ZM29.8594 82.1407C28.6016 82.8712 27.5352 83.8048 26.3477 84.6095C24.1172 86.1017 21.3829 87.1134 18.8477 87.3868C16.6993 87.6251 13.75 86.0352 11.8633 84.5977C10.9844 83.9376 9.83604 82.8204 9.35164 81.2227C8.6368 78.8086 9.0118 73.5977 11.6954 69.1207C12.8516 67.1715 15.2657 63.9605 17.5938 64.1871C17.9806 64.2223 18.4923 64.5153 18.5431 64.8981C17.6603 65.5035 16.9259 66.3083 16.4103 67.2458C16.1993 67.1755 15.9923 67.0934 15.7735 67.0466C15.4767 66.9841 15.3829 67.4255 15.6759 67.4919C16.8556 67.7497 17.4181 68.2575 17.5704 68.2575C17.7969 68.2575 17.8829 67.9606 17.6915 67.8395C17.4219 67.6676 17.1368 67.527 16.8477 67.402C17.3204 66.57 17.9766 65.8512 18.7657 65.3043C18.8556 65.3043 18.9454 65.2652 18.9806 65.1754C19.1681 64.691 19.6524 64.2965 20.2501 64.1402C20.9024 63.9605 21.6251 64.0738 22.1876 64.191C22.5626 64.2652 22.9805 64.3824 23.2501 64.6597C23.4415 64.859 23.5157 65.1519 23.4454 65.3707C22.2735 66.0972 21.2696 67.0855 20.5196 68.2418C20.3829 68.1519 20.254 68.0543 20.1133 67.9801C19.8438 67.8433 19.6407 68.2496 19.9063 68.3863C20.9961 68.9449 21.0782 69.4644 21.3477 69.4644C21.5391 69.4644 21.6485 69.2378 21.5196 69.0894C21.336 68.8746 21.125 68.6753 20.8985 68.4957C21.6094 67.4019 22.5587 66.4645 23.668 65.773C23.7266 65.7612 23.7852 65.7339 23.8203 65.6753C25.1445 63.6206 28.4687 65.1831 28.1328 67.2222C28.0977 67.4253 28.0117 67.5816 27.8985 67.7144C27.8867 67.7183 27.8789 67.7105 27.8672 67.7144C26.2774 68.2652 25.0508 69.4996 23.9688 70.6206C23.9024 70.5464 23.8516 70.4604 23.7813 70.3901C23.5704 70.1792 23.2461 70.4956 23.461 70.7104C23.7852 71.0346 24.0469 71.4331 24.2227 71.8549C24.3399 72.1323 24.7579 71.9604 24.6446 71.6791C24.543 71.4331 24.4102 71.1948 24.2618 70.9721C25.2423 69.9526 26.3477 68.8432 27.7071 68.2729C27.7696 68.3198 27.8477 68.3432 27.9219 68.3042C30.1055 67.3198 32.4571 66.4292 34.8477 66.5581C35.5508 66.5893 36.0782 66.7378 36.461 67.0034C36.8516 67.2807 37.172 67.8315 37.0235 68.3354C36.793 69.0697 35.8946 69.3276 33.3907 70.2182C30.8907 71.1088 26.3477 72.6557 24.4415 75.4096C23.8751 76.1908 23.6212 77.0112 23.7032 77.7807C23.7618 78.308 24.0157 78.476 24.4572 78.5424C27.2853 78.8354 28.7892 76.3666 32.7853 77.0346C34.8947 77.4057 35.5625 78.9487 33.5313 80.2534C32.4961 80.9057 31.0977 81.4337 29.8594 82.1407ZM60.1404 83.6212C56.7381 81.0743 56.3513 81.5431 54.324 80.2501C52.1482 78.8282 52.9568 76.9259 56.3592 76.9259C59.367 76.9259 61.0311 78.7775 63.4061 78.5392C63.5624 78.5158 63.7421 78.4767 63.8866 78.3595C64.3476 78.008 64.5077 76.3283 62.6288 74.4962C58.5702 70.5509 51.3318 69.9571 50.8438 68.3243C50.6876 67.8243 51.0118 67.2774 51.4063 66.9962C51.793 66.7306 52.3165 66.5822 53.0157 66.5509C55.2305 66.4337 57.4024 67.1877 59.4454 68.0782C59.4337 68.172 59.461 68.2696 59.5509 68.3126C61.2736 69.172 62.8126 70.4298 63.9923 71.9493C64.0196 71.9845 64.0587 71.9884 64.0977 72.0001L63.4532 72.4337C63.2657 72.5587 63.3595 72.8477 63.5782 72.8477C63.7032 72.8477 63.6095 72.8556 65.3751 71.6875C65.6251 71.5196 65.3673 71.1407 65.1212 71.3125L64.3829 71.8086C64.3829 71.7618 64.3751 71.7149 64.3439 71.6719C63.2345 70.2422 61.8087 69.0547 60.2228 68.1797C60.2696 68.0782 60.2384 67.9571 60.1407 67.8946C59.4571 67.4649 59.6407 66.3243 60.1564 65.6993C61.3205 64.3321 63.2033 64.4259 64.0119 65.6485C64.0275 65.6758 64.0314 65.711 64.0587 65.7305C65.8478 67.0899 66.3907 68.4766 66.5665 68.5977C66.4025 68.6875 66.2306 68.7657 66.0665 68.8633C65.8087 69.0157 66.0431 69.4102 66.3009 69.2539C66.6954 69.0157 67.1056 68.7969 67.5157 68.6055C67.7813 68.4805 67.6016 68.0703 67.3204 68.1953C67.1798 68.2618 67.0431 68.3477 66.9024 68.418C66.9024 68.3789 66.9102 68.3399 66.8907 68.3047C66.2696 67.2031 65.4141 66.2188 64.418 65.4414C64.2422 65.0899 64.4805 64.4961 65.1915 64.3125C65.1954 64.3125 65.1993 64.3047 65.2032 64.3047C65.3555 64.2539 65.5157 64.2149 65.668 64.1836C66.7657 63.9453 67.9961 63.918 68.6797 64.8399C68.6797 64.8399 68.6758 64.8399 68.6758 64.8438C68.5899 64.9375 68.5977 65.0821 68.6914 65.1641C69.8008 66.1758 70.1016 67.2227 70.2617 67.5391C70.1524 67.5664 70.0391 67.586 69.9297 67.6172C69.6797 67.6914 69.7305 68.0625 69.9922 68.0625C70.0117 68.0625 70.0352 68.0586 70.0547 68.0547C70.4258 67.9453 70.8047 67.8594 71.1797 67.793C71.4844 67.7383 71.3867 67.2813 71.1016 67.3438C70.961 67.3672 70.8242 67.4102 70.6836 67.4414C70.6836 67.4219 70.6953 67.4024 70.6875 67.3828C70.4024 66.5664 69.9375 65.8203 69.3477 65.1875C69.3399 65.1446 69.379 65.2071 69.2969 65C69.2344 64.6172 69.8008 64.2344 70.2501 64.1875C71.5939 64.0664 72.9103 65.0274 73.8126 66.0234C79.3907 71.9218 78.8009 79.1794 78.7853 79.0894C78.7306 81.2066 78.1759 82.941 75.9844 84.5972C74.1016 86.0347 71.1564 87.6363 69.004 87.3863C66.461 87.1129 63.7267 86.1011 61.504 84.609C61.043 84.2926 60.5819 83.9494 60.1404 83.6212Z" fill="black"/>
<path d="M54.695 5.54699H69.148C69.4488 5.54699 69.4488 5.09387 69.148 5.09387H54.695C54.3942 5.09387 54.3942 5.54699 54.695 5.54699Z" fill="black"/>
<path d="M59.512 3.51168H69.4964C69.7972 3.51168 69.7972 3.05856 69.4964 3.05856H59.512C59.2112 3.05856 59.2112 3.51168 59.512 3.51168Z" fill="black"/>
<path d="M20.344 5.82399C21.1682 5.82399 21.8362 4.94118 21.8362 3.84739C21.8362 2.75759 21.1682 1.87079 20.344 1.87079C19.5198 1.87079 18.8557 2.7536 18.8557 3.84739C18.8557 4.94118 19.5198 5.82399 20.344 5.82399Z" fill="black"/>
<path d="M26.18 5.82399C27.0042 5.82399 27.6722 4.94118 27.6722 3.84739C27.6722 2.75759 27.0042 1.87079 26.18 1.87079C25.3558 1.87079 24.6917 2.7536 24.6917 3.84739C24.6917 4.94118 25.3558 5.82399 26.18 5.82399Z" fill="black"/>
<path d="M32.016 5.82399C32.8402 5.82399 33.5082 4.94118 33.5082 3.84739C33.5082 2.75759 32.8402 1.87079 32.016 1.87079C31.1918 1.87079 30.5277 2.7536 30.5277 3.84739C30.5277 4.94118 31.1957 5.82399 32.016 5.82399Z" fill="black"/>
<path d="M41.973 26.477C41.7894 26.2309 41.4925 26.0434 41.1878 26.0668C40.1292 26.1567 40.0472 28.1684 40.1878 29.2074C40.3285 30.223 41.3753 30.6605 42.0042 29.684C42.5316 28.8598 42.516 27.2113 41.973 26.477Z" fill="black"/>
<path d="M50.113 16.555C48.3982 16.4339 48.5778 21.1019 50.3161 20.6995C50.7302 20.6096 51.0427 20.2151 51.113 19.6956C51.2575 18.6487 51.1677 16.6487 50.113 16.555Z" fill="black"/>
<path d="M28.715 27.391C28.6134 27.9925 28.6017 28.6019 28.6877 29.2074C28.758 29.7269 29.0705 30.1214 29.4845 30.2113C30.8517 30.5199 31.3087 27.6058 30.4728 26.4769C30.2892 26.2308 28.9884 25.8324 28.715 27.391Z" fill="black"/>
<path d="M56.824 27.391C56.7224 27.9926 56.7107 28.6058 56.7967 29.2074C56.9373 30.2308 57.9841 30.6527 58.613 29.684C59.1404 28.8598 59.1248 27.2113 58.5818 26.477C58.0935 25.8207 57.0935 25.8246 56.824 27.391Z" fill="black"/>
<path d="M33.512 16.555C31.8011 16.4261 31.969 21.098 33.7112 20.6995C34.1253 20.6096 34.4378 20.2151 34.5081 19.6956C34.6526 18.6487 34.5667 16.6487 33.512 16.555Z" fill="black"/>
<path d="M66.797 12.773H24.508C23.7424 12.773 23.1252 13.4761 23.1252 14.3433V32.7733C23.1252 33.6405 23.7424 34.3436 24.508 34.3436H66.797C67.5626 34.3436 68.1798 33.6405 68.1798 32.7733V14.3393C68.1798 13.476 67.5587 12.773 66.797 12.773ZM28.152 16.3121C28.152 15.9957 28.6286 15.9957 28.6286 16.3121V21.2848C28.6286 21.6012 28.152 21.6012 28.152 21.2848V16.3121ZM29.6559 30.7071C28.9762 30.7071 28.3356 30.1602 28.2145 29.2735C28.0934 28.3868 28.1364 26.9805 28.6247 26.2462C29.2106 25.3634 30.2653 25.3946 30.8552 26.1915C31.8395 27.5196 31.4098 30.7071 29.6559 30.7071ZM33.8161 21.168C31.9255 21.582 31.2575 18.1524 32.3434 16.6836C33.0778 15.6953 34.6129 15.8242 34.9528 17.8008C35.0661 18.4492 35.0778 19.1094 34.988 19.7617C34.8825 20.4804 34.4255 21.0313 33.8161 21.168ZM35.4489 30.8008C35.4489 31.1172 34.9723 31.1172 34.9723 30.8008V25.8281C34.9723 25.5117 35.4489 25.5117 35.4489 25.8281V30.8008ZM39.5544 21.2891C39.5544 21.6055 39.0778 21.6055 39.0778 21.2891V16.3164C39.0778 16 39.5544 16 39.5544 16.3164V21.2891ZM41.1599 30.7071C40.4802 30.7071 39.8396 30.1602 39.7146 29.2735C39.5232 27.8985 39.7185 25.7149 41.1443 25.5899C43.4373 25.4024 43.449 30.7071 41.1599 30.7071ZM44.6716 21.2891C44.6716 21.6055 44.195 21.6055 44.195 21.2891V16.3164C44.195 16 44.6716 16 44.6716 16.3164V21.2891ZM47.1091 30.8008C47.1091 31.1172 46.6325 31.1172 46.6325 30.8008V25.8281C46.6325 25.5117 47.1091 25.5117 47.1091 25.8281V30.8008ZM51.5818 19.7618C51.3787 21.2384 49.7498 21.7618 48.8904 20.4298C48.2498 19.4337 48.2771 17.5782 48.9412 16.6798C49.6873 15.6798 51.2107 15.8282 51.5506 17.797C51.6639 18.4493 51.6755 19.1095 51.5818 19.7618ZM52.2263 30.8008C52.2263 31.1172 51.7498 31.1172 51.7498 30.8008V25.8281C51.7498 25.5117 52.2263 25.5117 52.2263 25.8281V30.8008ZM55.8513 21.2891V16.3164C55.8513 16 56.3279 16 56.3279 16.3164V21.2891C56.3279 21.6055 55.8513 21.6055 55.8513 21.2891ZM57.7615 30.7071C57.0818 30.7071 56.4412 30.1602 56.3201 29.2735C56.1248 27.8712 56.3397 25.711 57.7498 25.5899C60.035 25.3868 60.0623 30.7071 57.7615 30.7071ZM60.3982 20.4301C59.7576 19.434 59.785 17.5785 60.449 16.6801C60.7537 16.2738 61.2185 16.0434 61.6599 16.0785C63.074 16.1996 63.2849 18.3597 63.0896 19.7621C62.8787 21.2465 61.2537 21.7582 60.3982 20.4301ZM63.1482 30.8011C63.1482 31.1175 62.6717 31.1175 62.6717 30.8011V25.8284C62.6717 25.512 63.1482 25.512 63.1482 25.8284V30.8011Z" fill="black"/>
<path d="M61.617 16.555C60.3514 16.4691 60.0897 19.0706 60.8006 20.1722C61.4295 21.1449 62.4764 20.7191 62.617 19.6956C62.7615 18.6565 62.6717 16.6448 61.617 16.555Z" fill="black"/>
<path d="M80.297 49.164C77.9962 49.3788 75.7501 50.3984 74.0626 51.9765C73.8595 50.414 73.5353 48.8632 73.0938 47.3593C73.0353 47.164 72.7462 47.1249 72.6642 47.3437C72.0274 49.0195 71.5431 50.7656 71.2267 52.5273C71.172 52.8241 71.6212 52.8984 71.6759 52.6054C71.9454 51.0976 72.336 49.6054 72.8478 48.1601C73.2267 49.5742 73.5001 51.0234 73.6681 52.4843C73.6876 52.6718 73.922 52.7577 74.0548 52.6171C75.5157 51.121 77.4884 50.0898 79.5548 49.7226C77.8673 51.1288 76.2501 52.6484 74.7501 54.246C74.586 54.4218 74.7696 54.6991 74.9962 54.6132C76.129 54.1835 77.4337 54.3007 78.4845 54.8905C77.4025 54.9843 76.3478 55.3124 75.3986 55.8554C75.2189 55.9608 75.2619 56.2382 75.4689 56.2772C77.0431 56.578 78.5275 57.4256 79.59 58.6288C78.2814 58.7968 76.8908 58.4726 75.8048 57.7304C75.5587 57.5624 75.3009 57.9335 75.5509 58.1054C76.8478 58.9921 78.5392 59.3281 80.0665 59.0117C80.2306 58.9765 80.3048 58.7812 80.1993 58.6484C79.1876 57.3672 77.7423 56.414 76.1641 55.9726C77.711 55.2538 79.2774 55.3085 79.1836 55.3202C79.3984 55.3202 79.4922 55.0507 79.3281 54.9179C78.3086 54.0898 76.9297 53.7499 75.6445 53.9726C77.1601 52.4101 78.7773 50.9335 80.4687 49.5703C80.6289 49.4297 80.5314 49.1484 80.297 49.164Z" fill="black"/>
<path d="M80.312 29.551V16.953C80.312 16.6522 79.8589 16.6522 79.8589 16.953V29.551C79.855 29.8518 80.312 29.8518 80.312 29.551Z" fill="black"/>
<path d="M83.281 19.715V26.5666C83.281 26.8674 83.7341 26.8674 83.7341 26.5666V19.715C83.738 19.4142 83.281 19.4142 83.281 19.715Z" fill="black"/>
<path d="M8.359 84.742C8.63244 84.8631 8.81212 84.4412 8.53478 84.324C7.29258 83.8006 6.26138 82.6521 5.62858 81.0857C5.05827 79.6716 4.87077 78.1169 4.69108 76.613C4.65592 76.3161 4.2028 76.3669 4.24186 76.6677C4.42545 78.1989 4.61686 79.7849 5.21061 81.2536C5.88248 82.9333 6.9997 84.1717 8.359 84.742Z" fill="black"/>
<path d="M3.062 85.992C3.30419 86.1678 3.57372 85.8045 3.33153 85.6248C2.10103 84.7264 1.17133 83.4373 0.706529 81.9881C0.616686 81.703 0.183089 81.8397 0.272939 82.1248C0.765129 83.6639 1.7573 85.0389 3.062 85.992Z" fill="black"/>
<path d="M31.777 80.547C31.4411 79.8947 31.2184 79.1993 31.1168 78.4689C31.3161 78.1681 31.5582 78.0587 32.0348 78.0783C32.4957 78.0822 32.9411 78.383 33.0934 78.7931C33.2497 79.2072 33.0817 79.7267 32.7223 79.9533C32.4645 80.1135 32.7106 80.5002 32.9606 80.34C33.5036 80.0002 33.7497 79.2541 33.5192 78.6369C33.2965 78.051 32.6911 77.6331 32.0387 77.6292C31.4176 77.6292 31.0192 77.7581 30.6871 78.3088C30.6597 78.3518 30.6519 78.4026 30.6558 78.4534C30.7574 79.2659 30.9996 80.0432 31.3746 80.7659C31.5074 81.0198 31.9137 80.8126 31.777 80.547Z" fill="black"/>
<path d="M56.055 78.398C55.8441 78.941 55.68 79.5035 55.5667 80.0738C55.1019 79.9058 54.6878 79.7105 54.4925 79.3433C54.141 78.6793 54.7308 77.8941 55.4652 78.0503C55.7777 78.1011 55.8402 77.6636 55.5589 77.605C54.4339 77.3784 53.5628 78.562 54.0941 79.5581C54.391 80.1167 55.0004 80.3628 55.598 80.5698C55.7074 80.6089 55.8441 80.5503 55.8871 80.4292C55.891 80.4175 55.8832 80.4057 55.8832 80.394C56.1058 80.2573 55.9105 80.0268 56.4808 78.5659C56.5902 78.2808 56.1644 78.1245 56.055 78.398Z" fill="black"/>
</svg>
