<svg width="84" height="88" viewBox="0 0 84 88" fill="none" xmlns="http://www.w3.org/2000/svg">
<path d="M41.238 58.086L35.8239 60.4337C35.5505 60.5509 35.7262 60.9689 36.0036 60.8517L41.4177 58.504C41.695 58.3868 41.5153 57.9688 41.238 58.086Z" fill="black"/>
<path d="M48.898 54.914L43.4839 57.2617C43.2105 57.3789 43.3862 57.7968 43.6636 57.6797L49.0777 55.332C49.355 55.2109 49.1753 54.7929 48.898 54.914Z" fill="black"/>
<path d="M28.164 38.121C28.0507 38.1757 27.9999 38.3085 28.0546 38.4218C29.0195 40.496 30.1327 42.5156 31.3632 44.4335C31.5195 44.6835 31.9101 44.4413 31.746 44.1874C28.4882 39.1093 28.6679 37.8827 28.164 38.121Z" fill="black"/>
<path d="M34.996 41.129C35.5507 42.8009 37.9335 43.2306 38.9413 41.9415C39.8515 40.7774 39.2968 38.5313 38.4569 37.2696C36.66 34.5665 33.8085 35.8594 34.0272 38.4571C34.1171 39.4883 34.7069 40.2462 34.996 41.129ZM38.078 37.5196C38.8124 38.6173 39.3436 40.6876 38.5819 41.6602C37.8046 42.6563 35.8671 42.3164 35.4257 40.9844C35.1288 40.0782 34.5585 39.3399 34.4804 38.418C34.2968 36.2422 36.5584 35.2383 38.078 37.5196Z" fill="black"/>
<path d="M43.473 38.621C43.5824 38.9022 44.0043 38.7382 43.8988 38.4608C43.2933 36.8749 42.43 35.41 41.3324 34.1131C41.1371 33.8827 40.7933 34.1756 40.9847 34.4061C42.0472 35.6639 42.887 37.082 43.473 38.621Z" fill="black"/>
<path d="M48.512 36.402C48.6409 36.6715 49.0511 36.484 48.9222 36.2067L46.8597 31.7965C46.7347 31.5309 46.3206 31.7144 46.4495 31.9918L48.512 36.402Z" fill="black"/>
<path d="M50.488 45.426L46.0232 47.3908C45.7498 47.5119 45.9334 47.9299 46.2068 47.8049L50.6716 45.8401C50.9489 45.719 50.7575 45.301 50.488 45.426Z" fill="black"/>
<path d="M52.871 25.23C52.5233 25.2534 53.039 26.73 54.0155 27.6245C53.8124 26.5151 53.1444 25.2886 52.871 25.23Z" fill="black"/>
<path d="M70.746 11.184C69.914 9.08629 67.5155 7.92619 65.2929 8.52779L47.0629 13.5122L46.6488 12.4927C46.3051 11.606 45.5043 10.9693 44.5863 10.7974C43.3402 7.69969 41.5551 5.37549 39.2777 3.89509C36.6566 2.19979 33.1683 1.88339 30.5316 3.0865C28.1449 0.1295 23.473 -1.0463 18.2696 1.6568C16.9219 2.36383 15.8243 3.1959 14.9923 4.1256C10.215 0.824801 2.77334 4.94201 0.867343 10.6022C-0.570157 14.8561 1.04703 19.7819 5.45324 21.5362C1.87514 25.1768 0.707143 30.8253 2.62124 35.4072C4.42204 39.7314 8.67204 42.6884 13.1872 43.1611C13.4997 45.8799 15.9841 47.4658 18.406 46.9853L27.3357 69.7313C28.0779 71.6258 30.2654 72.8602 33.5662 71.7821C36.1678 70.8798 38.5857 70.0399 38.4607 70.0829C38.6365 70.0985 38.8123 70.1259 38.992 70.1259C40.0389 70.1259 41.1365 69.8485 42.1756 69.3017L55.0736 62.5672C46.4681 84.1612 56.9564 85.2313 57.1009 85.6413C61.3821 87.6296 68.3309 85.5827 71.4679 78.3796C71.7257 77.7819 73.5499 72.9343 73.5538 72.9226C79.2999 60.8366 80.6124 58.4265 79.7296 56.4425C79.3507 55.6027 78.4171 55.0519 77.4718 55.5597C77.6358 53.6339 77.9327 52.2824 77.0343 51.1183L81.1788 48.9542C83.2179 47.8761 84.1788 45.3917 83.3663 43.298L70.746 11.184ZM69.3788 58.657C68.0038 57.9578 66.5819 57.6218 65.0819 57.9148L64.8944 57.4578L68.9686 55.3289C69.0584 55.9304 69.1405 56.4383 69.3788 58.657ZM65.4257 69.825C65.3007 69.8406 64.2187 70.9852 62.3554 70.1453C61.9648 69.8094 61.871 69.2781 61.8398 68.743C61.6601 65.7 62.3828 65.0086 62.6015 62.661C62.8671 62.6805 63.0976 62.6923 63.6015 62.5438C64.0468 62.8212 64.5429 63.0086 64.9179 63.1922C67.914 64.6336 68.2851 67.743 65.4257 69.825ZM62.6366 62.2078C62.6952 61.075 62.6171 59.8836 62.3554 58.6375C61.9608 56.743 60.3046 54.9813 58.7148 55.9813L58.0507 54.3485L62.4218 52.5673L65.0234 58.9853C65.664 60.5986 64.3944 62.3171 62.6366 62.2078ZM57.66 54.0125L57.5663 54.0555C56.3749 54.5594 54.8358 53.7664 54.8827 52.3914C54.9061 51.7312 55.3397 51.1297 55.9882 50.868C57.9999 50.0476 60.7577 48.9227 62.7694 48.1024C64.3241 47.4617 65.8943 48.8719 65.3552 50.2782C65.1834 50.7313 64.824 51.0907 64.3436 51.2899C64.2498 51.3289 62.3397 52.1024 62.4608 52.0516L57.6678 54.0047L57.66 54.0125ZM67.2694 18.8055C67.8944 20.368 69.16 23.5086 69.8085 25.1141C70.078 25.7821 69.7499 26.5399 69.0741 26.8016C66.371 27.8407 58.8941 30.7078 54.6991 32.3133L54.5272 31.8914C58.7225 30.2859 66.2072 27.4187 68.9102 26.3758C69.3517 26.2039 69.5587 25.7157 69.3868 25.282C68.7384 23.6726 67.4727 20.532 66.8477 18.9695C66.6836 18.5594 66.2266 18.3484 65.8086 18.4812L51.0386 23.2976L50.8667 22.8757L65.6677 18.0515C66.3084 17.8445 67.0155 18.1727 67.2694 18.8055ZM70.2264 45.3715C70.4764 45.5434 70.2186 45.9184 69.9725 45.7465C59.4025 38.5434 60.1366 39.0512 60.0819 38.9887L59.7772 44.8207L59.3749 43.8246L59.6522 38.5277C59.6639 38.2894 60.0194 38.1683 60.3436 38.5863C60.4725 38.7543 60.035 38.4027 65.4764 42.1254L68.5272 32.9574C68.5585 32.8636 68.6444 32.8011 68.7421 32.8011C68.8202 32.8011 68.871 32.8011 75.0702 36.2034C75.3358 36.348 75.1131 36.7464 74.8514 36.6019C72.7616 35.4535 69.7108 33.7894 68.8748 33.3519C68.5311 34.3988 70.0506 29.7972 65.8826 42.4066L70.2264 45.3715ZM52.3744 25.8325C52.0697 24.813 52.9486 24.4184 53.4721 25.1684C54.0619 26.0044 54.4291 27.0043 54.5307 28.0239C55.1674 28.438 55.9877 28.6489 56.5385 28.1333C56.9174 27.7778 56.9721 27.1567 56.9799 26.6528C56.9877 25.9965 57.3588 25.6137 57.9448 25.9926C58.2885 26.2114 58.6948 26.2622 59.0425 26.1489C59.226 26.0903 59.3979 25.9848 59.5815 25.8755C60.4253 25.3755 60.5893 25.477 61.5737 25.4926C63.019 25.4926 64.3745 24.7505 65.5737 24.0942C65.8393 23.9497 66.0542 24.3481 65.7925 24.4927C64.6089 25.1411 63.1363 25.9458 61.5737 25.9458C60.6479 25.9458 60.5932 25.8052 59.8159 26.2661C59.6206 26.3833 59.4174 26.5005 59.187 26.5786C58.2104 26.9028 57.6323 26.2622 57.5386 26.2934C57.2925 26.313 57.6831 27.684 56.8511 28.4653C56.3589 28.9263 55.5034 29.0747 54.562 28.5708C54.562 28.8013 54.5502 29.0278 54.5268 29.2583C54.4955 29.5591 54.0424 29.5083 54.0776 29.2075C54.1127 28.8989 54.1166 28.5864 54.0971 28.2778C53.2729 27.6763 52.6635 26.813 52.3744 25.8325ZM75.2294 45.8405C70.8974 47.8171 68.6435 48.9499 65.7489 50.4967C65.8075 50.36 65.8622 50.2389 65.8934 49.9029C68.6278 48.4459 70.8778 47.3248 75.0379 45.4224C75.3075 45.3013 75.5067 45.7116 75.2294 45.8405ZM46.2254 12.6605L60.7414 48.4415L56.382 50.2149C55.3312 47.6094 45.366 22.9569 41.913 14.4059C41.663 13.7887 41.6903 13.0973 41.9794 12.5036C42.8505 10.7263 45.491 10.7737 46.2254 12.6605ZM31.0494 8.33239C29.9713 10.1371 27.3932 9.51599 27.5533 7.24259C27.6431 5.73869 29.0416 4.34419 30.3931 3.65279C31.3853 5.03559 31.862 6.97689 31.0494 8.33239ZM15.0614 4.74259C17.495 6.67619 17.327 9.66449 15.7606 10.0824C14.995 10.2855 14.1825 9.68395 13.9012 8.99649C13.3387 7.65269 14.1434 5.87149 15.0614 4.74259ZM3.0344 35.2306C1.1906 30.8244 2.4094 25.1606 5.9211 21.7036C6.90938 22.0239 7.9484 22.1294 8.9367 22.0044C11.3547 21.7036 11.2258 19.3169 9.34686 19.2075C8.19066 19.1567 6.64376 20.3794 5.80776 21.1802C1.55776 19.6177 -0.106337 14.895 1.29996 10.7422C3.10856 5.37107 10.1867 1.40237 14.698 4.46487C13.6785 5.73437 12.8542 7.65627 13.4832 9.16407C13.8386 10.0235 14.8582 10.7891 15.8777 10.5157C17.8347 9.99223 18.0769 6.55867 15.3581 4.39067C16.1472 3.51176 17.1979 2.72657 18.4792 2.05087C23.5144 -0.558529 27.8776 0.60557 30.1082 3.28917C28.6434 4.06261 27.198 5.56647 27.0965 7.21497C26.909 9.92197 30.0926 10.8127 31.4363 8.56657C32.3465 7.05487 31.8621 4.96497 30.8074 3.45717C33.2957 2.37127 36.5652 2.68373 39.0262 4.27748C41.1707 5.67198 42.8621 7.85558 44.0692 10.7541C42.1161 10.7463 40.7372 12.7346 41.4872 14.5822L41.6552 15.0002L22.8742 20.1408C21.1554 20.6095 19.7648 21.6213 18.9914 22.9338C18.9016 23.0041 13.8039 26.8947 14.1281 26.6526C12.589 27.7776 11.8703 29.4103 12.175 30.9611C12.2883 31.5471 12.2297 31.2072 15.2375 38.9299C13.9172 39.7542 13.1359 41.1799 13.1398 42.6838C8.83509 42.1604 4.7292 39.297 3.0344 35.2306ZM6.2961 21.3476C6.96798 20.7304 8.4055 19.5976 9.3195 19.6679C10.5656 19.7382 10.8312 21.3163 8.87809 21.5585C8.03825 21.6601 7.1515 21.5898 6.2961 21.3476ZM33.4681 71.3356C33.3783 71.3395 29.0931 73.0036 27.7572 69.5622C27.722 69.4724 12.7102 31.3122 12.6202 30.8592C12.3585 29.4803 13.0147 28.0233 14.4014 27.0115C16.585 25.3396 18.71 23.7146 18.6006 23.7967C18.292 24.7107 18.292 25.6717 18.6397 26.5545L34.6867 67.4765C35.1164 68.5546 35.9797 69.3827 37.1242 69.8046C37.2609 69.8554 37.4054 69.8788 37.546 69.9179L33.4681 71.3356ZM41.9564 68.902C39.39 70.2536 36.1205 69.8512 35.1087 67.3122L19.0657 26.3902C18.0618 23.8316 20.1946 21.3394 22.9954 20.5738L41.8274 15.4176L45.7962 25.2418L43.1087 26.2223C42.8235 26.3238 42.9876 26.7535 43.265 26.648L45.9642 25.6598L55.9525 50.3828L55.8079 50.4414C54.9954 50.7734 54.4524 51.5312 54.4212 52.3711C54.4173 52.4375 54.4329 52.5039 54.4368 52.5703L51.6438 53.7031C51.3626 53.8164 51.5384 54.2382 51.8157 54.125L54.5149 53.0312C54.8704 54.2695 56.2727 54.9882 57.6204 54.5039L58.3392 56.2734C57.1087 57.3906 55.9564 60.3515 55.3236 61.914L41.9564 68.902ZM77.1834 53.539C77.1756 53.6288 76.9725 56.1054 76.9725 56.0117C76.9725 56.0976 77.0232 56.1797 77.1014 56.2148C77.3553 56.3437 77.5193 55.8945 78.0897 55.8281C78.6248 55.7617 79.1091 56.1836 79.3084 56.6328C80.078 58.3633 78.8983 60.6172 73.1366 72.7348C73.1209 72.7699 71.2849 77.645 71.0427 78.2036C68.6482 83.7036 63.328 87.3247 57.2338 85.2153C48.7143 82.27 52.6713 69.5273 56.1088 61.2113C56.6713 59.8519 57.2377 58.5355 58.015 57.3597C58.6517 56.3909 59.4017 55.7855 60.3978 56.3792C61.136 56.8206 61.6869 57.68 61.9056 58.7347C62.3352 60.7894 62.3157 62.6995 61.847 64.4066C61.2102 66.7191 60.9759 69.3871 62.0501 71.5277C62.1868 71.7972 62.5891 71.5941 62.4563 71.3246C62.3352 71.0863 62.2337 70.8324 62.1438 70.5707C62.9954 71.1996 64.3665 71.1801 65.3274 70.4418C66.6477 69.6722 67.8977 68.059 67.8391 66.4027C67.761 64.6019 66.3547 63.3285 64.6868 62.5863C64.5032 62.5042 64.3196 62.4183 64.1399 62.3285C65.4094 61.6527 65.968 60.1527 65.4368 58.8168L65.2454 58.3441C66.9837 58.0394 68.1673 58.5746 69.5345 59.2582C69.5463 59.2738 69.5463 59.2972 69.5658 59.3089C70.6088 60.098 71.2689 61.348 71.3275 62.6566C71.3275 62.684 71.3509 62.7035 71.3587 62.727C71.0345 62.8598 70.5423 63.1059 70.7689 63.3715C70.8509 63.4652 70.9955 63.4769 71.0892 63.3988C71.4447 63.098 71.933 62.9613 72.3939 63.0394C72.6947 63.0785 72.7611 62.641 72.4681 62.5902C72.2377 62.5512 72.0033 62.5668 71.7767 62.6098C71.7025 61.1879 70.9837 59.8286 69.8509 58.9653C69.8197 58.5981 69.5931 56.4419 69.3861 55.1098L73.0697 53.1879C73.9408 55.8441 74.2689 58.6918 74.0189 61.4731C73.765 61.5004 73.5228 61.5707 73.308 61.6371C73.0189 61.727 73.1634 62.1645 73.4447 62.0707C74.7064 61.684 74.5892 62.1137 74.8705 62.1137C75.1361 62.1137 75.3392 61.6449 74.472 61.4926C74.7298 58.6332 74.3822 55.7035 73.4798 52.977L76.6204 51.3364C77.179 51.9887 77.242 52.8789 77.1834 53.539Z" fill="black"/>
<path d="M42.34 48.672L33.2736 52.2931C32.9963 52.4064 33.1603 52.8244 33.4416 52.715L42.508 49.0939C42.7853 48.9806 42.6173 48.5626 42.34 48.672Z" fill="black"/>
<path d="M31.539 29.848L24.6679 32.2699C24.5507 32.3128 24.4882 32.4418 24.5312 32.5589C24.5624 32.6527 24.6523 32.7113 24.746 32.7113C24.8046 32.7113 24.3124 32.8714 31.6952 30.2777C31.9726 30.1722 31.8203 29.7464 31.539 29.848Z" fill="black"/>
<path d="M34.809 29.551L39.2035 28.0198C39.4808 27.9221 39.348 27.5003 39.0551 27.5901L34.6606 29.1213C34.3793 29.219 34.516 29.6447 34.809 29.551Z" fill="black"/>
<path d="M75.254 62.633C75.9806 62.5392 76.3985 62.9025 76.5352 62.9025C76.7657 62.9025 76.8477 62.5939 76.6485 62.4806C76.5469 62.422 76.4414 62.3713 76.3321 62.3283C76.5664 61.965 77.3907 59.3322 77.3868 56.4885C77.3868 56.1877 76.9336 56.1877 76.9336 56.4885C76.9415 59.9221 75.9415 61.8908 75.9415 62.2151C75.6993 62.1682 75.4493 62.1565 75.1993 62.1878C74.9024 62.2229 74.9532 62.6681 75.254 62.633Z" fill="black"/>
<path d="M57.109 60.668C57.1168 60.9258 57.2965 61.1641 57.5465 61.2461C58.3278 61.4961 59.1285 61.5391 59.9879 61.3594C60.2145 61.3125 60.402 61.1367 60.4645 60.9141C60.6442 60.2774 60.8238 59.3399 60.3238 58.5743C59.2418 56.9024 57.0035 57.4804 57.109 60.668ZM60.027 60.7891C60.0075 60.8516 59.9567 60.9024 59.8942 60.9141C59.1207 61.0781 58.3981 61.043 57.6833 60.8164C57.6169 60.7969 57.5622 60.7266 57.5622 60.6602C57.4763 58.0704 59.0622 57.4688 59.9411 58.8243C60.2458 59.2852 60.2731 59.9102 60.027 60.7891Z" fill="black"/>
<path d="M54.453 87.32C53.1171 87.57 51.7108 87.2887 50.5819 86.5387C48.6561 85.2575 48.0272 82.9215 48.4061 82.0192C48.91 81.988 49.3944 81.8005 49.742 81.4528C50.1443 81.0505 48.8319 80.57 48.1365 81.57C46.3396 81.445 45.1365 78.8747 47.5037 76.2184C47.7029 75.9958 47.3709 75.6911 47.1639 75.9176C44.6131 78.7731 45.8553 81.7145 47.9295 81.9996C47.5701 83.1558 48.324 85.5855 50.3318 86.9176C51.5271 87.7145 53.0584 88.0504 54.5388 87.7653C54.8396 87.7067 54.7382 87.2536 54.453 87.32Z" fill="black"/>
<path d="M73.422 2.207L72.1681 8.2148C72.1095 8.51168 72.5509 8.59761 72.6134 8.30855L73.8673 2.30075C73.9298 1.99997 73.4845 1.91794 73.422 2.207Z" fill="black"/>
<path d="M73.824 9.91799L76.7693 6.35158C76.9607 6.12111 76.6091 5.82814 76.4177 6.06252L73.4724 9.62892C73.281 9.85939 73.6404 10.1445 73.824 9.91799Z" fill="black"/>
<path d="M74.438 12.328C74.5669 12.3358 82.2544 12.7811 82.4028 12.7889C82.6958 12.7889 82.7075 12.3514 82.4145 12.3358L74.4653 11.8749C74.1372 11.8944 74.1568 12.3085 74.438 12.328Z" fill="black"/>
<path d="M31.91 74.543C26.1522 76.7969 19.91 72.5508 19.863 66.3907C19.8591 66.086 19.406 66.0938 19.4099 66.3946C19.4568 72.879 26.0388 77.3356 32.0779 74.9649C32.3591 74.8555 32.1873 74.4336 31.91 74.543Z" fill="black"/>
<path d="M24.512 78.387C22.0159 79.4456 19.1253 78.051 18.4143 75.4143C18.3362 75.1252 17.8987 75.2424 17.9768 75.5315C18.758 78.426 21.9338 79.9729 24.6916 78.8049C24.965 78.6877 24.7932 78.2698 24.512 78.387Z" fill="black"/>
<path d="M18.438 37.266L20.7388 43.2972C20.8482 43.5784 21.2701 43.4144 21.1646 43.137L18.8638 37.1058C18.7505 36.8129 18.3325 36.9886 18.438 37.266Z" fill="black"/>
<path d="M22.707 47.465C22.5742 47.1955 22.1679 47.3947 22.2968 47.6642L24.1601 51.4572C24.293 51.7267 24.6992 51.5275 24.5703 51.258L22.707 47.465Z" fill="black"/>
</svg>
