<svg width="86" height="88" viewBox="0 0 86 88" fill="none" xmlns="http://www.w3.org/2000/svg">
<path d="M83.848 24.605C86.8168 20.0308 83.4886 14.136 78.0472 13.648C78.5433 12.0074 78.3402 10.1792 77.4925 8.70271C73.6878 2.08941 57.0045 2.16361 54.1295 9.55427L40.0315 1.41367C37.0745 -0.293327 32.2854 -0.293327 29.3475 1.41367L7.30451 14.2227C7.19513 14.2852 7.15998 14.4258 7.22248 14.5352C7.22248 14.5391 7.23029 14.5391 7.23029 14.543C6.01939 15.3008 5.37479 16.25 5.28889 17.2149C5.28498 17.2149 5.28108 17.211 5.27717 17.211C5.15217 17.211 5.05061 17.3125 5.05061 17.4375L5.03108 23.4297C5.03108 24.6719 5.85139 25.8203 7.33578 26.6719L27.4018 38.2499L27.394 41.9726C27.394 42.7304 27.7377 43.5664 28.6362 44.332C28.6401 44.332 28.6401 44.3359 28.644 44.3359L17.371 50.8867C15.8358 51.7813 14.8398 53.2265 15.539 54.8515L15.5312 59.2304C15.5312 60.0781 16.0077 60.9257 16.9648 61.6288C16.9062 61.7578 16.8554 61.8945 16.7851 62.0156C15.3671 64.4453 11.8437 65.1289 9.68738 66.8984C5.02328 69.207 3.35538 74.2578 5.06628 78.6014C8.60538 87.8006 23.8753 88.7964 33.5583 87.3006C37.9997 86.617 40.07 85.3006 46.7303 84.2928C49.9686 83.8045 54.1248 83.3201 56.2381 80.9725C56.6521 80.5154 56.9451 79.7811 56.7146 79.1991C57.3865 79.3163 58.1013 79.3944 58.8201 79.328C60.3826 79.1639 61.8318 78.1327 61.3318 76.8202C65.1638 77.5624 66.8162 73.2382 63.4373 72.4452C64.0428 72.035 64.4373 71.4257 64.4685 70.7929C64.574 68.6835 61.2615 68.1913 60.2458 68.0898C58.8591 67.9531 57.4685 68.0937 56.0974 68.2968L66.9604 61.9843C68.2534 61.2343 68.8979 60.2499 68.8979 59.2655L68.9058 54.8788C69.4604 53.6093 68.9526 52.3866 67.8824 51.4804L79.1674 44.9218C80.2612 44.2851 81.2104 43.2773 81.2221 42.0077C81.1947 36.6874 81.308 36.6054 81.1439 35.953C82.39 35.0585 83.3587 34.1366 84.0892 33.1405C86.0619 30.4257 86.3978 26.7264 83.847 24.6053L83.848 24.605ZM22.668 11.859C22.4063 11.7067 22.6407 11.3121 22.8985 11.4684L30.4493 15.8903L35.6407 13.2497C35.9102 13.113 36.1133 13.5192 35.8477 13.6559L30.9141 16.1637L39.8711 21.4098L48.9219 16.82C49.1914 16.6833 49.3946 17.0896 49.1289 17.2263L40.3359 21.6833L45.914 24.9489C46.1132 25.0661 46.0312 25.3708 45.8008 25.3708C45.6836 25.3708 46.0507 25.5387 39.8554 21.9255L33.039 25.3825L37.3476 27.8552C37.6094 28.0036 37.3828 28.3981 37.1211 28.2497L32.5547 25.6286C28.6289 27.6091 28.8438 27.5348 28.7422 27.5348C28.5039 27.5348 28.4258 27.2145 28.6406 27.1051L32.0859 25.359L23.039 20.1676C17.8007 22.8199 18.2617 22.6168 18.164 22.6168C17.9257 22.6168 17.8476 22.2965 18.0625 22.1871L22.5664 19.898L14.9219 15.5113C14.6601 15.3629 14.8867 14.9684 15.1484 15.1168L23.0507 19.652L29.9648 16.1364L22.668 11.859ZM39.754 5.13241C41.0157 5.13241 42.0392 5.80429 42.0392 6.62851C42.0392 7.45273 41.0158 8.12071 39.754 8.12071C38.4923 8.12071 37.4728 7.45274 37.4728 6.62851C37.4728 5.80039 38.4923 5.13241 39.754 5.13241ZM37.3282 3.86291C37.3282 4.68713 36.3048 5.35511 35.043 5.35511C33.7812 5.35511 32.7618 4.68714 32.7618 3.86291C32.7618 3.03868 33.7813 2.36681 35.043 2.36681C36.3047 2.36681 37.3282 3.03868 37.3282 3.86291ZM57.7422 20.9679C57.9961 21.1124 57.7891 21.5109 57.5195 21.3624L26.8785 4.00344C26.6207 3.855 26.8356 3.46047 27.1012 3.60891L57.7422 20.9679ZM42.6332 9.61591C42.6332 8.79169 43.6527 8.11981 44.9144 8.11981C46.1761 8.11981 47.1996 8.79169 47.1996 9.61591C47.1996 10.4401 46.1762 11.1081 44.9144 11.1081C43.6527 11.1081 42.6332 10.4401 42.6332 9.61591ZM5.4882 23.4249L5.50382 18.9757C5.88663 19.6085 6.50772 20.1866 7.33972 20.6749L29.5347 33.4839C30.9839 34.3003 33.1324 34.8433 35.5269 34.7261V39.5855C35.5269 39.8863 35.98 39.8863 35.98 39.5855V34.6949C37.8355 34.5387 39.2691 34.0269 40.2144 33.4801L62.2614 20.6711C63.0739 20.1946 63.6833 19.6281 64.0622 19.0031L64.0544 23.4562C64.0544 24.6515 63.0662 25.6632 62.0232 26.2687L39.9762 39.0777C37.1637 40.7105 32.5739 40.7105 29.7492 39.0777C29.8586 39.1402 8.43723 26.7727 7.56523 26.2687C6.22543 25.507 5.48713 24.4953 5.48713 23.4249H5.4882ZM78.9452 39.1129L59.0072 50.6949C56.476 52.1637 52.3353 52.1676 49.7806 50.6949L32.0146 40.4369C34.6357 41.0502 37.913 40.8041 40.2021 39.476L41.4794 38.7338L55.2764 47.2377C55.7022 47.4994 56.2334 47.5072 56.6631 47.2689L69.6361 39.9251C70.5541 39.4134 70.5658 38.1009 69.6595 37.5657C66.7337 35.8391 60.6517 32.261 56.6555 29.9173C61.718 26.8587 62.8938 26.5814 63.8235 25.304L78.9215 34.0228C81.3863 35.4447 81.3945 37.6833 78.9452 39.1129ZM47.0152 35.5152C47.109 36.1246 47.2261 36.7691 47.3824 37.4918C47.4449 37.7887 47.8902 37.691 47.8277 37.3942C47.6597 36.6129 47.5347 35.9215 47.4371 35.2692L49.9566 33.8083C51.0191 34.027 53.9722 34.5426 54.3004 34.5426C54.5816 34.5426 54.6129 34.1286 54.3316 34.0895C53.0347 33.9137 51.7769 33.6989 50.5621 33.4606L56.2105 30.1794C60.1988 32.5192 66.4525 36.2028 69.4335 37.9567C70.039 38.3161 70.0273 39.1872 69.4179 39.527L56.4489 46.8708C56.152 47.031 55.8083 47.0231 55.5231 46.8474L41.9331 38.4724L47.0152 35.5152ZM28.9642 39.1558V39.1597C29.2689 39.4097 28.4369 38.8902 49.5582 51.0897C50.7418 51.7694 52.4605 52.2655 54.5348 52.242V57.2108C52.5856 57.2304 50.9215 56.7655 49.7731 56.1131C47.6911 54.91 31.4961 45.5621 29.7141 44.5311C28.7414 43.9686 27.8508 43.0897 27.8508 41.9725L27.8586 38.5116C28.261 38.7421 28.9095 39.1128 28.9642 39.1558ZM44.0812 53.3508C43.3976 54.2141 42.5343 54.9563 41.4562 55.2219C40.4914 55.4719 39.0656 55.343 39.4132 54.2453C39.7765 53.0578 41.1749 52.2727 41.7413 51.9993C41.8311 52.0539 44.2336 53.4406 44.0812 53.3508ZM34.55 47.8469C34.0227 48.4758 33.1828 49.2492 32.0852 49.5227C31.0618 49.7844 29.6985 49.6165 30.0305 48.5501C30.3625 47.4993 31.5149 46.7531 32.0969 46.4328C32.1906 46.4836 34.7063 47.9367 34.55 47.8469ZM43.0383 69.4599V73.8232C43.0383 74.124 42.5852 74.124 42.5852 73.8232V69.4834C42.7336 69.4834 42.886 69.4716 43.0383 69.4599ZM21.7333 62.0224C21.4716 61.8701 21.702 61.4755 21.9599 61.6279L34.9559 69.1474C35.2176 69.2958 34.991 69.6904 34.7293 69.5419L21.7333 62.0224ZM26.5927 67.2294L26.1747 67.1357C26.1591 67.0693 26.1435 67.0224 26.1318 66.9638L26.5927 67.2294ZM64.7297 73.9364C65.2961 75.3895 63.2453 77.0223 60.9485 76.2489C60.8743 76.1786 60.7844 76.1317 60.6985 76.077C60.6087 76.0184 60.6399 76.0184 60.5266 75.9677C60.0969 75.0966 59.1086 74.3739 57.843 74.038C52.7688 72.6708 44.37 77.1825 37.417 76.663C37.5108 76.3973 37.2022 76.2762 37.0498 76.4403C36.792 76.7255 36.6201 77.0575 36.5498 77.4051C36.4912 77.702 36.9366 77.7879 36.9951 77.495C37.0225 77.3622 37.0694 77.2294 37.1358 77.1044C42.9327 77.6278 48.2178 75.0419 53.8348 74.3583C55.9325 74.1044 58.7059 74.1356 59.9286 75.8622C59.7489 75.9442 59.7645 76.159 59.8934 76.2489C59.9911 76.3153 60.1004 76.3778 60.2137 76.4364C60.2801 76.6434 60.4012 76.6903 60.5184 76.659C60.5497 76.6512 60.5653 76.6239 60.5887 76.6044C60.6239 76.6161 60.6512 76.6356 60.6864 76.6473C61.3817 77.3895 60.7684 78.6707 58.7645 78.8778C58.0301 78.9481 57.2723 78.8427 56.5653 78.7138C56.4754 78.6513 55.2294 77.206 52.6591 76.9833C48.5458 76.6317 43.4052 79.7841 38.5931 80.3192C38.6556 80.1668 38.7337 80.0184 38.8314 79.8778C38.9993 79.6278 38.6243 79.3738 38.4564 79.6238C38.0267 80.2645 37.8626 81.0105 38.0032 81.7215C38.0618 82.0145 38.5071 81.9325 38.4485 81.6356C38.3939 81.3583 38.4017 81.0731 38.4524 80.7958C44.8313 80.1708 51.3504 75.1083 55.8234 78.6864C55.8 78.7137 55.7688 78.7371 55.7609 78.7762C55.7297 78.8934 55.7961 79.0106 55.9094 79.0496C56.6008 79.2723 56.3391 80.1746 55.8938 80.6707C53.886 82.8973 49.8196 83.366 46.6555 83.8465C40.0813 84.8387 37.7922 86.1903 33.4835 86.8543C24.089 88.3035 8.87846 87.2645 5.48346 78.4402C3.86236 74.3464 5.40143 69.53 9.92486 67.2842C12.171 65.46 15.6515 64.8467 17.171 62.249C17.2374 62.1358 17.2842 62.0069 17.3389 61.8897C17.7999 62.1748 20.2178 63.5577 25.4717 66.5928C25.4756 67.8428 25.6045 69.0889 25.8624 70.3076C25.9249 70.6005 26.3702 70.5068 26.3077 70.2138C26.1202 69.3427 26.0108 68.4521 25.96 67.5615C28.6436 68.167 27.7178 67.96 27.917 68.0029L37.0537 73.2763C37.0107 73.3076 36.9717 73.3505 36.96 73.4052C36.9521 73.4365 36.9678 73.4677 36.9756 73.499C36.9248 73.5888 36.8662 73.6787 36.835 73.7763C36.7412 74.0615 37.1748 74.2021 37.2646 73.9169C37.2881 73.8505 37.3311 73.7841 37.3662 73.7177C37.624 73.7724 37.8975 73.8115 38.167 73.8544C40.7959 75.0575 44.6045 74.9755 47.0225 73.5732L47.4092 73.3466C53.2803 72.163 58.4872 70.3778 62.0382 72.4638C61.9874 72.4795 61.9367 72.4873 61.8898 72.5029C61.6515 72.5888 61.714 72.9443 61.9679 72.9443C62.3859 72.8974 62.4054 72.8935 62.6241 72.8271C63.5304 72.7724 64.4758 73.2606 64.7297 73.9364ZM60.2024 68.5419C60.8547 68.6044 64.1008 69.0146 64.0149 70.7685C63.9837 71.4052 63.4251 72.0419 62.6633 72.3271C62.6555 72.3193 62.6555 72.3076 62.6477 72.2998C59.1125 69.8232 53.3235 71.6045 48.6517 72.624L55.0072 68.9287C56.7181 68.6474 58.4798 68.3739 60.2024 68.5419ZM64.2336 60.913C50.5496 69.3935 51.3856 68.9286 51.2606 68.9286C51.034 68.9286 50.9481 68.6278 51.1395 68.5067L63.9945 60.5262C64.2445 60.37 64.4875 60.7568 64.2336 60.913ZM66.8547 56.3661L46.9167 67.9481C44.3894 69.4247 40.2487 69.4208 37.6901 67.9481L17.6281 56.3661C15.1633 54.9442 15.1398 52.7099 17.6008 51.2802L29.0308 44.6357C29.4175 44.9052 31.7339 46.2255 31.6441 46.1709C30.9683 46.5732 29.9371 47.3389 29.5972 48.4131C29.144 49.8779 30.7808 50.3233 32.1949 49.9639C33.441 49.6514 34.3746 48.7725 34.9449 48.0772L37.6207 49.6241L35.1324 51.8468C34.9019 52.0499 35.2144 52.382 35.4331 52.1867L38.0347 49.8624L41.2691 51.7297C40.5582 52.1125 39.3394 52.9171 38.9722 54.1124C38.5074 55.5772 40.1558 56.0304 41.562 55.6632C42.5034 55.4289 43.5581 54.7843 44.4682 53.5774L48.3588 55.8274L45.5307 58.3546C45.3042 58.5578 45.6128 58.8937 45.8354 58.6945L48.7768 56.0656C48.8667 56.1164 49.6362 56.5578 49.5464 56.507C50.1284 56.839 51.0269 57.1984 51.9683 57.4015L47.441 60.9913C47.2027 61.1788 47.4917 61.5304 47.7222 61.3468L52.5581 57.5148C54.6714 57.8586 57.355 57.5929 59.23 56.507L67.4566 51.7258C69.3472 53.2141 68.9797 55.1317 66.8547 56.3661ZM80.7647 42.0071C80.7608 43.1048 79.8858 43.9798 78.9366 44.5305L58.9986 56.1125C58.0259 56.6828 56.6509 57.1008 54.9869 57.1867V52.2101C56.5377 52.132 58.0572 51.7687 59.2369 51.0851C79.6749 39.0301 79.8189 39.5421 80.7759 38.0421C80.772 39.0343 80.7686 41.015 80.7647 42.0071ZM83.7217 32.8743C83.042 33.8001 82.1397 34.6634 80.9873 35.5032C80.6709 34.7962 80.0498 34.1516 79.1435 33.6321L64.0735 24.929C64.3548 24.4642 64.5032 23.972 64.5032 23.4642L64.5149 17.472C64.5149 17.347 64.4133 17.2455 64.2883 17.2455C64.2805 17.2455 64.2766 17.2533 64.2688 17.2533C64.1868 16.2728 63.5266 15.308 62.2961 14.5424C62.3 14.5385 62.3 14.5385 62.3039 14.5346C62.3664 14.4252 62.3274 14.2885 62.2219 14.2221L54.5539 9.79625C57.175 2.67125 73.4989 2.66345 77.1009 8.92906C77.9056 10.3275 78.0814 12.0658 77.5814 13.6166C76.1009 13.558 74.6126 13.9017 73.308 14.597C71.3392 15.6517 71.5463 17.1204 72.2103 17.6478C73.4955 18.6869 76.8314 16.808 77.9017 14.0931C83.0619 14.4916 86.2494 20.0189 83.4876 24.3311C80.5149 22.2413 77.5423 24.5069 78.3274 26.2569C79.0422 27.8585 81.761 27.46 83.5891 24.9835C85.9211 26.9523 85.5381 30.3704 83.7217 32.8743ZM77.417 14.0693C76.3193 16.6591 73.3428 17.9834 72.4912 17.292C71.9795 16.8819 71.9482 15.8389 73.5185 14.999C74.7373 14.3506 76.0342 14.0693 77.417 14.0693ZM83.2256 24.7023C81.5459 26.9796 79.2686 27.257 78.7373 26.0695C78.1435 24.7375 80.6514 22.8898 83.2256 24.7023Z" fill="black"/>
<path d="M26.715 51.418L22.1681 54.4024C21.9142 54.5665 22.1681 54.9454 22.4181 54.7813L26.965 51.7969C27.215 51.6329 26.9689 51.2539 26.715 51.418Z" fill="black"/>
<path d="M30.965 53.477C29.508 53.145 26.7892 54.7465 26.2697 56.4223C25.8127 57.8871 27.4572 58.3364 28.8674 57.9809C29.8674 57.727 30.8244 57.0669 31.6369 56.0707C32.6603 54.809 32.0392 53.7231 30.965 53.477ZM31.2814 55.7817C30.758 56.4223 29.8947 57.2505 28.7502 57.5395C27.7268 57.7973 26.3674 57.6294 26.6994 56.559C27.176 55.0278 29.7189 53.6567 30.8596 53.9223C31.5979 54.0903 32.1212 54.7465 31.2814 55.7817Z" fill="black"/>
<path d="M35.133 57.012L31.801 59.9886C31.5744 60.1878 31.8791 60.5277 32.1018 60.3284L35.4338 57.3518C35.6603 57.1526 35.3517 56.8128 35.133 57.012Z" fill="black"/>
<path d="M39.055 59.184C37.7933 60.1215 36.6058 61.1801 35.5238 62.3324C35.3207 62.5512 35.6488 62.8637 35.8558 62.6449C36.9183 61.5121 38.0863 60.4691 39.3246 59.5511C39.5707 59.3675 39.2933 59.0004 39.055 59.184Z" fill="black"/>
<path d="M42.293 61.211C41.0938 61.7735 40.0742 62.6563 39.3438 63.7618C39.1758 64.0157 39.5586 64.2618 39.7227 64.0118C40.4063 62.9766 41.3594 62.1485 42.4844 61.6212C44.0391 60.8868 44.8242 61.6954 44.4922 62.6485C44.3164 63.1563 43.3594 64.3868 42.4922 64.961C41.0469 65.918 39.582 65.4493 39.2031 64.4102C39.1016 64.129 38.6719 64.2813 38.7734 64.5665C39.2578 65.9063 41.0625 66.4493 42.7382 65.3399C43.6835 64.7149 44.6991 63.418 44.914 62.8008C45.3711 61.5117 44.2813 60.2735 42.293 61.211Z" fill="black"/>
<path d="M48.23 38.879L59.726 35.3087C60.0112 35.2228 59.8783 34.7853 59.5893 34.8751L48.0933 38.4454C47.812 38.5314 47.9409 38.9689 48.23 38.879Z" fill="black"/>
<path d="M59.402 38.363C59.4918 39.4724 59.7145 40.5818 60.0739 41.6677C58.2614 41.574 56.4528 41.4372 54.695 41.2654C54.4059 41.2263 54.3434 41.6873 54.652 41.7185C57.9762 42.0466 60.4997 42.1404 60.3981 42.1404C60.5583 42.1404 60.6637 41.9802 60.613 41.8396C60.2067 40.6912 59.9528 39.5115 59.859 38.3318C59.8317 38.0154 59.3786 38.074 59.402 38.363Z" fill="black"/>
<path d="M39.387 21.652L30.43 16.4059L23.5198 19.9176L32.5667 25.109L39.387 21.652Z" fill="black"/>
<path d="M14.098 35.457C10.8128 35.375 7.5746 34.7851 4.4691 33.6992C4.17613 33.6055 4.03941 34.0312 4.32066 34.1289C9.59406 35.9687 14.184 35.9219 14.0941 35.9101C14.387 35.9101 14.3949 35.4648 14.098 35.457Z" fill="black"/>
<path d="M14.316 38.453L9.8902 39.953C9.60114 40.0507 9.76129 40.4843 10.0347 40.3827L14.4605 38.8827C14.7496 38.7851 14.5972 38.3515 14.316 38.453Z" fill="black"/>
<path d="M10.32 48.484C10.4958 48.484 10.2028 48.6481 15.5895 43.5504C15.8083 43.3434 15.4918 43.0153 15.277 43.2223L10.1637 48.0895C10.0153 48.234 10.1169 48.484 10.32 48.484Z" fill="black"/>
<path d="M70.168 71.164C70.5313 69.0546 71.1836 67.0117 72.1055 65.082C73.5078 66.3828 75.5078 66.1797 77.2852 65.9375C77.4805 65.9101 77.5469 65.6719 77.4102 65.5469C76.1133 64.336 74.9571 62.9766 73.9688 61.5C76.0782 61.7382 78.2188 61.7578 80.336 61.5625C80.5587 61.539 80.6172 61.2461 80.4258 61.1367C78.1211 59.8359 75.9258 58.3086 73.8985 56.6015C73.6681 56.4101 73.3751 56.7538 73.6056 56.9491C75.4689 58.5155 77.4728 59.9335 79.5704 61.1679C77.5626 61.3086 75.5392 61.25 73.5392 60.9922C73.3399 60.9726 73.2189 61.1836 73.3165 61.3398C74.2931 62.871 75.4493 64.2851 76.7501 65.5507C75.1368 65.7538 73.3087 65.8124 72.211 64.5429C72.1055 64.4218 71.9063 64.4414 71.836 64.5898C71.3204 65.6289 70.8829 66.7031 70.5274 67.8007C70.6251 66.2343 70.6251 64.664 70.5235 63.0976C70.504 62.7812 70.0508 62.8359 70.0704 63.1249C70.2383 65.7811 70.1212 68.4608 69.7149 71.0897C69.6758 71.3866 70.1211 71.457 70.168 71.164Z" fill="black"/>
<path d="M67.445 31.934C67.1598 31.8403 67.0153 32.2699 67.3005 32.3637C70.0896 33.2934 72.8044 34.4809 75.3747 35.891C75.6325 36.0355 75.8591 35.641 75.5934 35.4926C73.0036 34.0707 70.2614 32.8754 67.445 31.934Z" fill="black"/>
<path d="M5.207 0.941401C6.6992 0.640621 8.3281 1.32031 9.164 2.5976C9.32806 2.85151 9.70697 2.5976 9.54291 2.3476C8.60932 0.917901 6.78511 0.156201 5.11711 0.492101C2.86711 0.945221 1.13661 3.2929 1.84761 5.8163C0.32811 6.73427 -0.0703907 8.7538 0.746009 10.1757C0.894449 10.4335 1.28898 10.2109 1.14054 9.94914C0.4882 8.81634 0.730379 7.08974 1.99992 6.25774C2.33195 7.09368 2.91789 7.82804 3.68352 8.30854C5.33192 9.34374 6.60932 8.13666 6.12102 6.81244C5.70305 5.68354 3.95302 4.87884 2.26162 5.60154C1.69521 3.39844 3.22264 1.3438 5.207 0.941401ZM5.69528 6.9805C6.03512 7.89847 5.207 8.7383 3.92578 7.93362C3.22656 7.49612 2.69918 6.82032 2.40238 6.05472C3.88288 5.40238 5.36708 6.08988 5.69528 6.9805Z" fill="black"/>
</svg>
