<svg width="86" height="88" viewBox="0 0 86 88" fill="none" xmlns="http://www.w3.org/2000/svg">
<path d="M59.969 40.293C62.051 40.3907 63.4221 38.5118 63.3909 36.4102C63.3557 34.1954 61.7932 32.2344 59.9065 32.0352C57.8245 31.8282 56.3127 33.6602 56.3323 35.879C56.3557 38.1954 57.9885 40.1758 59.969 40.293ZM59.8596 32.4844C61.5276 32.6602 62.9065 34.4219 62.9377 36.4141C62.9729 38.6094 61.4768 39.9414 59.9963 39.836C58.2463 39.7344 56.8088 37.9532 56.7854 35.8712C56.7698 33.9259 58.0627 32.293 59.8596 32.4844Z" fill="black"/>
<path d="M47.512 52.652C49.7268 52.6169 51.5159 50.5934 51.5042 48.1481C51.4925 45.7184 49.6956 43.6833 47.5042 43.6129C45.0511 43.5856 43.3284 45.6793 43.3245 48.0817C43.3167 50.5036 45.0511 52.652 47.512 52.652ZM47.4886 44.07C49.4417 44.1325 51.0394 45.9645 51.0511 48.152C51.0628 50.3239 49.4886 52.2028 47.4573 52.2028C45.3753 52.2028 43.7776 50.3083 43.7776 48.0895C43.7815 45.9059 45.3519 44.0153 47.4886 44.07Z" fill="black"/>
<path d="M47.508 56.805C45.1916 56.9027 43.301 59.0862 43.2971 61.6761C43.2932 64.1409 45.008 66.0667 47.2073 66.0667C49.6214 66.0667 51.5823 63.7464 51.5706 61.1565C51.555 58.7307 49.8088 56.7113 47.508 56.805ZM47.5119 65.598C45.3635 65.7777 43.7463 63.9574 43.7502 61.68C43.7541 59.2191 45.5822 57.2581 47.6604 57.2581C49.6565 57.2581 51.1057 59.0511 51.1174 61.1604C51.1252 63.426 49.508 65.4183 47.5119 65.598Z" fill="black"/>
<path d="M58.633 14.613C58.1291 12.2068 54.9846 9.8083 51.6799 10.2419C51.3908 10.281 51.4299 10.7224 51.7385 10.6911C54.6994 10.3044 57.5627 12.3747 58.1487 14.5505C57.9104 14.531 57.6682 14.5232 57.4299 14.5349C55.7502 14.6052 55.3049 15.7537 55.9026 16.5622C56.848 17.8395 58.7581 16.8786 58.6917 15.0895C61.8128 15.7067 63.5979 18.7106 62.9612 21.57C62.8948 21.8591 63.3402 21.9645 63.4066 21.6677C64.098 18.5466 62.1212 15.2146 58.633 14.613ZM56.2658 16.2888C55.8205 15.6872 56.2502 14.7927 58.2306 15.0154C58.3361 16.4177 56.9611 17.2146 56.2658 16.2888Z" fill="black"/>
<path d="M17.617 19.637C17.7108 18.4065 17.617 17.18 17.3318 15.9886C17.2303 15.5667 17.0975 15.1448 16.785 14.9066C16.4529 14.6527 15.9178 14.6566 15.4842 14.9144C14.1522 15.7074 13.4022 18.7464 14.1873 20.1566C15.2185 22.0082 17.4412 21.8674 17.617 19.637Z" fill="black"/>
<path d="M9.133 47.883C9.23066 46.6564 9.133 45.4299 8.84784 44.2346C8.74628 43.8127 8.60956 43.3908 8.30096 43.1526C7.96893 42.8987 7.43377 42.9026 7.00016 43.1604C5.66816 43.9534 4.91816 46.9885 5.70326 48.4026C6.73446 50.2581 8.9572 50.1134 9.133 47.883Z" fill="black"/>
<path d="M39.035 16.344C38.242 17.4065 37.9022 18.8987 38.1248 20.344C38.4295 22.3245 40.6053 23.344 41.1248 20.8167C41.4217 19.3753 41.2381 17.8479 40.6092 16.5198C40.1678 15.594 39.6209 15.5628 39.035 16.344Z" fill="black"/>
<path d="M12.336 3.6211C17.6758 4.47266 21.6016 4.60938 21.3008 4.60938C21.5938 4.60938 21.6055 4.17188 21.3164 4.15626C18.3359 3.97267 15.3398 3.64064 12.4102 3.17188C12.1016 3.13281 12.0469 3.57422 12.336 3.6211Z" fill="black"/>
<path d="M16.328 0.589803C18.6874 0.695273 19.5936 1.11714 19.8436 1.11714C20.1092 1.11714 20.1561 0.738233 19.9022 0.667923C18.742 0.371043 17.5467 0.191363 16.3514 0.136673C16.0116 0.179642 16.0624 0.578093 16.328 0.589803Z" fill="black"/>
<path d="M82.027 55.078C81.4645 54.828 80.7418 54.8514 80.2692 55.1366C80.2614 55.1405 80.2536 55.1444 80.2458 55.1483C80.0231 53.5702 78.6091 52.7303 77.1013 52.2381C76.2185 51.9569 75.281 51.8319 74.6638 52.5272C73.8005 49.867 70.0661 49.4999 68.5896 51.5662L68.5857 30.2032C68.5857 28.1798 66.9255 26.4298 64.8826 26.3048L47.3946 25.1056V23.2658C47.5196 23.2619 47.6172 23.1643 47.6172 23.0393L47.6211 13.4534C47.6211 13.3284 47.5196 13.2268 47.3946 13.2268C47.3867 13.2268 47.3828 13.2346 47.375 13.2346C47.2657 11.4963 45.8828 10.0432 44.1289 9.82053C44.1289 9.81272 44.1367 9.81272 44.1367 9.80491C44.1446 9.67991 44.0508 9.57053 43.9258 9.56272L5.20681 6.90252C5.08962 6.88299 4.97243 6.98846 4.96462 7.11346C4.96462 7.12127 4.97243 7.12518 4.97243 7.13299C2.61303 7.09783 0.710728 8.69159 0.710728 10.8088V14.1291C0.691196 14.1252 0.679478 14.1096 0.659946 14.1096C0.534946 14.1096 0.433386 14.2111 0.433386 14.3361C0.538856 45.4771 0.191196 44.1131 0.710726 43.9771V52.2505C0.710726 54.2036 2.31623 55.7114 4.40993 55.9107C4.74587 57.1373 6.23413 57.7232 7.53103 57.8404C6.05833 62.0513 6.04663 67.6412 9.90213 69.5084C8.83183 71.9264 9.52713 74.6373 11.0037 76.8053C11.7225 77.8522 13.2732 79.4967 14.7029 79.8951C15.1834 84.7271 21.1677 88.606 27.7689 87.0435C28.8158 86.8052 30.2806 86.3091 31.4408 85.3013C34.5111 87.6841 40.6361 87.6177 44.0858 86.0787C46.328 85.0826 48.0233 83.3443 48.7303 81.3131C49.4452 79.235 49.2186 76.9108 48.0155 74.0084C49.7655 73.8404 51.785 72.7076 51.3436 71.1646L58.8905 70.645C59.496 72.0005 60.0428 73.2309 60.7967 74.4614C64.9256 81.145 73.7927 84.1919 79.9957 79.2387C82.9762 76.8676 84.1871 73.184 84.8395 70.6176C85.777 66.9574 85.8239 63.1371 84.9684 59.5666C84.402 57.1799 83.4372 55.7108 82.027 55.078ZM15.355 43.152L15.4448 48.2184C15.4488 48.5192 14.9995 48.527 14.9917 48.2262L14.9019 43.1598C14.9019 42.859 15.3511 42.8551 15.355 43.152ZM14.7691 35.5934L14.9175 28.82C14.9253 28.5231 15.3745 28.5309 15.3706 28.8317L15.2222 35.6051C15.2144 35.902 14.7612 35.8942 14.7691 35.5934ZM13.7925 20.3704C12.8784 18.7259 13.6988 15.4485 15.2534 14.5188C15.8511 14.1633 16.5737 14.1751 17.0581 14.5422C17.4839 14.8665 17.6597 15.4016 17.7729 15.882C18.0698 17.1203 18.1675 18.3937 18.0698 19.6711C17.855 22.3586 15.0425 22.6165 13.7925 20.3704ZM7.2261 35.2294C7.24563 35.5263 6.79641 35.5614 6.77688 35.2607C6.63235 33.1123 6.63235 30.9326 6.77688 28.7802C6.80032 28.4598 7.24563 28.5262 7.2261 28.8114C7.08548 30.9403 7.08548 33.0966 7.2261 35.2294ZM7.09329 20.9244C6.94876 18.776 6.94876 16.5963 7.09329 14.4439C7.1011 14.3189 7.19095 14.2134 7.33548 14.233C7.87845 14.2681 7.16751 15.1783 7.54642 20.8932C7.56595 21.1939 7.11282 21.2291 7.09329 20.9244ZM41.5663 20.9049C40.9608 23.8346 38.078 23.0221 37.6757 20.4088C37.164 17.0768 39.703 13.569 41.0155 16.319C41.6874 17.7409 41.8827 19.3698 41.5663 20.9049ZM29.7693 15.1627C29.7107 14.8697 30.1521 14.7838 30.2107 15.0728C30.5896 16.9283 30.7341 18.8306 30.6365 20.7251C30.6209 21.0259 30.1677 21.0025 30.1834 20.7017C30.281 18.8462 30.1404 16.983 29.7693 15.1627ZM24.3084 21.2525C24.324 21.5533 23.8748 21.5767 23.8553 21.2759C23.7381 19.229 23.824 17.1704 24.1014 15.147C24.1443 14.854 24.5896 14.9126 24.5506 15.2095C24.2771 17.2017 24.1951 19.2329 24.3084 21.2525ZM6.76939 42.7685C7.36705 42.4169 8.08969 42.4247 8.57409 42.788C8.99987 43.1122 9.17565 43.6474 9.28893 44.1278C9.58581 45.37 9.68346 46.6473 9.5819 47.9169C9.37096 50.5966 6.5585 50.87 5.3046 48.62C4.39444 46.9755 5.21475 43.6943 6.76939 42.7685ZM4.89829 55.9205C5.72251 55.9166 7.33969 55.7681 11.746 55.4791C11.4882 56.4595 10.0937 57.3033 8.42179 57.4088C7.13659 57.4791 5.35529 57.0807 4.89829 55.9205ZM16.7893 78.0295C16.8635 78.2717 16.7424 78.5373 16.6643 78.674C16.2854 79.3303 15.7932 79.6115 15.1331 79.5178C14.9925 76.9905 16.6136 77.385 16.7893 78.0295ZM31.4223 84.6975C30.3715 83.8069 29.5864 82.2834 30.1723 81.053C30.8246 79.6858 33.0512 80.5295 32.4926 82.8772C32.3285 83.5373 31.9809 84.135 31.4223 84.6975ZM48.3053 81.1663C47.6373 83.0765 46.0358 84.7171 43.9069 85.6624C40.5944 87.1429 34.6999 87.1936 31.7819 84.9827C34.1296 82.5686 32.8131 79.4827 30.7741 79.9905C29.2311 80.3967 28.8952 83.1116 31.0866 85.01C26.5085 88.8538 15.9696 86.7795 15.1686 79.9827C15.9694 80.0608 16.6061 79.6858 17.0553 78.9046C18.1451 76.9984 14.5514 75.8694 14.6686 79.4085C13.403 78.971 12.0045 77.4632 11.3756 76.5491C9.98499 74.51 9.31309 71.9553 10.3131 69.6975C11.8131 70.2639 13.5553 69.9202 14.5709 68.8498C16.6881 66.6193 12.3404 65.0412 10.0982 69.1037C6.41069 67.3146 6.59039 61.799 7.99269 57.8767C9.81689 57.8963 11.9302 57.0057 12.1997 55.4548L21.438 54.822V69.006C21.438 71.4122 23.6763 73.0607 26.1646 72.9122L43.9656 71.6817C43.7547 73.2129 45.7976 74.0723 47.532 74.0411C48.5164 76.3458 49.1217 78.7991 48.3053 81.1663ZM10.5203 69.2873C12.3289 66.0568 15.9344 66.7521 14.2469 68.5334C13.3563 69.467 11.8172 69.7678 10.5203 69.2873ZM26.1453 72.4475C23.9187 72.592 21.8992 71.1194 21.8992 68.9944V27.5534C21.8992 25.4479 23.864 23.9636 26.1414 24.1003L64.8564 26.7605C66.665 26.8699 68.1337 28.4167 68.1337 30.2058V52.4908C66.7548 50.651 65.2196 48.8814 63.286 47.6431C62.8407 44.5962 59.7587 43.1158 57.7626 45.2642C57.6493 45.1431 50.747 37.7603 50.6103 37.6704C52.2236 35.0415 50.4306 31.2681 47.4814 30.9595C45.3486 30.7329 43.583 32.4595 43.5752 34.8189C43.5752 36.4322 44.3994 37.8697 45.5947 38.6744C45.4775 38.8423 46.6025 36.6666 35.5597 58.6194C34.9386 58.1038 34.1769 57.7756 33.3253 57.6897C33.3409 57.5881 33.4112 52.7209 33.3839 52.5881C35.5636 52.2561 37.2355 50.342 37.255 48.0295C37.2706 45.7443 35.6495 43.8225 33.5128 43.4553C33.5479 43.3108 33.5597 40.7444 33.5948 38.5022C33.5948 38.4905 33.5831 38.4827 33.5831 38.4709C35.7081 38.2912 37.3487 36.549 37.3643 34.3107C37.3838 31.8693 35.4737 29.6974 33.0596 29.4357C30.5635 29.174 28.4658 31.0255 28.4307 33.5763C28.3838 36.2638 30.6104 38.4865 33.1416 38.4943L33.0791 43.3849C30.5947 43.1584 28.2432 45.1896 28.1963 47.9552C28.1611 50.5646 30.2236 52.7833 32.9502 52.6388C32.9502 52.7326 32.8877 57.7521 32.8877 57.6583C30.1963 57.6701 28.0049 60.0294 27.9697 62.713C27.9228 65.4239 30.04 67.4239 32.6181 67.1896C36.6064 66.8303 38.6181 61.7052 35.9072 58.9123C35.9736 58.842 43.122 44.5763 45.9692 38.9163C47.477 39.7093 49.2387 39.4281 50.3481 38.0218C52.4614 40.2679 55.3364 43.3343 57.477 45.6195C56.9809 46.3109 56.6723 47.2015 56.6801 48.2015C56.7075 50.5413 58.4457 52.5492 60.5785 52.1898C63.1215 55.1664 65.8285 58.2445 66.8988 61.9828C67.2348 63.1664 67.4535 64.8226 66.5785 65.975C66.348 66.2953 66.2387 66.2875 65.9301 66.1508C64.6371 65.5883 63.7621 64.4164 62.8793 63.2875C64.2426 61.35 63.9887 58.6039 62.4535 57.1586C60.6371 55.4477 57.7543 56.3109 56.8402 59.1625C54.5082 58.8539 53.2113 60.518 54.5668 63.1C55.934 65.7602 56.5902 65.4945 58.6957 70.2055L26.1453 72.4475ZM49.3523 35.0495C49.3523 35.9792 48.6453 36.7409 47.7781 36.7409C46.9109 36.7409 46.2039 35.9831 46.2039 35.0495C46.2039 34.1198 46.9109 33.3581 47.7781 33.3581C48.6453 33.3581 49.3523 34.1159 49.3523 35.0495ZM33.0283 62.2215C33.8955 62.2215 34.6025 62.9715 34.6025 63.9051C34.6025 64.8465 33.8955 65.5965 33.0283 65.5965C32.1611 65.5965 31.4463 64.8465 31.4463 63.9051C31.4463 62.9715 32.1611 62.2215 33.0283 62.2215ZM33.4111 35.0765H33.3994C32.5205 35.0687 31.8252 34.3187 31.8252 33.3851C31.8252 32.4554 32.5322 31.6937 33.4072 31.6937C34.2666 31.6937 34.9697 32.4515 34.9697 33.3851C34.9736 34.3148 34.2705 35.0765 33.4111 35.0765ZM34.6025 48.0065C34.6025 48.9479 33.8955 49.6979 33.0283 49.6979C32.1611 49.6979 31.4463 48.9479 31.4463 48.0065C31.4463 47.0768 32.1611 46.3229 33.0283 46.3229C33.8994 46.3229 34.6025 47.0768 34.6025 48.0065ZM57.2935 59.2405C58.0865 56.8733 60.5044 55.9436 62.1451 57.4827C63.4654 58.7249 63.7506 61.1233 62.5826 62.9046C60.8795 60.7757 58.9654 59.6234 57.2935 59.2405ZM84.4065 70.5025C83.3948 74.4791 81.9065 77.1431 79.719 78.8814C73.7346 83.6587 65.176 80.6705 61.192 74.2212C59.7818 71.9282 59.0358 69.479 57.7037 67.1548C56.8678 65.6939 55.731 64.3696 54.9693 62.8853C53.5982 60.2759 55.231 58.9205 57.7974 59.858C62.4419 61.5846 62.6841 65.2291 65.7427 66.565C66.2427 66.7798 66.5747 66.7369 66.938 66.2408C67.9224 64.94 67.6919 63.1392 67.3286 61.8541C66.2739 58.1627 63.7153 55.1666 61.2427 52.2682C59.7388 50.3932 58.3013 49.1823 58.5591 48.0299C58.7154 47.3697 59.4068 46.9713 60.0161 46.9205C61.063 46.8228 62.3247 47.5337 63.2036 48.1236C65.102 49.3892 66.6255 51.2095 67.9809 53.0455C67.895 53.1197 67.8676 53.2447 67.9301 53.3423C69.2426 55.3189 70.1098 57.6079 70.4379 59.9595C70.4497 60.0494 70.5161 60.1041 70.5981 60.1314L69.5239 60.2056C69.2348 60.2252 69.2466 60.6587 69.5395 60.6587H69.5551L72.0239 60.4908C72.3325 60.4712 72.2818 59.9986 71.9927 60.0376L70.7544 60.1236C70.8403 60.0806 70.9028 60.0025 70.8911 59.9009C70.5825 57.69 69.8052 55.5337 68.645 53.6275C68.6528 53.6236 68.6567 53.6275 68.6646 53.6236C68.7661 53.5611 68.8013 53.4283 68.7466 53.3228C68.2661 52.4205 69.1685 51.2876 70.1372 50.9283C72.1099 50.1822 74.1645 51.3346 74.3364 53.2017C74.3129 53.2564 74.3129 53.3189 74.3364 53.3736C74.9301 54.7838 75.2348 56.3384 75.2192 57.8658C75.2192 57.94 75.2583 57.9986 75.3129 58.0377C75.0434 58.0299 74.7778 58.0064 74.5083 58.0103C74.2192 58.0182 74.2036 58.4557 74.5161 58.4635C75.3793 58.4478 76.3247 58.5221 76.2309 58.5221C76.5199 58.5221 76.5356 58.0924 76.2504 58.0689C76.0238 58.0494 75.7934 58.0572 75.5629 58.0455C75.6254 58.0064 75.6723 57.9478 75.6762 57.8658C75.6918 56.3111 75.3832 54.7369 74.7934 53.2994C74.7934 53.2916 74.8051 53.2838 74.8051 53.276C74.8246 52.9596 75.1293 52.6275 75.4965 52.5221C75.9574 52.3931 76.477 52.5181 76.9653 52.6705C78.3442 53.1197 79.6801 53.8775 79.8051 55.3228C79.7895 55.3228 79.7777 55.315 79.766 55.3189C79.6449 55.3579 79.5785 55.4869 79.6176 55.604C79.977 56.7329 80.0512 57.9478 79.8324 59.1118C79.8285 59.1392 79.8442 59.1587 79.8481 59.1861C79.6879 59.1392 79.5316 59.0806 79.3676 59.0415C79.0707 58.9751 78.9691 59.4126 79.2582 59.4829C79.723 59.5962 80.184 59.7369 80.6215 59.8931C80.9106 59.9908 81.059 59.5689 80.7778 59.4634C80.5981 59.397 80.4067 59.354 80.2192 59.2954C80.2465 59.2642 80.27 59.2369 80.2778 59.1939C80.477 58.147 80.4379 57.0689 80.1957 56.0337C80.1996 56.022 80.2153 56.0142 80.2153 56.0024C80.2504 55.8618 80.2348 55.686 80.5082 55.522C80.8481 55.3149 81.4223 55.3032 81.8441 55.4907C83.1175 56.061 84.0003 57.4282 84.5394 59.6665C85.3715 63.1704 85.3284 66.9165 84.4065 70.5025Z" fill="black"/>
<path d="M61.902 47.527C60.0778 47.3122 59.1989 49.2497 61.4918 51.027C61.6832 51.1754 61.9645 51.1872 62.1715 51.0543C62.8083 50.6481 63.3004 50.109 63.6715 49.4059C63.7731 49.2145 63.7614 48.9724 63.6364 48.7927C63.2926 48.2966 62.7419 47.6246 61.902 47.527ZM61.9293 50.6715C61.8825 50.7028 61.8161 50.6988 61.7731 50.6676C59.8786 49.2028 60.4567 47.8199 61.8512 47.9762C62.3512 48.0348 62.7965 48.3746 63.2614 49.0504C63.2927 49.0934 63.2927 49.1481 63.2731 49.1949C62.9372 49.8238 62.4997 50.3082 61.9293 50.6715Z" fill="black"/>
<path d="M57.055 60.969C55.2425 60.7542 54.3402 62.6838 56.6448 64.469C56.8441 64.6253 57.1214 64.6253 57.3245 64.4963C57.9613 64.0862 58.4534 63.5471 58.8206 62.844C58.9222 62.6526 58.9105 62.4105 58.7855 62.2308C58.4417 61.7386 57.891 61.0666 57.055 60.969ZM58.4222 62.637C58.0902 63.2659 57.6527 63.7503 57.0824 64.1136C57.0355 64.1449 56.9691 64.1409 56.9262 64.1097C55.0824 62.68 55.5628 61.262 57.0043 61.4222C57.5004 61.4808 57.9496 61.8206 58.4145 62.4925C58.4457 62.5355 58.4457 62.5902 58.4262 62.637C58.4223 62.6331 58.4222 62.6331 58.4222 62.637Z" fill="black"/>
<path d="M81.926 79.828C82.0549 79.5585 81.6447 79.3632 81.5158 79.6327C79.2306 84.4218 72.9533 85.7343 68.9418 82.246C68.7153 82.0507 68.4145 82.3905 68.645 82.5897C72.8755 86.2694 79.508 84.8944 81.926 79.828Z" fill="black"/>
<path d="M84.098 82.824C83.1918 85.3748 80.8636 87.1756 78.1644 87.4099C77.8753 87.4333 77.8949 87.863 78.1839 87.863C78.2777 87.8396 80.2112 87.7927 82.0823 86.3474C83.1878 85.4919 84.0589 84.2927 84.5276 82.9763C84.6292 82.6912 84.1957 82.5388 84.098 82.824Z" fill="black"/>
</svg>
