<svg width="82" height="88" viewBox="0 0 82 88" fill="none" xmlns="http://www.w3.org/2000/svg">
<path d="M15.16 40C15.242 40.332 15.4491 40.6328 15.7577 40.8242L19.7147 43.2187C19.5779 44.1484 19.5467 45.0742 19.6053 45.8867L15.7342 48.1953C15.1014 48.582 14.9022 49.3984 15.2811 50.0195L19.4647 57.0351C19.7108 57.4453 20.1444 57.6796 20.6053 57.6796C20.9451 57.6796 21.5584 57.5039 21.3709 57.1796L24.8279 55.1171C25.4919 55.6093 26.1912 56.0429 26.9568 56.4062L26.863 60.875C26.7576 60.8907 26.6326 60.9727 26.6326 61.0977C26.6169 61.8399 27.1912 62.4375 27.9334 62.4532C38.6954 62.6759 35.5115 62.6212 36.1209 62.6212C36.4685 62.6212 36.7927 62.4923 37.0466 62.254C37.6131 61.7149 37.4138 61.0821 37.4724 60.6095L52.0504 58.3283C52.4996 58.9377 53.2731 59.2931 53.8199 59.6564C54.3824 60.0314 60.4683 63.1525 60.8551 63.3205C59.5504 62.9845 58.1871 64.1799 57.6481 65.383C56.5036 67.9689 58.3005 72.5822 58.4099 73.2346C58.6052 73.9572 58.4645 74.6487 58.2966 75.4416C57.9567 77.0744 57.8591 78.0393 58.7419 80.5393C60.3591 85.1409 64.2185 87.926 69.4019 86.4885C70.6402 87.7307 72.5425 88.1994 74.3042 87.5901C76.6089 86.7893 77.937 84.3518 77.4019 81.9924C79.1246 80.6682 81.8589 78.4026 81.5269 76.3635C81.3433 75.2502 80.2574 74.8205 79.1831 75.2112C79.8237 74.0667 80.2847 72.5745 79.4721 71.5432C79.0581 71.0276 78.351 70.6252 77.1869 71.1369C77.5737 70.5237 77.8002 69.8596 77.8315 69.2307C77.9174 67.3791 76.0932 65.676 73.4096 67.594C74.0971 65.926 73.1947 64.6682 71.4643 64.6995C69.5385 59.219 69.6791 59.3401 69.5034 59.262C70.4682 56.9417 72.937 53.68 73.4643 51.305C73.808 49.7816 73.6908 49.1175 72.5072 48.1995H72.5111C72.5854 48.098 72.5658 47.9573 72.4682 47.8792C70.2377 46.1839 68.1909 45.0745 68.0971 45.0159C67.6635 43.2854 66.7377 41.719 65.3588 40.4964C69.3705 42.0433 75.0658 39.1409 76.4638 32.6722C77.7568 26.6331 74.3583 21.4532 69.0458 20.5082C66.5536 20.0629 63.8114 20.6801 61.6942 22.1254C62.4246 19.9809 62.0418 17.5942 60.6512 15.9652C58.1551 13.0394 53.6043 13.2035 50.5182 15.7973C50.4088 12.9106 49.4987 10.4262 48.0768 7.95345C42.2877 -2.06955 28.7568 -1.70275 20.9598 4.80115C15.5496 9.30895 12.9598 16.6762 14.4129 22.9102C13.1395 21.461 11.0379 20.6172 8.87768 20.8125C3.54958 21.2656 -0.598925 26.8164 0.686275 32.7345C1.96358 38.5822 8.27681 42.5196 15.16 40ZM67.816 48.4805C67.3863 51.3907 65.5074 53.8203 62.859 55.0039C57.234 57.5117 50.879 53.3633 50.879 47.2305C50.879 42.8243 54.2384 39.1836 58.5274 38.7461C63.9688 38.1914 68.6439 42.8984 67.816 48.4805ZM65.648 67.8355L63.8668 62.8082C63.7535 62.5191 64.2066 62.3746 64.2926 62.6519L65.9996 67.4722C65.9762 67.4996 65.9449 67.5191 65.9215 67.5426L65.648 67.8355ZM51.679 42.6715C50.5813 42.109 49.8782 41.4801 49.2376 40.7457C49.7689 40.2496 49.7728 39.5973 49.4837 39.109L46.2142 33.6363L57.3942 38.484C54.9645 39.0387 52.9133 40.5817 51.679 42.6715ZM23.55 43.7613C24.3703 37.8121 30.8938 34.4254 36.249 37.2847C41.8349 40.273 42.4717 48.0547 37.4092 51.8867C31.2647 56.5351 22.491 51.4215 23.55 43.7613ZM39.148 34.2222C38.7769 33.9878 38.4019 33.7808 38.0269 33.5972L38.1011 30.1167L42.687 32.105L39.148 34.2222ZM25.671 36.355C25.9288 36.2261 26.1398 36.6323 25.8624 36.773C24.0812 37.5894 22.6983 39.2105 22.1632 41.1011C22.0538 41.4058 21.6437 41.2456 21.7257 40.9722C22.296 38.9644 23.7687 37.2378 25.671 36.355ZM37.476 60.156L37.5463 56.7732C38.3784 56.4021 39.1596 55.9529 39.8705 55.4373L43.3861 57.5701C44.015 57.9451 44.8353 57.7459 45.2181 57.1209C45.2845 57.0154 45.2494 56.8748 45.1439 56.8084L49.2533 50.0193C49.5697 49.4919 49.4095 48.8201 48.8822 48.5115L45.0736 46.1951C45.0892 46.1677 45.1127 46.1404 45.1166 46.1052C45.1908 45.2732 45.1752 44.2536 45.0385 43.3083L48.8783 41.0231C49.5775 41.8317 50.3236 42.4801 51.4564 43.0622C49.7103 46.3903 50.2416 50.3708 52.6439 53.1242C51.9056 55.9015 51.4447 56.9601 51.8157 57.9094L37.476 60.156ZM61.07 63.3513L61.0895 63.406C61.0622 63.3943 61.0388 63.3786 61.0114 63.3708C61.0309 63.3708 61.0505 63.3591 61.07 63.3513ZM72.593 68.1247C72.4836 68.0895 72.3703 68.1286 72.3196 68.2341C71.8391 69.2458 71.0305 70.1638 70.0384 70.8122C69.847 70.9372 69.9407 71.2301 70.1634 71.2301C70.2063 71.2301 70.2493 71.2184 70.2884 71.1911C71.1712 70.613 71.9056 69.8317 72.429 68.9606C72.7219 68.8746 74.1478 67.109 75.7454 67.2106C76.7063 67.2731 77.4212 68.1559 77.3704 69.2184C77.3313 70.1481 76.7844 71.1676 75.9095 71.9489C75.8196 72.0309 75.8079 72.1715 75.886 72.2653C75.9056 72.2887 75.9368 72.2926 75.9642 72.3044C75.2884 72.9528 74.4915 73.4919 73.6244 73.8552C73.347 73.9684 73.5228 74.3903 73.8001 74.2731C74.847 73.8356 75.8118 73.1676 76.5813 72.3395C76.6673 72.2497 76.6595 72.109 76.5735 72.0231C77.7102 71.2223 78.5657 71.152 79.1126 71.8317C79.4564 72.2614 79.5345 72.945 79.3353 73.7067C79.1361 74.4528 78.6986 75.1676 78.308 75.777C78.2572 75.859 78.2728 75.9567 78.3314 76.0309C77.6361 76.8317 76.7533 77.4957 75.7689 77.9176C75.4955 78.0348 75.6713 78.4528 75.9486 78.3356C77.2181 77.7887 78.3509 76.8786 79.1283 75.7731C79.1361 75.7614 79.1322 75.7457 79.1361 75.7301C79.9603 75.32 80.9252 75.527 81.0736 76.4411C81.1713 77.0309 80.9057 77.8591 80.4174 78.4958C79.1635 80.1403 77.6322 81.2146 76.5424 82.07C74.5385 83.5622 71.8276 85.3825 69.3979 86.0231C63.8706 87.6208 60.4917 84.1597 59.1639 80.3941C58.3201 77.9996 58.4061 77.1286 58.7381 75.5387C58.9061 74.7222 59.0662 73.9489 58.8436 73.1168C58.2303 70.9684 57.1209 67.5309 58.0936 65.5035C58.3475 65.5074 58.4725 65.0933 59.7225 64.4879C59.9295 65.3785 60.5311 66.2535 60.3553 67.1168C60.2029 67.8589 59.4842 68.2457 58.8436 67.6441C58.367 67.1988 58.3358 66.6597 58.0076 66.8511C57.8983 66.9136 57.8631 67.0542 57.9295 67.1636C58.3123 67.8081 58.7967 68.437 59.5545 68.398C60.2186 68.3707 60.6873 67.7769 60.8006 67.2105C60.9412 66.5308 60.6951 65.8667 60.4529 65.2417C59.9959 64.062 60.1912 64.0737 60.0037 63.9644C59.9412 63.9293 59.867 63.9254 59.8006 63.9527C59.4803 64.0933 59.1717 64.2535 58.8787 64.4371C59.4998 63.8472 60.3357 63.4683 61.0779 63.898C61.5271 64.1441 61.8592 64.6051 62.1209 65.0269C62.9217 66.3433 64.2576 69.7964 64.8006 69.3238C66.1014 68.1754 66.7967 66.8199 69.6209 65.6246C70.3162 65.3317 70.8982 65.152 71.5975 65.152C72.2577 65.1715 73.7063 66.5348 72.593 68.1247ZM62.7258 38.8867C62.7532 38.789 62.7883 38.6914 62.8078 38.5937C62.9328 38.7773 63.0813 38.9492 63.2375 39.1054C63.0696 39.0273 62.8977 38.957 62.7258 38.8867ZM8.91681 21.2657C11.1395 21.0704 13.2645 22.0352 14.3816 23.629C14.3894 23.6563 14.3816 23.6837 14.3972 23.7071C14.9988 24.5782 15.3582 25.6407 15.4128 26.6954C15.4324 26.9962 15.8816 26.9728 15.866 26.672C15.8269 25.9024 15.6316 25.1564 15.3191 24.4611C15.3191 24.4415 15.3308 24.422 15.323 24.4025C13.0027 18.0431 15.4949 9.94548 21.2449 5.15648C28.8777 -1.21462 42.0539 -1.55052 47.6669 8.19558C50.4599 13.0472 49.8622 15.7581 50.1239 16.3362C49.2294 18.0276 48.6825 19.9182 48.5575 21.8245C48.538 22.1253 48.9911 22.1565 49.0106 21.8557C49.2216 18.6526 50.5418 16.5666 50.6161 16.3245C53.538 13.7229 57.9208 13.5003 60.288 16.2738C61.7372 17.9652 62.0028 20.555 60.9482 22.7191C60.9169 22.7816 60.9286 22.848 60.956 22.9105C60.0888 24.0043 59.4638 25.2777 59.1669 26.6449C59.1044 26.9417 59.5458 27.0355 59.6122 26.7425C60.163 24.2269 61.5145 23.0394 61.5888 22.7855C63.6513 21.223 66.4326 20.5199 68.9521 20.973C73.9443 21.8597 77.2607 26.7386 76.0068 32.594C74.499 39.5432 68.0927 41.9729 64.4838 39.5823C63.9486 39.2151 63.019 38.4261 62.9174 37.7698C62.8822 37.5315 62.4838 37.5003 62.4682 37.7894C62.4447 38.1097 62.3822 38.4261 62.2924 38.7386C61.0502 38.3167 59.6674 38.1526 58.1986 38.348L45.8076 32.9769L45.292 32.1136C44.9209 31.4769 44.1006 31.2698 43.4639 31.6487L43.1592 31.8284L38.1006 29.637L38.1123 29.0394C38.1279 28.3089 37.542 27.6996 36.8037 27.6839C26.0417 27.4612 29.2256 27.5159 28.6162 27.5159C27.8975 27.5159 27.3037 28.094 27.2881 28.8167L27.1944 33.387C26.6397 33.6292 26.1006 33.9143 25.5538 34.262C25.5225 34.2815 25.5108 34.3167 25.4952 34.3479L21.253 31.7737C20.7881 31.4925 20.2296 31.6058 19.8741 31.9886C19.8623 31.9769 19.8623 31.9612 19.8467 31.9495C19.7373 31.887 19.6006 31.9183 19.5342 32.0276C15.128 39.3831 15.1904 39.0081 15.124 39.5276C8.42481 42.0628 2.34301 38.2307 1.12001 32.6526C-0.0791871 27.0588 3.78401 21.7037 8.91681 21.2657Z" fill="black"/>
<path d="M25.973 46.066C27.266 45.4097 28.4574 44.5855 29.5277 43.5972C29.7504 43.3941 29.4418 43.0581 29.2191 43.2652C27.9925 44.3941 26.598 45.3082 25.0785 45.9879C24.8637 46.0855 24.9223 46.4058 25.1527 46.4215C26.8011 46.5425 28.3871 47.2105 29.6215 48.3082C29.8481 48.5074 30.1489 48.1675 29.9223 47.9683C28.8129 46.98 27.43 46.3199 25.973 46.066Z" fill="black"/>
<path d="M35.02 41.512C35.1372 41.2347 34.7153 41.055 34.602 41.3362L31.2504 49.2659C31.2036 49.3831 31.2543 49.5159 31.3715 49.5628C31.7309 49.7151 31.524 49.6331 35.02 41.512Z" fill="black"/>
<path d="M38.676 45.547C37.6252 46.0509 36.6565 46.6993 35.7815 47.4728C35.5549 47.672 35.8635 48.0119 36.0823 47.8126C37.0315 46.9689 38.1018 46.2853 39.2659 45.7774C39.4378 45.7032 39.4495 45.4649 39.2893 45.3712C38.2424 44.7579 37.1135 44.3009 35.9416 44.0118C35.8244 43.9805 35.6955 44.0587 35.6682 44.1798C35.5549 44.6485 36.387 44.3204 38.676 45.547Z" fill="black"/>
<path d="M24.07 14.469C23.7614 13.5862 23.8591 12.5745 24.3356 11.7698C25.3942 9.97289 27.7731 9.75419 28.2458 10.8714C28.2654 10.9573 28.2849 11.0393 28.3123 11.1214C28.3943 11.3909 28.7888 11.2971 28.7537 11.0276C28.7419 10.926 28.7185 10.8284 28.6794 10.7346C28.4412 9.55883 28.9646 8.23463 29.9646 7.56663C31.0388 6.85179 32.6013 6.92991 33.5974 7.75022C33.8357 7.94163 34.117 7.59006 33.8865 7.39866C31.7107 5.60566 28.2459 6.9885 28.1717 10.0823C27.1756 9.34788 24.9764 9.78148 23.9412 11.5393C23.4021 12.4611 23.285 13.6096 23.6404 14.6174C23.742 14.9025 24.1716 14.7542 24.07 14.469Z" fill="black"/>
<path d="M55.383 47.227C55.383 49.4418 57.1838 51.2426 59.3986 51.2426C61.6134 51.2426 63.4142 49.4418 63.4142 47.227C63.4142 45.0122 61.6134 43.2075 59.3986 43.2075C57.1838 43.2075 55.383 45.0083 55.383 47.227ZM59.3986 43.6606C61.3634 43.6606 62.9611 45.2583 62.9611 47.2231C62.9611 49.1879 61.3634 50.7817 59.3986 50.7817C57.4338 50.7817 55.84 49.184 55.84 47.2231C55.8361 45.2622 57.4338 43.6606 59.3986 43.6606Z" fill="black"/>
<path d="M54.848 42.105C53.3988 43.0581 52.5355 44.7925 52.6527 46.523C52.6722 46.8277 53.1254 46.7925 53.1058 46.4917C53.0004 44.9214 53.7855 43.3472 55.098 42.4839C55.348 42.3199 55.1019 41.9409 54.848 42.105Z" fill="black"/>
<path d="M61.715 52.84C64.3283 52.3673 66.1564 49.9884 65.9533 47.3517C65.9299 47.0353 65.4767 47.1017 65.5002 47.3869C65.6877 49.7971 64.0041 51.965 61.633 52.3908C61.34 52.4454 61.422 52.8986 61.715 52.84Z" fill="black"/>
<path d="M5.723 35.566C6.00816 35.6754 6.16441 35.2535 5.89097 35.1441C5.09019 34.8277 4.54717 33.941 4.62537 33.0855C4.7035 32.23 5.3949 31.4566 6.23867 31.2847C6.44179 31.2417 6.48867 30.9761 6.31289 30.8667C5.60195 30.4371 5.23479 29.4761 5.47305 28.6792C5.71133 27.8824 6.53555 27.2769 7.38325 27.3198C7.71919 27.2847 7.66841 26.8784 7.40278 26.8667C6.35198 26.8277 5.34418 27.5464 5.03948 28.5464C4.78167 29.398 5.06683 30.3706 5.71136 30.9761C4.88714 31.3277 4.25826 32.148 4.17616 33.0425C4.0746 34.1089 4.72688 35.1715 5.723 35.566Z" fill="black"/>
<path d="M54.055 19.789C54.973 19.2538 56.1878 19.4531 56.8675 20.3281C57.0433 20.5585 57.4144 20.289 57.2269 20.0507C56.4261 19.0195 54.9652 18.7304 53.8246 19.3984C53.5668 19.5507 53.7972 19.9413 54.055 19.789Z" fill="black"/>
<path d="M69.543 26.328C70.1719 25.8319 71.1992 25.9217 71.7383 26.5194C72.1875 27.0233 72.2461 27.8319 71.918 28.4178C71.7305 28.5076 71.5977 28.703 71.6289 28.9139C71.6563 29.0936 71.8828 29.1795 72.0157 29.0389C72.0821 28.9725 72.1446 28.8983 72.1993 28.8201C72.293 28.8475 72.3867 28.9373 72.4532 29.0076C73.1719 29.785 73.3594 31.0428 72.8907 31.9959C72.4258 32.9491 71.3243 33.5857 70.2657 33.4842C69.961 33.4569 69.9297 33.91 70.2266 33.9374C71.4922 34.0467 72.75 33.3241 73.3008 32.1952C73.8555 31.0624 73.6445 29.6249 72.7852 28.6991C72.6992 28.6053 72.5742 28.4881 72.418 28.4178C72.7149 27.6951 72.6055 26.8084 72.0703 26.2147C71.3711 25.4374 70.082 25.3241 69.2578 25.9686C69.0274 26.1561 69.3086 26.5155 69.543 26.328Z" fill="black"/>
<path d="M28.949 67.184C29.1248 66.9418 28.7576 66.6723 28.5818 66.9145C25.4802 71.1606 18.8162 70.1059 17.1678 65.1176C18.9764 64.809 19.0194 62.8637 17.7225 62.8832C16.9608 62.9105 16.3905 63.5668 16.5897 64.6957C15.4491 64.6136 14.6131 63.7347 14.0116 62.7582C13.1952 61.4379 11.9647 58.1332 13.1913 57.2191C13.4335 57.0394 13.1601 56.6761 12.9179 56.8558C12.3397 57.2855 12.1132 58.0941 12.2616 59.1996C12.5897 61.641 14.1913 65.1137 16.703 65.1527C18.3124 70.5199 25.5702 71.809 28.949 67.184ZM17.738 63.3402C18.531 63.4261 18.195 64.5121 17.0505 64.68C16.9177 64.0276 17.074 63.3636 17.738 63.3402Z" fill="black"/>
<path d="M20.895 73.766C17.4614 74.266 14.1177 72.3402 12.852 69.0824C12.7426 68.805 12.3168 68.9652 12.4262 69.2465C13.7934 72.7621 17.395 74.7426 20.9614 74.2153C21.2583 74.1723 21.1958 73.7269 20.895 73.766Z" fill="black"/>
<path d="M71.219 10.941C71.3167 11.2222 71.7503 11.0738 71.6487 10.7887C71.1682 9.44886 73.2737 8.39806 74.3167 9.95272C74.6917 10.5113 74.7776 11.2886 74.5394 12.0269C74.0667 13.4996 72.641 14.3628 71.3441 15.1363C71.0862 15.2887 71.3167 15.6793 71.5784 15.5269C72.9807 14.6949 74.4573 13.7769 74.9768 12.1675C75.2581 11.2964 75.1526 10.3745 74.6995 9.70274C73.3284 7.67544 70.5784 9.15582 71.219 10.941Z" fill="black"/>
<path d="M74.426 16.266L72.508 17.1332C72.2346 17.2582 72.4221 17.6762 72.6955 17.5472L74.6135 16.6801C74.883 16.559 74.6994 16.141 74.426 16.266Z" fill="black"/>
<path d="M78.496 20.91C78.2343 21.0545 77.8476 21.1522 77.5312 20.9881C77.2694 20.8436 77.0507 21.2498 77.3202 21.3905C77.7499 21.617 78.289 21.5506 78.7186 21.3084C79.1054 21.0936 79.3944 20.7694 79.6874 20.4256C80.7343 19.1873 80.2538 18.285 78.9218 18.1404C77.578 17.9959 76.1757 18.2576 74.9765 18.8748C74.7069 19.0115 74.9179 19.4139 75.1835 19.281C76.3046 18.7029 77.6132 18.4607 78.871 18.5935C79.8749 18.7029 80.121 19.2146 79.3397 20.1326C79.0663 20.453 78.8163 20.7303 78.496 20.91Z" fill="black"/>
</svg>
