<svg width="88" height="86" viewBox="0 0 88 86" fill="none" xmlns="http://www.w3.org/2000/svg">
<path d="M30.168 29.312C30.1094 30.3159 30.0274 31.4136 30.3633 32.355C30.3946 33.6988 31.9688 34.8042 34.9219 35.5581C42.3242 37.4487 58.7929 36.8198 58.8949 32.355C59.2309 31.4136 59.1488 30.312 59.0902 29.312C58.8637 25.1558 57.7738 21.2573 55.9574 17.91C56.0434 17.8397 56.1332 17.7655 56.2426 17.6795C56.4809 17.492 56.1957 17.1366 55.9613 17.3241C55.8715 17.3944 55.8051 17.4491 55.7309 17.5116C54.3168 15.0233 52.5043 12.8475 50.3364 11.121C49.4496 10.4178 48.2387 9.45296 46.9653 9.10536C45.6684 8.74989 44.2739 8.72255 42.9341 9.01942C42.7895 9.05067 42.6606 9.10926 42.52 9.14833C42.0356 7.35143 41.1919 5.64053 40.0473 4.19913C39.3754 3.34757 38.52 2.58583 37.4457 2.71863C36.0629 1.60923 33.598 0.843628 31.1918 1.17953C30.3871 -0.652472 27.6488 -0.0665721 27.6488 1.92562C27.6488 2.94122 28.4847 3.76542 29.5004 3.76542C30.6098 3.76542 31.516 2.78886 31.3207 1.61702C33.3519 1.34749 35.4184 1.88655 36.8715 2.85922C35.477 3.42563 35.5238 5.46082 36.977 5.71082C38.2895 5.92566 38.934 4.34362 37.9457 3.17962C38.6762 3.32024 39.2269 3.89056 39.6879 4.47652C40.7973 5.87492 41.6176 7.53512 42.0824 9.27732C37.3129 10.957 30.758 18.484 30.168 29.312ZM29.7032 2.976C28.961 3.12444 28.0977 2.41741 28.1798 1.4877C28.2032 1.16739 28.6641 1.24551 28.6251 1.53457C28.586 2.09707 29.043 2.57367 29.6485 2.53066C29.9532 2.4916 30.0039 2.95647 29.7032 2.976ZM37.0509 5.2651C35.9845 5.08151 36.0509 3.4448 37.3165 3.2026C38.4571 4.15963 37.9454 5.4292 37.0509 5.2651ZM37.9415 14.9643C40.5157 15.0854 42.4649 18.2573 42.2892 22.0346C42.1134 25.8119 39.8673 28.7924 37.3048 28.6674C34.7345 28.5463 32.7853 25.3783 32.961 21.601C33.1133 18.3276 35.0704 14.8119 37.9415 14.9643ZM58.6295 29.3393L58.6412 29.5346C58.7857 31.9877 58.4381 32.0815 58.4381 32.3158C58.4381 37.3705 30.8171 37.39 30.8171 32.3158C30.8171 32.0736 30.4655 32.0385 30.6257 29.3392C30.7976 26.1361 31.4968 23.0892 32.6452 20.3353C31.9889 24.2259 33.8093 29.1283 37.4538 29.1283C40.1804 29.1283 42.5163 26.058 42.739 22.1595C42.7624 22.1517 42.7858 22.1517 42.8054 22.1361C43.1179 21.8626 43.5397 21.7728 43.9812 21.9681C43.9031 25.4564 45.7585 29.1204 48.8445 29.1204C52.2429 29.1204 55.0554 24.3274 54.0437 19.4329C55.0515 18.7415 55.0789 18.6516 55.5984 18.2063C57.3523 21.4797 58.4108 25.2805 58.6295 29.3393ZM53.7662 22.1518C53.4927 25.9252 51.1803 28.8393 48.6139 28.6557C44.4889 28.3549 42.9108 20.7924 46.1959 16.7107C49.4615 12.6443 54.1998 16.1752 53.7662 22.1518ZM43.0282 9.4638C44.2704 9.18646 45.5868 9.20208 46.8407 9.54192C48.0243 9.86614 49.1923 10.7958 50.0477 11.4755C52.1883 13.1786 53.9813 15.331 55.368 17.8036C54.8055 18.2802 54.8055 18.3505 53.9266 18.9638C52.7274 14.4091 48.6141 12.9794 45.8407 16.4286C44.7196 17.8192 44.1141 19.6747 43.9969 21.4911C43.5399 21.3466 43.1922 21.3778 42.7508 21.6357C42.7859 16.4951 39.0477 12.8818 35.5672 15.2334C37.3016 12.9365 40.2314 10.081 43.0282 9.4638Z" fill="black"/>
<path d="M49.836 20.469C49.7735 20.3518 49.6915 20.2346 49.6094 20.1252C48.9337 19.2463 48.2578 19.5198 47.6875 20.469C46.9453 21.7659 46.4531 23.2346 46.4102 24.7346C47.7735 23.8908 49.5274 24.0744 50.6563 25.0627C50.6759 24.3362 50.6563 23.4494 50.5665 22.6955C49.4923 23.1174 48.9337 21.1136 49.836 20.469Z" fill="black"/>
<path d="M39.953 25.031C40.1522 22.8435 39.285 20.5115 38.7811 19.9607C38.6014 19.7693 38.3475 19.6326 38.0819 19.6443C37.6561 19.6716 37.328 20.0544 37.0585 20.3787C37.8319 21.1052 37.1561 22.9099 36.2069 22.574C36.16 22.5544 36.1171 22.5388 36.0702 22.5193C35.8905 23.2537 35.7694 24.1326 35.6991 24.8513C36.9999 23.9958 38.7186 24.0427 39.953 25.031Z" fill="black"/>
<path d="M64.773 8.188C64.773 9.2036 65.6089 10.0396 66.6246 10.0396C67.6403 10.0396 68.4762 9.20366 68.4762 8.188C68.4762 7.21144 67.7184 6.4263 66.7692 6.3521C67.2887 3.8755 65.0778 1.7076 62.5036 2.6802C60.0895 0.379396 55.945 1.1021 54.3005 4.0083C53.0271 4.11768 50.7107 5.0161 49.5896 6.313C48.7185 7.313 48.406 8.6528 48.7888 9.7232C48.8904 10.0084 49.3201 9.85211 49.2185 9.57086C48.8904 8.65289 49.1716 7.48886 49.9333 6.60996C50.8826 5.51616 52.8904 4.67636 54.0662 4.49276C53.0857 6.91466 55.2849 8.32476 56.527 7.55916C57.2536 7.10994 57.4841 6.01226 57.0231 5.20366C56.5934 4.45366 55.6911 4.02786 54.8434 3.99276C56.3551 1.68026 59.7145 0.930256 62.0582 2.88336C60.648 3.67633 60.3746 5.18026 61.0621 5.86386C61.5465 6.34433 62.4254 6.31308 62.941 5.79745C63.5387 5.2037 63.6793 4.06695 62.8395 3.03185C65.07 2.33654 66.8356 4.29355 66.3004 6.35995C65.4371 6.52401 64.773 7.27396 64.773 8.188ZM56.6246 5.4341C57.1715 6.38722 56.4723 7.6568 55.3238 7.2349C54.3941 6.89506 53.9176 5.8091 54.5816 4.4497C55.6324 4.4497 56.3199 4.89503 56.6246 5.4341ZM62.6207 5.48097C62.2769 5.82081 61.6871 5.85206 61.3785 5.54738C60.8902 5.063 61.1637 3.84428 62.3941 3.22318C63.1793 4.09427 63.0777 5.02787 62.6207 5.48097ZM66.8355 9.23877C66.066 9.36768 65.2222 8.66846 65.3043 7.75047C65.3551 7.43406 65.777 7.52 65.7574 7.79735C65.6988 8.35985 66.1871 8.85595 66.7808 8.79344C67.0816 8.75047 67.1285 9.21924 66.8355 9.23877Z" fill="black"/>
<path d="M43.66 47.824C40.8358 47.824 38.617 50.3709 38.6405 53.4178C38.6639 56.5037 40.953 59.0155 43.7421 59.0155C46.5898 59.0155 48.7694 56.4413 48.7499 53.4139C48.7265 50.3319 46.4412 47.824 43.66 47.824ZM43.742 58.562C41.2029 58.562 39.117 56.2534 39.0975 53.4175C39.0741 50.6284 41.0858 48.2808 43.66 48.2808C46.1952 48.2808 48.2733 50.5855 48.2967 53.4214C48.3163 56.2144 46.3201 58.562 43.742 58.562Z" fill="black"/>
<path d="M43.676 50.535C42.2424 50.535 41.0901 51.828 41.1018 53.4178C41.1135 55.0116 42.2893 56.3045 43.719 56.3045C45.1526 56.3045 46.301 55.0115 46.2893 53.4178C46.2776 51.828 45.1096 50.535 43.676 50.535Z" fill="black"/>
<path d="M45.273 31.543C44.4566 32.2578 43.105 32.293 42.2574 31.6211C42.023 31.4336 41.7379 31.793 41.9762 31.9766C43.0114 32.793 44.5895 32.75 45.5739 31.8789C45.8004 31.6875 45.4957 31.3438 45.273 31.543Z" fill="black"/>
<path d="M18.98 70.965C18.9722 70.8478 18.8706 70.7541 18.7534 70.7541H18.7495L5.81554 70.9416C5.70226 70.9416 5.60851 71.0314 5.59288 71.1408L5.07335 75.5978C4.93273 75.7423 5.03428 75.9845 5.23741 75.9845H5.28038H5.28428H5.54209L5.9835 78.0353H19.0735L19.0227 75.922H19.0735C19.2102 75.922 19.3079 75.8048 19.3001 75.6798C19.2922 75.59 18.9605 70.6486 18.98 70.965ZM6.019 71.3947L18.542 71.2111C18.5459 71.3009 18.7998 75.7541 18.7842 75.4689C17.4287 75.4767 23.6904 75.4455 5.53819 75.5314L6.019 71.3947Z" fill="black"/>
<path d="M40.609 70.941H27.789C27.6796 70.941 27.5859 71.0191 27.5663 71.1246L26.7148 75.5152C26.4531 75.605 26.5351 75.9449 26.7773 75.9449H26.8046C26.8359 75.9605 26.8632 75.9878 26.8984 75.9878H26.9218L27.1171 78.0386H40.2071C40.2149 77.9449 40.8399 71.1011 40.8321 71.1948C40.8477 71.0581 40.7418 70.941 40.609 70.941ZM27.976 71.398H40.355L39.9566 75.5347C34.9527 75.5191 48.9918 75.5738 27.1836 75.4918L27.976 71.398Z" fill="black"/>
<path d="M59.422 78.039C59.4415 77.9452 60.8439 71.1249 60.8243 71.2187C60.8516 71.0742 60.7423 70.9453 60.6016 70.9453L47.7856 70.9413C47.6841 70.9413 47.5981 71.0078 47.5669 71.1015C47.5395 71.1914 45.9849 76.1132 46.0786 75.8124C46.0512 75.8983 46.0708 75.9921 46.1645 76.0624L46.1255 78.039L59.422 78.039ZM47.953 71.3984H60.324L59.4646 75.5351H46.6946C48.0266 71.207 47.5741 72.6406 47.953 71.3984Z" fill="black"/>
<path d="M80.289 78.039L81.0351 75.8554C81.039 75.8476 81.0468 75.8437 81.0468 75.8398L82.7616 70.996C82.8085 70.8632 82.746 70.7304 82.5429 70.6952L69.5269 70.9491C69.4409 70.9491 69.3667 70.9999 69.3276 71.0741C69.2808 71.1639 66.9096 75.9686 67.062 75.6639C67.0152 75.7537 67.0308 75.8748 67.1402 75.9491L66.8394 78.0429L80.289 78.039ZM69.672 71.3945L82.223 71.1484L80.6722 75.5312H67.6642C69.3048 72.2539 68.7462 73.5859 69.672 71.3945Z" fill="black"/>
<path d="M19.254 79.418H19.2501L7.23009 79.5899C7.11681 79.5899 7.02306 79.6758 7.00743 79.7891L6.4879 83.7422C6.34728 83.9102 6.484 84.1133 6.65587 84.1133C6.74572 84.1172 7.03868 84.1211 6.94884 84.1211L7.34337 85.9258H19.5544L19.4802 82.7539V79.6445C19.4802 79.5156 19.379 79.418 19.254 79.418ZM7.434 80.043L19.028 79.875V83.6641C17.7936 83.6641 23.4968 83.668 6.962 83.6563L7.434 80.043Z" fill="black"/>
<path d="M25.977 84.117H26.2075L26.3911 85.9217H38.6021L38.8755 83.0155L39.2817 79.6717C39.2974 79.535 39.1919 79.4178 39.0552 79.4178H39.0513L26.9853 79.5897C26.8837 79.5897 26.7939 79.66 26.7704 79.7615L25.7548 83.8357C25.7197 83.9764 25.8247 84.117 25.977 84.117ZM27.1723 80.0428L38.8013 79.8748L38.3404 83.6639H26.2664L27.1723 80.0428Z" fill="black"/>
<path d="M44.422 79.738C44.1486 80.4997 43.215 83.0857 42.9376 83.8474C42.9181 83.906 42.9337 83.9685 42.9649 84.0232V85.9177H55.5819C55.6015 85.8278 56.9803 79.2029 56.8944 79.6247C56.9257 79.4762 56.8007 79.3434 56.6679 79.3512L44.6329 79.5895C44.5352 79.5895 44.4533 79.6521 44.422 79.738ZM56.391 79.8122L55.5824 83.6599L43.5314 83.5974L44.797 80.0388L56.391 79.8122Z" fill="black"/>
<path d="M74.309 85.922C75.5278 82.1486 74.9301 84.0392 76.391 79.6525C76.4379 79.5197 76.3519 79.3595 76.1722 79.3517C63.2502 79.6564 63.7463 79.465 63.6373 79.7267C61.8951 83.9259 61.813 83.8595 62.0044 84.047L61.7857 85.922L74.309 85.922ZM64.004 80.0431L75.859 79.8165L74.5621 83.6642H62.5191C62.5582 83.5705 64.0977 79.8048 64.004 80.0431Z" fill="black"/>
<path d="M7.293 63.449L7.37112 65.824C7.38284 66.1248 7.83596 66.1092 7.82424 65.8084L7.74612 63.4334C7.73831 63.1326 7.28128 63.1443 7.293 63.449Z" fill="black"/>
<path d="M34.234 63.371C33.6324 63.0194 32.8473 63.3398 32.4918 63.8593C32.1559 64.3515 32.0582 65.0859 32.2574 65.6445C32.6363 66.7109 34.0347 66.9687 34.6597 65.457C35.0738 64.4375 34.7613 63.6835 34.234 63.371ZM34.2379 65.2812C33.7809 66.4023 32.9254 66.1679 32.6871 65.4882C32.5387 65.0625 32.6129 64.4843 32.8668 64.1132C33.1012 63.7695 33.6246 63.5429 34.0035 63.7617C34.5074 64.0586 34.4606 64.7422 34.2379 65.2812Z" fill="black"/>
<path d="M55.16 65.832L55.8983 63.2109C55.9803 62.9257 55.5428 62.7968 55.4608 63.0898L54.7225 65.7109C54.6405 65.9961 55.078 66.1211 55.16 65.832Z" fill="black"/>
<path d="M79.547 65.438C79.7892 64.6528 80.0822 63.8755 80.422 63.1294C80.547 62.8599 80.1368 62.6646 80.0079 62.9419C79.6642 63.7036 79.3595 64.5005 79.1134 65.3013C79.0236 65.5943 79.4572 65.7271 79.547 65.438Z" fill="black"/>
<path d="M13.359 72.098C12.8707 71.3636 12.1363 71.4496 11.6754 72.0628C11.2145 72.68 11.0231 73.8089 11.2809 74.3831C11.9801 75.9456 14.7653 74.2152 13.359 72.098ZM12.9801 72.3519C13.2418 72.7503 13.3434 73.2074 13.2535 73.6097C13.1207 74.2152 12.0504 74.9886 11.6949 74.1995C11.3121 73.3441 12.23 71.2348 12.9801 72.3519Z" fill="black"/>
<path d="M35.602 73.898C35.934 72.3238 34.8012 70.6753 33.7739 71.9918C33.3442 72.5387 33.1059 73.5035 33.27 74.0152C33.6645 75.2222 35.3442 75.1285 35.602 73.898ZM34.977 72.3433C35.1997 72.7925 35.2622 73.312 35.1606 73.8042C34.9926 74.5933 33.9497 74.6245 33.7036 73.8745C33.4653 73.1362 34.4145 71.1948 34.977 72.3433Z" fill="black"/>
<path d="M54.008 74.672C53.9963 73.7892 54.0588 72.9025 54.1916 72.0353C54.2346 71.7423 53.7893 71.6642 53.7424 71.9689C53.6057 72.8595 53.5432 73.7697 53.5549 74.6759C53.5588 74.9806 54.0119 74.9728 54.008 74.672Z" fill="black"/>
<path d="M13.344 83.355L13.4143 80.7808C13.4221 80.48 12.969 80.4644 12.9612 80.7691L12.8909 83.3433C12.8792 83.6441 13.3362 83.6597 13.344 83.355Z" fill="black"/>
<path d="M33.199 80.797L32.6912 83.1681C32.6287 83.4611 33.074 83.5548 33.1365 83.2618L33.6443 80.8946C33.7068 80.5978 33.2615 80.504 33.199 80.797Z" fill="black"/>
<path d="M51.336 82.648C51.9766 81.2457 51.3438 79.2808 50.004 80.2691C49.3087 80.7847 48.836 81.9566 49.2423 82.7496C49.7032 83.6402 50.9336 83.5191 51.336 82.648ZM50.2774 80.6363C50.711 80.3199 50.9297 80.4605 51.043 80.8511C51.1954 81.3746 51.1524 81.9605 50.9258 82.4566C50.6836 82.9801 49.9376 83.0934 49.6524 82.5426C49.3517 81.9645 49.7501 81.0269 50.2774 80.6363Z" fill="black"/>
<path d="M68.703 83.453C68.9686 82.6171 69.3202 81.8007 69.7499 81.0233C69.8944 80.7616 69.4999 80.5389 69.3515 80.8045C68.9062 81.6053 68.5429 82.449 68.2695 83.3162C68.1796 83.6053 68.6132 83.7382 68.703 83.453Z" fill="black"/>
<path d="M74.703 75.371C75.9022 75.6327 77.0975 74.2812 76.7382 72.9413C76.2694 71.164 74.1249 72.3593 74.0273 74.0624C74.0195 74.1874 74.1171 74.2968 74.2421 74.3046C74.3593 74.3046 74.4765 74.2147 74.4843 74.0897C74.5468 72.9725 75.9648 71.8006 76.3007 73.0585C76.4726 73.707 76.1484 74.4647 75.5585 74.789C74.957 75.1211 74.4023 74.8828 74.2968 74.4805C74.2187 74.1914 73.7812 74.3086 73.8593 74.5976C73.9609 74.9766 74.2928 75.2772 74.703 75.371Z" fill="black"/>
<path d="M18.246 24.859C18.5429 24.8082 18.4648 24.3512 18.1679 24.4098C14.5781 25.0192 12.3281 28.8121 13.707 32.3356C12.7421 33.6872 12.664 36.4489 13.3984 37.9215C14.2382 39.5973 15.8476 39.6559 15.7578 39.6207C16.0508 39.6207 16.0625 39.1832 15.7734 39.1676C14.9961 39.1207 14.2226 38.5504 13.8086 37.7223C13.1446 36.3903 13.2578 33.984 13.9297 32.8356C15.2422 35.3981 17.957 34.5114 17.5547 32.6363C17.2227 31.0894 15.3711 30.6832 14.0469 31.9488C12.9375 28.6715 15.078 25.398 18.246 24.859ZM17.1093 32.7262C17.4023 34.0973 15.3281 34.777 14.2304 32.4098C15.164 31.3629 16.8124 31.3473 17.1093 32.7262Z" fill="black"/>
<path d="M73.113 36.086C75.4489 33.2071 75.2771 29.3008 73.9528 27.6993C73.3122 26.922 72.3005 26.5391 71.4411 26.7462C70.2184 27.0391 69.9333 28.2853 70.5935 28.8634C70.82 29.0587 71.1208 28.7188 70.8943 28.5196C70.488 28.1642 70.7185 27.3868 71.5505 27.1876C72.2497 27.0197 73.0739 27.34 73.6052 27.9884C74.7849 29.422 74.9646 33.0861 72.7615 35.8009C72.57 36.0353 72.9294 36.3165 73.113 36.086Z" fill="black"/>
<path d="M75.711 39.328C76.3399 38.3944 77.1641 37.5663 78.1016 36.9374C78.3516 36.7694 78.0938 36.3905 77.8477 36.5624C76.8633 37.2226 75.9961 38.0936 75.336 39.0741C75.1641 39.328 75.5469 39.5741 75.711 39.328Z" fill="black"/>
<path d="M79.926 45.742C79.6135 45.8787 79.1799 45.8748 78.9494 45.6092C78.7502 45.3826 78.4104 45.6795 78.6057 45.9061C78.969 46.328 79.6135 46.3748 80.1057 46.16C80.7424 45.8865 81.6526 44.8436 81.8752 44.3436C82.2932 43.4178 81.8557 42.4139 80.2619 42.4139C80.1681 42.4334 77.6096 42.2928 75.4572 44.328C75.2384 44.5311 75.5509 44.867 75.7697 44.66C77.8049 42.7381 80.3556 42.8553 80.2619 42.8709C81.4689 42.8709 81.7619 43.4842 81.4611 44.16C81.2853 44.5506 80.4651 45.5116 79.926 45.742Z" fill="black"/>
<path d="M0.6641 67.09L1.23832 69.5666H15.9883L15.8829 67.0393C15.8946 67.0315 15.9102 67.0315 15.9219 67.0237C16.0508 66.8948 15.9649 67.0823 15.8868 61.219C15.8868 61.094 15.7969 61.0159 15.6563 60.9963L12.7774 61.0315C15.6797 53.9104 20.9258 48.8475 28.6014 45.7345C28.535 50.9533 29.4451 56.9255 32.1834 61.0895L25.9022 61.1793C25.7967 61.1793 25.7069 61.2574 25.6834 61.359L24.5115 66.8199C24.4842 66.9449 24.5936 67.1129 24.7342 67.1129H24.9608L25.2147 69.566H39.9647L40.1873 67.1363H40.2069C40.3279 67.1363 40.4256 67.0425 40.4334 66.9214V66.9175C42.7342 67.5581 44.8475 67.566 46.8787 67.1832L46.8397 69.5659H61.6717L62.1951 67.0893H62.242H62.2459H62.2498C62.5193 67.0893 62.4842 66.7456 62.5271 66.6245C62.5584 66.4761 63.5232 61.3472 63.5427 61.2456C63.5662 61.1206 63.4802 60.9761 63.3162 60.9761L56.1326 61.0737C58.906 56.8784 59.7928 50.8157 59.7107 45.6397C67.7849 48.8077 73.0547 54.2608 75.8127 61.1397L73.1682 61.1749C73.0822 61.1749 73.0041 61.2257 72.9689 61.2999C72.9221 61.3936 70.1837 66.9757 70.3517 66.6358C70.3127 66.6905 70.3049 66.7764 70.3205 66.835V66.8389C70.3283 66.8624 70.3283 66.8819 70.34 66.9014C70.3439 66.9092 70.3557 66.9131 70.3596 66.921L69.965 69.5655H84.988L85.8513 67.085C85.9451 67.081 86.031 67.0225 86.0583 66.9287L87.8552 61.2685C87.9021 61.1201 87.7888 60.9716 87.6404 60.9716H87.6365L80.9998 61.0615C78.9646 53.0771 72.574 47.4095 67.5468 44.0535C67.4413 43.9871 67.3007 44.0105 67.2304 44.116C64.8085 42.5105 63.0898 41.4519 59.3476 40.2801C59.332 40.1785 59.3163 39.9832 59.2187 39.4637C59.1952 39.3387 59.0741 39.2527 58.953 39.284C58.9257 39.2879 58.914 39.3113 58.8905 39.323C55.2928 37.8582 31.7425 37.9207 29.5075 39.3582C29.363 39.2019 29.1638 39.2996 29.1286 39.4558C28.9919 40.0691 28.9724 40.5027 28.9568 40.655C26.0935 41.0418 23.738 42.5183 21.3318 44.1159C21.2614 44.0105 21.1169 43.9831 21.0154 44.0534C15.9802 47.4206 9.58135 53.1003 7.55035 61.0884L1.02305 61.1705C0.905861 61.1705 0.812111 61.2603 0.800391 61.3736L0.292581 66.6548C0.0543008 66.7485 0.128521 67.0454 0.339456 67.0767C0.421487 67.0806 0.753516 67.0884 0.663676 67.0884L0.6641 67.09ZM17.6291 52.313C17.676 52.3521 17.7033 52.4067 17.7072 52.4653C17.6291 52.5474 17.5471 52.6255 17.4689 52.7075C17.4182 52.7036 17.3674 52.6919 17.3361 52.6567C15.5197 51.1098 14.0783 50.8676 13.9064 50.6801C14.008 50.5708 14.1057 50.4614 14.2072 50.352C15.4494 50.7778 16.633 51.4576 17.6291 52.313ZM9.5744 56.9263C10.9142 57.2232 12.2033 57.6997 13.3947 58.3677C13.4338 58.3911 13.4494 58.4263 13.4728 58.4654C13.4142 58.5786 13.3478 58.6841 13.2892 58.7935C12.4377 58.4068 11.3986 57.7701 9.37514 57.3404C9.43764 57.2037 9.50409 57.0669 9.5744 56.9263ZM26.0974 61.6255C29.7302 61.5747 36.6364 61.4771 40.3394 61.4224L39.9957 66.6802L25.0226 66.6372L26.0974 61.6255ZM62.0624 66.6333H47.2574L48.7262 61.6216L63.0462 61.4263C63.0306 61.5239 61.996 66.981 62.0624 66.6333ZM73.6284 56.0243C74.3472 55.3759 75.2104 54.9071 76.1596 54.6884C76.4565 54.622 76.5502 55.0634 76.2612 55.1298C75.3666 55.3368 74.5542 55.7783 73.8823 56.3993C73.8002 56.2704 73.7104 56.1493 73.6284 56.0243ZM70.8706 49.0712C71.1011 48.8837 71.3901 49.2392 71.1518 49.4267C70.2729 50.1103 69.3666 50.8408 69.2534 50.8994C69.1519 50.8095 69.0581 50.7119 68.9566 50.6259C69.023 50.4658 68.812 50.7197 70.8706 49.0712ZM85.6716 66.6332C84.1599 66.6215 91.1404 66.6684 70.9056 66.5355L73.3158 61.6253L87.3198 61.43L85.6716 66.6332ZM64.3396 43.9342C64.5193 43.6959 64.8826 43.9733 64.699 44.2115C64.1404 44.9303 63.7107 45.774 63.4529 46.649C63.4294 46.7233 63.3865 46.7662 63.3318 46.7897C63.2302 46.735 63.1326 46.6764 63.0271 46.6256C63.0193 46.5904 63.0037 46.5631 63.0154 46.5201C63.2927 45.5904 63.7498 44.6959 64.3396 43.9342ZM43.6916 39.11C51.59 39.11 51.4963 40.1178 43.6916 40.1178C35.9533 40.1178 35.7541 39.11 43.6916 39.11ZM29.5356 39.7506C32.0629 41.1998 55.1216 41.317 58.8246 39.9147C58.9535 40.6842 59.1918 42.9108 59.2504 44.7858C59.5004 49.5124 58.7465 55.2078 56.4457 59.6648C56.1683 60.196 55.8871 60.657 55.5863 61.0789L48.5511 61.1726C48.4495 61.1726 48.3636 61.239 48.3363 61.3367C48.3089 61.4304 46.6488 67.1023 46.7504 66.7586C44.6918 67.1414 42.5629 67.0516 40.4652 66.45L40.805 61.2078C40.8128 61.075 40.7074 60.9656 40.5784 60.9656C40.4886 60.9656 32.6292 61.0672 32.7229 61.0789C29.6019 56.5477 28.8635 49.7199 29.0901 44.2509C33.2659 45.622 43.4342 46.2392 48.9422 44.8251C49.2312 44.7509 49.1257 44.3173 48.8289 44.3837C43.45 45.7587 33.3019 45.1884 29.1099 43.7743C29.1528 42.9814 29.4067 40.4224 29.5356 39.7506ZM22.3208 43.774C23.3013 44.3561 24.1099 45.1802 24.6606 46.1763C24.809 46.4302 24.4262 46.6568 24.2622 46.3951C23.7543 45.4693 23.0005 44.6998 22.0864 44.1724C21.8246 44.02 22.0513 43.6178 22.3208 43.774ZM1.2268 61.626C4.8479 61.5831 11.7268 61.4971 15.4378 61.4502L15.5276 66.6377L0.742644 66.6338L1.2268 61.626Z" fill="black"/>
</svg>
