<svg width="84" height="88" viewBox="0 0 84 88" fill="none" xmlns="http://www.w3.org/2000/svg">
<path d="M80.648 87.863H80.6558C80.7769 87.863 80.8785 87.7653 80.8824 87.6442C81.1988 77.4922 81.4293 70.9562 72.1324 65.3862C73.6324 61.6206 70.1402 57.4253 67.2886 57.2378C66.3433 57.1753 65.3472 57.5386 64.4956 58.2144C62.394 57.5972 60.3823 57.4332 58.3472 57.2339C58.3589 56.9332 58.3823 56.6441 58.4409 56.3511C65.6792 54.0659 69.3629 48.8003 70.5889 41.3741C71.8741 41.9835 73.4209 41.9249 74.6944 41.2257C74.6983 41.2296 74.6944 41.2335 74.6983 41.2413C74.7608 41.3468 74.9015 41.3858 75.0108 41.3194C76.671 40.3194 77.8975 38.2647 77.0264 36.2647C76.0967 34.1085 73.1631 32.9444 70.8858 34.0967C70.6554 31.3662 69.8702 28.8545 68.6085 26.8037C68.7101 26.6631 68.7648 26.5186 68.7648 26.3662C68.7648 24.6787 62.339 23.6435 55.1748 23.3506C55.4638 22.1201 56.0185 20.9444 56.8076 19.9678C56.9951 19.7335 56.6435 19.4483 56.456 19.6827C55.6084 20.7335 55.0146 22.0069 54.7177 23.3311C52.0536 23.2334 49.3896 23.2373 46.6747 23.3467C46.2646 22.1631 45.5263 21.0811 44.5653 20.292C44.3309 20.1006 44.0458 20.4522 44.2763 20.6436C45.1395 21.3506 45.8075 22.3116 46.1982 23.3663C41.5302 23.5811 37.2294 24.1124 34.8932 24.9327C34.776 24.5342 34.5416 24.4209 34.1549 24.2686C31.4791 16.9483 6.98289 -0.352398 3.38489 2.7566C2.97083 3.10816 2.94348 3.61207 3.05286 4.1433C-1.31824 12.1863 1.00986 22.5143 8.83806 28.1163C16.1858 33.3702 25.9121 32.6944 32.2091 27.0265C32.4981 27.2374 32.7364 27.3703 32.9473 27.4679C32.3536 29.8741 31.963 32.0617 31.7715 34.132C30.1582 33.5578 28.3848 33.9289 27.2637 35.2648C27.2598 35.2648 27.2637 35.2609 27.2598 35.257C27.1583 35.1828 27.0176 35.2023 26.9434 35.3C24.4551 38.6125 27.713 43.1516 32.0411 41.8117C32.92 46.7453 35.3809 51.0539 38.8341 53.6557C40.4122 54.851 42.2989 55.7807 44.4435 56.4252C44.4982 56.6009 44.5334 56.7884 44.5568 56.9799C43.4865 57.058 40.467 57.3197 39.4552 57.6869C37.756 56.8158 36.1935 57.2416 34.7169 58.5228C32.756 60.2181 31.6935 62.7572 32.5685 65.2064C28.8029 67.2064 25.9708 70.1126 24.5802 73.4486C22.8927 77.4916 22.506 82.6947 23.549 87.3706C23.5724 87.4722 23.6623 87.5464 23.7677 87.5503L80.6547 87.8589L80.648 87.863ZM36.976 64.933C37.2377 65.0346 37.1127 65.4486 36.8119 65.351C34.9252 64.5853 34.3588 62.2065 35.6596 60.6713C36.2573 59.9799 36.9096 59.9408 37.3198 60.2103C37.5777 60.3822 37.3238 60.7572 37.0738 60.5931C36.7378 60.3705 36.2925 60.6322 36.0035 60.9642C34.8902 62.2728 35.4057 64.2923 36.976 64.933ZM44.4799 67.9877C44.2963 67.5463 44.058 66.0854 42.5854 62.2455C43.4565 61.2103 44.6049 60.0697 44.9526 58.3275V58.3158C49.4956 59.0345 53.9643 58.3705 57.9566 56.5306C57.5543 59.3275 58.9957 61.054 59.0347 61.1439C59.7027 62.1165 60.5269 63.3197 60.7574 64.5267C60.4801 65.0267 59.1988 67.4681 58.9801 67.9369C54.4528 70.8197 48.3549 71.7807 44.4799 67.9877ZM67.3979 61.2221H67.3706C66.5073 61.2221 65.6909 61.8041 65.4644 62.5932C65.4019 62.8705 64.9644 62.7729 65.0308 62.4682C65.312 61.4994 66.3081 60.7729 67.3706 60.7729H67.3979C69.3862 60.7924 70.8745 63.019 69.9917 65.2885C69.9136 65.5463 69.4566 65.4369 69.5737 65.1362C70.3159 63.1479 69.0972 61.2417 67.3979 61.2221ZM64.0854 58.5815C63.0502 59.601 62.5463 60.7377 62.0229 61.9604C61.9917 62.0346 62.0112 62.1088 62.0542 62.1713C61.8315 62.7651 61.5073 63.226 61.0854 63.9525C60.2768 61.3275 58.4448 60.6947 58.3471 57.6947C60.2612 57.8822 62.0815 58.0268 64.0854 58.5815ZM72.4565 39.6015C70.9057 39.1093 71.6401 36.4843 72.8003 37.0156C73.2338 37.2226 73.2456 37.7851 73.2456 38.0039C73.269 38.2929 72.8159 38.3203 72.7924 38.0039C72.7924 36.7578 71.7729 37.7148 72.0776 38.6211C72.2378 39.1406 72.7299 39.3867 73.4292 39.0664C75.4722 38.1406 75.0073 34.875 73.1558 35.4922C72.8472 35.5937 72.5659 35.7656 72.2651 35.9531C72.0073 36.1016 71.7691 35.7461 72.0191 35.5625C72.6714 35.1602 73.4332 34.7266 74.2222 35.082C74.6401 35.2734 74.9643 35.6992 75.1206 36.2539C75.6909 38.4297 73.5776 40.0311 72.4565 39.6015ZM46.4835 24.3475C46.5382 24.6405 46.9874 24.5584 46.9288 24.2616C46.8976 24.1053 46.8585 23.953 46.8194 23.8006C49.4678 23.6991 52.0928 23.6951 54.6397 23.785C54.6124 23.9491 54.5655 24.1092 54.5499 24.2733C54.5186 24.5741 54.9679 24.6248 55.003 24.3241C55.0225 24.1483 55.0694 23.9803 55.1007 23.8084C63.0616 24.1248 68.3197 25.3006 68.3197 26.3748C68.3197 27.6248 61.1752 29.0154 50.9247 29.0154C42.5966 29.0154 36.3197 28.0975 34.2527 27.0857C34.53 26.6209 34.8933 25.9255 34.9441 25.3826C36.9636 24.6756 41.0222 24.0584 46.3351 23.824C46.382 23.9959 46.4483 24.1678 46.4835 24.3475ZM14.8625 22.8475C15.5227 23.4452 16.3313 23.91 17.1828 24.1717C17.4172 24.2615 17.3781 24.617 17.1086 24.617C16.9016 24.617 15.6008 24.1248 14.55 23.1834C14.3351 22.9881 14.6281 22.6561 14.8625 22.8475ZM4.61251 2.8475C10.7141 2.8475 30.5185 17.3985 33.5735 24.0235C32.5462 23.6368 32.0852 24.2813 31.7727 25.3008C31.7102 25.5078 31.6516 25.7227 31.6321 25.9375C23.3938 24.2227 3.76508 8.58552 3.45208 3.79252C3.4013 3.07768 3.90153 2.8475 4.61251 2.8475ZM17.7925 28.4455C17.6988 28.4142 13.6831 27.9767 10.3745 24.4182C10.1753 24.1955 10.519 23.8987 10.7104 24.1096C12.5893 26.133 15.1166 27.5119 17.8315 27.9924C18.1128 28.0549 18.062 28.4455 17.7925 28.4455ZM28.4135 36.3283C28.9955 35.8283 29.8901 35.7385 30.5463 36.1213C31.8197 36.8556 31.6791 38.7385 30.6635 39.0236C30.3471 39.1134 29.976 39.0158 29.6674 38.7618C29.4213 38.5548 29.2494 38.2814 29.1049 38.047C28.933 37.7892 29.3393 37.547 29.4877 37.8009C30.7533 39.9142 31.726 37.3126 30.3237 36.5236C29.8237 36.2346 29.1518 36.2971 28.7182 36.6681C27.7143 37.5471 28.4017 39.1876 29.6986 39.1095C29.9877 39.0861 30.0267 39.5627 29.7182 39.5627C29.6908 39.5705 29.6635 39.5705 29.6361 39.5705C28.9017 39.5705 28.1947 39.09 27.9213 38.4103C27.6244 37.6954 27.8432 36.8244 28.4135 36.3283ZM32.2221 34.2267C32.4096 32.172 32.7963 29.9923 33.3862 27.5939C33.7768 27.6291 33.8745 27.4806 33.9682 27.4025C39.3315 30.2541 64.3592 30.1017 68.2802 27.1369C72.1318 33.5158 70.8583 45.1099 66.2216 50.7659C59.9638 58.387 46.2256 58.6956 39.1086 53.2971C34.6477 49.9377 31.3783 43.4139 32.2221 34.2267ZM44.5811 57.4377C44.5772 59.1994 43.4991 60.5002 42.3975 61.7658C41.9756 60.6955 41.5733 59.8596 40.8819 59.0275C40.9288 58.9455 40.9366 58.84 40.8663 58.7658C40.5968 58.4728 40.2999 58.2228 39.9874 58.008C41.046 57.7423 43.499 57.5158 44.5811 57.4377ZM24.9951 73.6287C26.3389 70.4021 29.0849 67.5857 32.7373 65.6365C34.0537 68.4763 37.1865 68.4724 39.71 69.2498C43.2295 70.3318 46.0655 73.3475 46.9366 76.9256C46.964 77.0311 47.0616 77.1131 47.1866 77.0975C47.1983 77.1287 47.2061 77.16 47.2257 77.1834C47.3936 78.9217 47.0968 80.7107 46.3624 82.285C46.2335 82.5585 46.6475 82.7499 46.7725 82.4764C47.6944 80.5076 47.9483 78.2069 47.5108 76.0741C47.2335 73.7694 46.5577 71.5038 45.5225 69.4257C49.4248 72.0038 54.6123 70.9843 58.6395 68.6835C57.5418 71.3007 57.0457 74.1757 57.2372 77.0077C57.2411 77.0741 57.2763 77.1249 57.3232 77.164C57.413 79.0546 57.9364 80.9257 58.8623 82.5781C59.0068 82.8398 59.4052 82.6172 59.2607 82.3554C58.3466 80.7265 57.8388 78.8827 57.7724 77.0195C57.7958 76.9922 57.8232 76.9687 57.831 76.9297C58.7021 73.3516 61.538 70.3359 65.0576 69.2539C67.4912 68.5039 70.5771 68.4804 71.9443 65.8086C80.9326 71.2148 80.7568 77.5976 80.4365 87.4136L68.1315 87.3472C68.2917 85.2574 68.1706 81.023 67.8893 78.9527C67.8463 78.6441 67.401 78.7222 67.4401 79.0152C67.7174 81.066 67.8385 85.2574 67.6784 87.3199C67.6784 87.3316 67.6862 87.3355 67.6862 87.3472L23.9482 87.1089C22.9755 82.5581 23.3662 77.5384 24.9951 73.6287Z" fill="black"/>
<path d="M56.812 37.633C55.269 37.8478 53.8198 38.7736 52.8472 39.8361C52.6675 40.0353 52.691 40.34 52.898 40.5236C54.8785 42.3048 56.7418 43.3713 59.3121 42.5002C60.4488 42.1252 61.9488 41.2463 62.4215 40.0002C62.5035 39.7971 62.4215 39.5627 62.2145 39.4182C60.5075 38.2737 58.8588 37.2893 56.812 37.633ZM58.6714 38.6135C58.6714 39.2619 57.437 39.2619 57.437 38.6135C57.437 37.965 58.6714 37.965 58.6714 38.6135ZM59.1675 42.0705C56.7847 42.8791 55.0308 41.8634 53.1831 40.1408C53.7651 39.508 54.4448 39.0002 55.1987 38.6252C55.4057 39.8205 56.4604 40.6838 57.6596 40.59C58.7846 40.504 59.6713 39.6212 59.8002 38.5314C60.5346 38.8595 61.2377 39.3165 61.9486 39.7931C61.976 39.8126 61.9877 39.8321 61.9877 39.8399C61.6049 40.8633 60.2964 41.6994 59.1675 42.0705Z" fill="black"/>
<path d="M53.344 36.367C53.0784 36.6014 52.8714 36.8397 52.7307 37.1053C52.5862 37.367 52.9846 37.5857 53.1292 37.324C53.2151 37.1678 53.3284 37.0193 53.469 36.8748C53.4768 36.9803 53.4964 37.0857 53.4846 37.1912C53.4573 37.492 53.9065 37.535 53.9378 37.2342C53.9612 36.9881 53.9338 36.7498 53.8753 36.5154C54.2854 36.2107 54.7815 35.9256 55.5745 35.6522C55.5627 35.7342 55.5705 35.8162 55.5549 35.8982C55.4924 36.1912 55.9377 36.285 56.0002 35.992C56.0354 35.824 56.051 35.6561 56.0627 35.4881C56.676 35.3318 57.3088 35.2693 57.9455 35.2967C57.9221 35.3709 57.8987 35.4451 57.8674 35.5193C57.7385 35.7928 58.1526 35.9842 58.2776 35.7146C58.3362 35.5936 58.3752 35.4686 58.4104 35.3436C58.9612 35.4061 59.5081 35.5311 60.0276 35.7342C59.9846 35.8904 59.9299 36.0467 59.8518 36.1951C59.7073 36.4607 60.1096 36.6756 60.2541 36.41C60.3362 36.2537 60.3987 36.0935 60.4495 35.9256C60.762 36.074 61.0588 36.242 61.344 36.4373C61.2932 36.617 61.2346 36.7967 61.1526 36.9685C61.0198 37.2381 61.4299 37.4373 61.5627 37.1678C61.637 37.0193 61.676 36.8631 61.7268 36.7068C61.7815 36.7498 61.8401 36.781 61.8909 36.824C62.1213 37.0193 62.4143 36.6678 62.1838 36.4764C62.0783 36.3904 61.9612 36.3201 61.8518 36.242C61.887 36.0467 61.9221 35.8514 61.9221 35.66C61.9221 35.3592 61.469 35.3592 61.469 35.66C61.469 35.7537 61.4455 35.8475 61.4338 35.9451C61.1487 35.7654 60.8518 35.6092 60.5432 35.4686C60.5745 35.1873 60.5627 34.9061 60.4963 34.6443C60.4221 34.3553 59.9807 34.4646 60.0549 34.7576C60.0979 34.9256 60.1057 35.1014 60.0979 35.2811C59.5784 35.0896 59.0393 34.9646 58.4924 34.8982C58.5197 34.5545 58.4768 34.2147 58.344 33.9061C58.2229 33.6326 57.8088 33.8084 57.926 34.0857C58.0275 34.3201 58.0627 34.5818 58.0432 34.8436C57.3752 34.8084 56.7034 34.8748 56.0549 35.035C56.0314 34.7928 55.9885 34.5545 55.9103 34.3279C55.8166 34.0428 55.383 34.1873 55.4807 34.4725C55.5549 34.6951 55.5978 34.9295 55.6135 35.1678C54.7853 35.4256 54.219 35.7264 53.7229 36.074C53.5315 35.6795 53.2307 35.3357 52.8322 35.1131C52.5705 34.9646 52.3479 35.3592 52.6096 35.5076C52.9533 35.7029 53.1995 36.0115 53.344 36.367Z" fill="black"/>
<path d="M39.988 36.824C40.0388 36.781 40.0974 36.7498 40.1521 36.7068C40.2028 36.8591 40.2458 37.0193 40.3161 37.1677C40.4489 37.4373 40.8552 37.242 40.7263 36.9685C40.6404 36.7966 40.5857 36.617 40.5349 36.4373C40.82 36.242 41.1208 36.074 41.4294 35.9256C41.4802 36.0896 41.5427 36.2537 41.6247 36.406C41.7653 36.6716 42.1677 36.4568 42.0271 36.1912C41.9489 36.0427 41.8942 35.8865 41.8513 35.7302C42.3708 35.5271 42.9177 35.406 43.4685 35.3396C43.5036 35.4646 43.5427 35.5896 43.6013 35.7107C43.7302 35.9842 44.1403 35.7888 44.0114 35.5154C43.9763 35.4412 43.9568 35.367 43.9333 35.2927C44.5661 35.2654 45.2028 35.324 45.8161 35.4842C45.8239 35.6521 45.8435 35.8201 45.8786 35.9881C45.9411 36.2849 46.3864 36.1912 46.3239 35.8943C46.3083 35.8123 46.3161 35.7303 46.3044 35.6482C47.0974 35.9217 47.5935 36.2068 48.0036 36.5115C47.9489 36.742 47.9216 36.9842 47.9411 37.2303C47.9724 37.531 48.4216 37.4881 48.3942 37.1873C48.3825 37.0779 48.402 36.9763 48.4098 36.8709C48.7966 37.2732 48.7341 37.4373 48.9489 37.4373C49.1169 37.4373 49.2341 37.2537 49.1481 37.1013C49.0036 36.8357 48.7966 36.5974 48.5348 36.3631C48.6794 36.0115 48.9294 35.699 49.2731 35.5037C49.5348 35.3552 49.3122 34.9568 49.0505 35.1092C48.652 35.3357 48.3512 35.6756 48.1598 36.0701C47.6598 35.7185 47.0934 35.4217 46.2692 35.1638C46.281 34.9256 46.3278 34.6912 46.4021 34.4685C46.4997 34.1834 46.0661 34.0388 45.9724 34.324C45.8942 34.5506 45.8513 34.7888 45.8278 35.0349C45.1794 34.8787 44.5114 34.8123 43.8395 34.8435C43.82 34.5779 43.8552 34.3201 43.9567 34.0857C44.0075 33.9685 43.9528 33.8357 43.8395 33.7849C43.4489 33.6131 43.3552 34.4724 43.3903 34.8943C42.8434 34.9608 42.3005 35.0818 41.7848 35.2772C41.777 35.0975 41.7848 34.9178 41.8278 34.7537C41.902 34.4607 41.4645 34.3475 41.3864 34.6404C41.32 34.9022 41.3083 35.1834 41.3395 35.4686C41.0309 35.6053 40.734 35.7615 40.4489 35.9451C40.4372 35.8514 40.4137 35.7537 40.4137 35.66C40.4137 35.3592 39.9606 35.3592 39.9606 35.66C39.9606 35.8514 39.9958 36.0467 40.0309 36.242C39.9215 36.324 39.8044 36.3904 39.6989 36.4764C39.6012 36.5584 39.5895 36.699 39.6715 36.7967C39.7497 36.8943 39.8943 36.906 39.988 36.824Z" fill="black"/>
<path d="M48.973 40.527C49.1918 40.3473 49.2152 40.0426 49.0238 39.8317C47.2347 37.8825 44.5121 36.8747 41.848 38.1286C41.0707 38.4801 40.3597 38.9567 39.6605 39.4216C39.4574 39.5661 39.3753 39.8005 39.4574 39.9997C39.8988 41.1559 41.3363 42.0895 42.5629 42.4997C45.1215 43.3669 46.9808 42.3161 48.973 40.527ZM43.4535 38.1208C44.2699 38.1208 44.2699 39.1013 43.4535 39.1013C43.1098 39.1013 42.8285 38.8825 42.8285 38.613C42.8285 38.3395 43.1098 38.1208 43.4535 38.1208ZM42.7074 42.07C41.5785 41.695 40.2699 40.8591 39.8793 39.8434C39.8793 39.8395 39.891 39.816 39.9145 39.8004C40.5668 39.3707 41.227 38.9332 41.9614 38.5856C42.0786 39.7106 42.9653 40.6325 44.1059 40.7106C45.3793 40.8161 46.477 39.8669 46.6137 38.5895C47.3949 38.9723 48.0942 39.4958 48.6957 40.1598C48.6957 40.1637 48.6918 40.1715 48.6761 40.1833L48.6683 40.1911C46.7972 41.8708 45.0863 42.8786 42.7074 42.07Z" fill="black"/>
<path d="M50.918 27.66C58.7266 27.66 65.047 27.0116 65.047 26.2108C65.047 25.41 58.7228 24.7577 50.918 24.7577C43.1094 24.7577 36.781 25.41 36.781 26.2108C36.781 27.0116 43.113 27.66 50.918 27.66Z" fill="black"/>
<path d="M16.777 16.109C21.9645 20.0621 27.027 22.5309 28.078 21.6129C29.1288 20.7066 25.7928 16.7613 20.5936 12.816C15.3983 8.8512 10.3356 6.3941 9.28461 7.3004C8.22211 8.21837 11.57 12.1559 16.777 16.109ZM16.7301 11.1402C16.82 11.2222 16.82 11.3668 16.7301 11.4566C16.4333 11.7535 16.359 11.1441 14.8981 10.3316L14.8356 10.2965C13.4372 9.51129 12.9059 9.5777 13.8004 10.9605C13.8551 11.0425 13.902 11.1246 13.945 11.1949C16.5544 15.5855 21.8278 18.1168 22.5075 18.1519C22.7536 18.1714 22.8981 18.062 22.9254 17.8238C22.9723 17.5347 22.6715 17.1245 22.4372 16.8004C21.6754 15.7145 21.238 15.1598 19.7419 14.1246C19.1794 13.7378 18.6911 13.3472 18.0466 13.2339C17.9684 13.2144 17.7731 13.1988 17.7184 13.2535C17.738 13.2535 17.7458 13.2808 17.7809 13.3355C18.1637 13.898 18.6989 14.3863 19.3395 14.7496C19.5973 14.9019 19.3708 15.2887 19.113 15.1402C18.4138 14.7418 17.8239 14.2066 17.406 13.5894C17.1208 13.2222 17.3083 12.8785 17.6677 12.7808C18.2224 12.6558 19.0622 13.0894 19.5622 13.4527C21.2145 14.5894 21.7341 15.0113 22.8005 16.5347C23.0817 16.9253 23.4372 17.4058 23.3708 17.8785C23.3161 18.3316 22.988 18.6129 22.5466 18.6129C21.3318 18.6129 15.7614 15.4254 13.4138 11.2027C13.1521 10.8043 12.8318 10.3043 12.9255 9.85109C13.2028 8.48779 15.816 10.2222 16.7301 11.1402Z" fill="black"/>
<path d="M49.32 48.039C52.0973 50.0312 56.0075 49.3359 57.9216 46.4843C58.2966 46.9296 58.8044 47.121 58.9568 47.121C59.2224 47.121 59.2693 46.7382 59.0115 46.6718C58.3787 46.5155 57.8904 45.8866 57.9021 45.2343C57.906 44.9218 57.4529 44.9491 57.449 45.2265C57.4451 45.5429 57.5271 45.8515 57.6755 46.1288C57.6326 46.1444 57.5896 46.164 57.5623 46.203C55.8084 48.8514 52.1717 49.5233 49.5857 47.6678C49.3435 47.496 49.0778 47.8632 49.32 48.039Z" fill="black"/>
<path d="M40.234 20.305C41.3043 19.3675 39.9059 17.0238 38.8942 16.0159C37.1481 14.2737 35.3825 15.6331 36.1676 17.7737C37.0817 20.2503 39.3864 21.0511 40.234 20.305ZM38.5738 16.3402C39.2183 16.9808 39.7183 17.7738 40.023 18.6332C40.5582 20.1371 39.5582 20.5707 38.0816 19.6332C37.4722 19.2465 36.9175 18.4926 36.5933 17.6176C35.98 15.9379 37.1714 14.9456 38.5738 16.3402Z" fill="black"/>
<path d="M55.027 13.359C53.0739 14.566 53.1129 17.6988 54.8864 17.3082C56.945 16.8668 57.0583 12.109 55.027 13.359ZM54.7887 16.8668C54.5348 16.9215 54.3512 16.8785 54.2301 16.734C53.9332 16.3863 53.9957 15.5465 54.1715 15.0934C54.3903 14.527 54.7809 14.0465 55.2692 13.7457C55.6677 13.4996 55.902 13.5738 55.9997 14.1207C56.152 14.9644 55.8121 16.648 54.7887 16.8668Z" fill="black"/>
<path d="M45.91 13.527C46.9725 14.7458 47.8045 16.1325 48.3827 17.6442C48.4882 17.9254 48.914 17.7653 48.8085 17.484C48.2147 15.9215 47.3554 14.4879 46.2538 13.2301C46.0507 13.0036 45.7108 13.3004 45.91 13.527Z" fill="black"/>
<path d="M42.18 5.812C40.9769 5.95262 40.4964 8.0698 42.1839 9.9722C43.2698 11.1949 44.7855 12.1011 45.3401 10.5542C45.9924 8.73393 43.5082 5.6636 42.18 5.812ZM44.9144 10.4018C44.805 10.7065 44.6566 10.8705 44.4535 10.9096C44.0238 10.9955 43.266 10.5073 42.5277 9.67131C41.1058 8.06971 41.43 6.35881 42.2347 6.26111C43.223 6.15173 45.4456 8.9174 44.9144 10.4018Z" fill="black"/>
<path d="M62.688 23C64.0122 22.707 64.5864 20.7383 64.6802 19.4141C64.77 18.1524 63.9927 17.7813 63.2974 18.0703C62.4263 18.4297 60.4302 20.6601 61.063 22.2539C61.3091 22.8711 62.063 23.1367 62.688 23ZM62.9614 18.8516C63.8052 18.0821 64.2934 18.4375 64.227 19.3828C64.1489 20.4844 63.6645 22.3203 62.5903 22.5586C62.1841 22.6485 61.645 22.4805 61.4887 22.086C61.0512 20.9922 62.2075 19.5391 62.9614 18.8516Z" fill="black"/>
<path d="M62.23 13.961C61.4839 15.0235 60.7847 16.1446 60.1597 17.2813C60.0152 17.543 60.4136 17.7618 60.5582 17.5C61.1753 16.375 61.8629 15.2695 62.6012 14.2188C62.773 13.9767 62.4019 13.7149 62.23 13.961Z" fill="black"/>
<path d="M56.68 10.824C57.18 9.14429 57.8753 7.52319 58.7542 6.00759C58.9066 5.74978 58.512 5.51931 58.3597 5.78103C57.4652 7.32793 56.7542 8.98023 56.2425 10.6951C56.1604 10.9842 56.5941 11.1091 56.68 10.824Z" fill="black"/>
<path d="M52.762 0.613294C51.7151 -0.343736 50.0901 0.0898535 49.8558 2.31639C49.6956 3.85549 50.1019 5.46869 50.973 6.74609C51.0003 6.78516 51.0355 6.8125 51.0745 6.82812C51.3714 7.1875 51.7425 7.46484 52.2269 7.46874H52.2464C54.5394 7.46874 54.4769 2.18759 52.762 0.613294ZM52.2347 7.01559C51.4768 7.00388 51.0354 5.87109 50.9299 5.76949C50.2268 4.34759 50.0315 2.23429 50.637 1.22259C50.844 0.878844 51.1604 0.644474 51.4885 0.601504C53.8049 0.304634 54.3402 7.07809 52.2347 7.01559Z" fill="black"/>
<path d="M45.227 0.648388C44.9966 0.453078 44.7036 0.800728 44.934 0.996048C46.059 1.95308 46.9692 3.17185 47.5707 4.51945C47.6918 4.79289 48.1098 4.60929 47.9848 4.33586C47.3559 2.92176 46.4028 1.64839 45.227 0.648388Z" fill="black"/>
<path d="M60.66 7.90199C60.4295 8.37855 60.1717 8.91759 60.617 9.51919C60.9998 10.0387 61.6795 10.3395 62.3631 10.2458C63.8943 10.0387 65.0233 8.23015 65.3162 6.70665C65.5975 5.26525 64.7225 4.41365 63.2967 5.15975C62.1639 5.7535 61.2264 6.72619 60.66 7.90199ZM63.5077 5.56219C66.16 4.17159 64.6405 9.48019 62.3007 9.79659C61.8046 9.863 61.2734 9.64425 60.9804 9.24971C60.7265 8.90205 60.8085 8.63252 61.0663 8.10131C61.5937 7.01151 62.4569 6.10911 63.5038 5.56221L63.5077 5.56219Z" fill="black"/>
<path d="M52.539 73.215C51.5038 73.215 50.6601 74.0587 50.6601 75.0939C50.6601 76.1369 51.5038 76.9728 52.539 76.9728C53.5742 76.9728 54.4179 76.1369 54.4179 75.0939C54.4179 74.0587 53.5741 73.215 52.539 73.215ZM53.2187 75.6369C53.164 75.2736 53.1093 74.8674 52.9023 74.5588C52.2617 73.5979 51.3164 74.6252 51.5859 75.3479C51.6757 75.5744 51.9218 75.7307 52.121 75.6838C52.4374 75.6369 52.4999 76.0705 52.2226 76.1291C51.7187 76.215 51.3203 75.9025 51.1718 75.5119C50.6991 74.2814 52.332 72.8674 53.2851 74.3127C53.539 74.7033 53.6132 75.1643 53.6757 75.5744C53.7187 75.8557 53.2851 75.9416 53.2187 75.6369Z" fill="black"/>
<path d="M52.539 82.684C51.5038 82.684 50.6601 83.5199 50.6601 84.5512C50.6601 85.5942 51.5038 86.4301 52.539 86.4301C53.5742 86.4301 54.4179 85.5942 54.4179 84.5512C54.4179 83.52 53.5741 82.684 52.539 82.684ZM53.5273 84.9809C53.0077 82.9028 51.1211 83.5629 51.4882 84.5981C51.5976 84.8989 51.9218 85.1059 52.2499 85.0786C52.5233 85.0356 52.6093 85.4887 52.2968 85.5317H52.1874C50.9726 85.5317 50.5741 83.9848 51.5272 83.3637C52.3202 82.8441 53.5663 83.2855 53.9686 84.8676C54.035 85.1683 53.5937 85.2543 53.5273 84.9809Z" fill="black"/>
<path d="M34.785 78.125C34.7967 77.8164 34.3397 77.8203 34.3319 78.1094C34.2147 81.2891 34.1522 82.543 34.4334 85.711C34.4608 86.0157 34.9139 85.9727 34.8866 85.6719C34.6053 82.5274 34.6717 81.2813 34.785 78.125Z" fill="black"/>
<path d="M74.883 54.219C74.6057 54.344 74.7971 54.7581 75.0705 54.6331C78.0627 53.2854 79.6525 49.9612 78.84 46.7972C78.7658 46.5042 78.3244 46.6175 78.3986 46.9104C79.1603 49.8713 77.6603 52.969 74.883 54.219Z" fill="black"/>
<path d="M82.672 49.23C82.5118 51.0581 81.6212 52.7964 80.2306 53.9956C80.004 54.1909 80.297 54.5347 80.5275 54.3393C82.008 53.062 82.9533 51.2143 83.1252 49.269C83.1525 48.9683 82.6954 48.937 82.672 49.23Z" fill="black"/>
<path d="M11.98 37.633C12.3667 36.8635 12.3159 35.7853 11.5698 35.3088C10.812 34.8283 9.78073 35.2736 9.29253 35.9924C8.64019 36.9494 8.7027 38.3596 9.43707 39.3479C11.1012 41.5901 15.2809 41.5081 17.6988 36.8127C17.8355 36.5471 17.4331 36.3361 17.2964 36.6057C16.7339 37.6955 16.105 38.5275 15.3667 39.1486C13.3276 40.8674 10.8979 40.551 9.80422 39.0783C9.18313 38.2385 9.12453 37.051 9.67141 36.2502C10.0347 35.719 10.8042 35.3596 11.3316 35.6916C11.8551 36.0237 11.8668 36.8518 11.5777 37.426C11.441 37.6995 11.8472 37.9025 11.98 37.633Z" fill="black"/>
<path d="M16.227 44.641L18.3832 41.8715C18.5668 41.6332 18.2113 41.3559 18.0238 41.5902L15.8676 44.3597C15.6841 44.598 16.0395 44.8793 16.227 44.641Z" fill="black"/>
<path d="M22.453 38.234C20.4178 41.0856 19.453 43.6246 19.5038 45.9996C19.621 51.4605 25.6718 49.6402 25.4257 46.1598C25.3085 44.5309 23.4687 43.441 22.2304 44.6715C21.8788 45.023 21.707 45.4761 21.7616 45.9176C21.7968 46.2144 22.2499 46.1597 22.2109 45.8629C22.1249 45.1597 22.9023 44.5074 23.6015 44.609C24.3085 44.7027 24.9101 45.398 24.9687 46.1949C25.1718 49.0269 20.0585 50.859 19.9531 45.9917C19.9023 43.7222 20.8398 41.2729 22.8203 38.5034C23 38.2495 22.6288 37.9918 22.453 38.234Z" fill="black"/>
</svg>
