<svg width="1542" height="195" viewBox="0 0 1542 195" fill="none" xmlns="http://www.w3.org/2000/svg">
<path d="M12.2344 -2.68221e-06H117.234V150H12.2344V-2.68221e-06ZM94.7344 127.5V86.25H34.7344V127.5H94.7344ZM94.7344 63.75V22.5H34.7344V63.75H94.7344ZM147.655 60.3C157.855 50.1 170.255 45 184.855 45C199.355 45 211.705 50.1 221.905 60.3C232.105 70.5 237.205 82.85 237.205 97.35C237.205 101.35 236.805 105.15 236.005 108.75H156.805C158.205 112.35 160.455 115.65 163.555 118.65C169.355 124.55 176.405 127.5 184.705 127.5C193.005 127.5 200.105 124.55 206.005 118.65C206.805 117.85 207.555 117.05 208.255 116.25H233.905C231.305 122.95 227.305 129.05 221.905 134.55C211.705 144.85 199.355 150 184.855 150C170.255 150 157.805 144.85 147.505 134.55C137.305 124.25 132.205 111.85 132.205 97.35C132.205 82.85 137.355 70.5 147.655 60.3ZM156.805 86.25H212.605C211.205 82.55 209.005 79.2 206.005 76.2C200.105 70.4 193.005 67.5 184.705 67.5C176.405 67.5 169.355 70.4 163.555 76.2C160.455 79.2 158.205 82.55 156.805 86.25ZM252.176 22.5H319.676V-2.68221e-06H342.176V45H274.676V60H342.176V150H252.176V22.5ZM274.676 127.5H319.676V82.5H274.676V127.5ZM417.103 86.4H357.103V63.9H417.103V86.4ZM522.132 45V150H499.632V67.5H454.632V150H432.132V45H522.132ZM529.559 150L576.809 45H602.309L649.559 150H624.059L589.559 73.35L555.059 150H529.559ZM657.029 97.5C657.029 83 661.779 70.65 671.279 60.45C680.779 50.15 692.279 45 705.779 45C718.879 45 730.129 49.85 739.529 59.55V45H762.029V150H739.529V135.45C730.129 145.15 718.879 150 705.779 150C692.279 150 680.779 144.9 671.279 134.7C661.779 124.4 657.029 112 657.029 97.5ZM679.529 97.5C679.529 105.8 682.429 112.9 688.229 118.8C694.129 124.6 701.229 127.5 709.529 127.5C717.829 127.5 724.879 124.6 730.679 118.8C736.579 112.9 739.529 105.8 739.529 97.5C739.529 89.2 736.579 82.15 730.679 76.35C724.879 70.45 717.829 67.5 709.529 67.5C701.229 67.5 694.129 70.45 688.229 76.35C682.429 82.15 679.529 89.2 679.529 97.5ZM867 45V67.5H833.25V150H810.75V67.5H777V45H867ZM881.927 150V45H930.677L945.677 60V-2.68221e-06H968.177V60L983.177 45H1031.93V150H983.177L968.177 135V195H945.677V135L930.677 150H881.927ZM968.177 67.5V127.5H1009.43V67.5H968.177ZM945.677 127.5V67.5H904.427V127.5H945.677ZM1062.29 60.3C1072.49 50.1 1084.89 45 1099.49 45C1113.99 45 1126.34 50.1 1136.54 60.3C1146.74 70.5 1151.84 82.85 1151.84 97.35C1151.84 111.85 1146.74 124.25 1136.54 134.55C1126.34 144.85 1113.99 150 1099.49 150C1084.89 150 1072.44 144.85 1062.14 134.55C1051.94 124.25 1046.84 111.85 1046.84 97.35C1046.84 82.85 1051.99 70.5 1062.29 60.3ZM1069.34 97.5C1069.34 105.8 1072.24 112.9 1078.04 118.8C1083.94 124.6 1091.04 127.5 1099.34 127.5C1107.64 127.5 1114.69 124.6 1120.49 118.8C1126.39 112.9 1129.34 105.8 1129.34 97.5C1129.34 89.1 1126.39 82 1120.49 76.2C1114.69 70.4 1107.64 67.5 1099.34 67.5C1091.04 67.5 1083.94 70.4 1078.04 76.2C1072.24 82 1069.34 89.1 1069.34 97.5ZM1166.81 195V45H1271.81V150H1189.31V195H1166.81ZM1189.31 67.5V127.5H1249.31V67.5H1189.31ZM1316.78 45L1346.78 117L1376.78 45H1406.78V150H1384.28V90L1358.03 150H1335.53L1309.28 90V150H1286.78V45H1316.78ZM1421.79 97.5C1421.79 83 1426.54 70.65 1436.04 60.45C1445.54 50.15 1457.04 45 1470.54 45C1483.64 45 1494.89 49.85 1504.29 59.55V45H1526.79V150H1504.29V135.45C1494.89 145.15 1483.64 150 1470.54 150C1457.04 150 1445.54 144.9 1436.04 134.7C1426.54 124.4 1421.79 112 1421.79 97.5ZM1444.29 97.5C1444.29 105.8 1447.19 112.9 1452.99 118.8C1458.89 124.6 1465.99 127.5 1474.29 127.5C1482.59 127.5 1489.64 124.6 1495.44 118.8C1501.34 112.9 1504.29 105.8 1504.29 97.5C1504.29 89.2 1501.34 82.15 1495.44 76.35C1489.64 70.45 1482.59 67.5 1474.29 67.5C1465.99 67.5 1458.89 70.45 1452.99 76.35C1447.19 82.15 1444.29 89.2 1444.29 97.5Z" fill="white"/>
<rect width="33" height="23" fill="white"/>
<rect y="127" width="33" height="23" fill="white"/>
</svg>
