<svg width="82" height="88" viewBox="0 0 82 88" fill="none" xmlns="http://www.w3.org/2000/svg">
<path d="M65.508 8.94101C55.211 1.70271 45.16 -1.64899 42.063 1.08941C42.0591 1.08551 42.0591 1.0816 42.0552 1.0816C41.9536 1.01129 41.8091 1.03863 41.7388 1.1441L37.1099 7.9879C37.0474 8.04649 37.0005 8.11681 36.9653 8.1754C36.0825 9.484 36.4185 11.4996 37.7349 13.902C35.3755 18.0817 34.7896 22.8864 36.1372 27.234C37.7622 32.4332 38.977 33.2262 38.938 35.8551C37.9419 36.1207 36.8989 36.4918 36.1021 37.1442C34.6959 38.2692 34.2623 40.0504 35.5435 41.5309C33.4693 42.2965 31.9888 41.7731 30.606 41.5504C26.5748 40.9059 23.0474 41.0973 20.114 42.1168C14.5085 44.0543 11.9382 48.1598 11.3328 48.7457C9.07889 48.4098 6.29758 48.5192 5.55158 50.6676L1.66489 56.4215C1.47348 56.2926 1.35239 56.4372 1.2313 56.6286C-1.1906 60.2184 5.52819 69.0736 16.5243 76.7846C21.911 80.5815 27.5363 83.2455 27.8833 83.2455C27.9731 83.2455 28.0552 83.1947 28.0903 83.1088V83.1049C33.8637 85.5697 38.4653 86.1243 40.0633 84.2025C40.1102 84.1557 43.9617 78.433 43.9266 78.4837C46.3993 77.2259 45.5672 74.2337 44.2352 71.8118C44.3407 71.5306 48.3524 66.2416 46.95 58.9249C50.1883 63.7491 48.8914 70.1868 52.6141 74.2408C53.5047 75.2135 54.618 75.94 55.9266 76.4088C56.6883 77.7486 59.5633 82.901 59.9891 84.3658C60.829 87.2681 62.3953 88.3697 65.8641 87.6353C70.1649 86.7447 72.7196 85.0143 73.5907 84.5807C75.5907 83.3854 79.3095 81.1626 78.704 78.229C78.3915 76.7798 77.2392 76.3423 70.5399 65.717C71.5321 59.3654 68.8641 52.002 65.3602 46.971C65.286 46.8656 62.5047 43.096 61.4969 42.2405C67.2 40.8538 70.2391 36.9866 70.3289 36.9124C72.4383 37.264 75.1727 37.3421 76.2547 35.5022C76.3563 35.3265 76.4735 35.1741 76.2664 35.0491L79.6687 30.0257C80.0633 29.8226 80.4344 29.5921 80.7625 29.0999C83.1883 25.5061 76.4852 16.6469 65.5085 8.93995L65.508 8.94101ZM66.7853 27.597C63.7345 32.7337 63.9064 32.7376 63.6564 32.7376C63.4806 32.7376 63.3712 32.5462 63.4611 32.3939L66.3869 27.3744C66.5197 27.4369 66.6564 27.5072 66.7892 27.5697C66.7853 27.5814 66.7931 27.5892 66.7853 27.597ZM51.5083 25.4056C51.3325 25.4056 51.2192 25.2103 51.3169 25.058L54.5044 20.0228C54.6255 20.1165 54.7427 20.2063 54.8677 20.3001C51.52 25.5071 51.7466 25.4056 51.5083 25.4056ZM41.4813 16.2025C41.3016 16.4447 40.9383 16.1752 41.1141 15.933L44.825 10.9174C44.9227 11.0385 45.0242 11.1596 45.1219 11.2807L41.4813 16.2025ZM36.3954 37.4915C37.1298 36.8939 38.0204 36.5853 38.9188 36.3274C38.7977 37.8977 38.0829 39.468 37.0126 40.6321C36.7548 40.9095 36.4071 41.1438 35.9931 41.3391C34.79 40.0813 35.1181 38.515 36.3954 37.4915ZM15.9894 66.2415C15.9855 66.2532 15.9894 66.265 15.9816 66.2728C12.8019 71.0814 12.8371 71.347 12.5324 71.1478C12.4269 71.0775 12.3957 70.9368 12.466 70.8314C15.966 65.5033 15.509 66.0775 15.673 65.972C15.7824 66.0657 15.8878 66.1517 15.9894 66.2415ZM24.8566 79.8005C24.6808 79.8005 24.5714 79.6013 24.6652 79.4529L27.8293 74.3787C27.9621 74.4529 28.0949 74.5271 28.2277 74.5974C24.9035 79.8435 25.0949 79.8005 24.8566 79.8005ZM3.4736 61.7105L7.1103 56.7339C7.13373 56.6988 7.1728 56.687 7.20795 56.6753C7.28217 56.7964 7.3642 56.9214 7.44623 57.0464C3.67283 62.1519 3.87983 62.0776 3.65713 62.0776C3.47354 62.0698 3.36422 61.859 3.4736 61.7105ZM38.1646 83.8275C37.9966 83.8275 37.8833 83.6517 37.9615 83.4955L40.274 78.9291C40.4263 78.9447 40.5748 78.9564 40.7232 78.9642C40.7232 78.9955 40.731 79.0306 40.7154 79.0619C38.2896 83.7455 38.4342 83.8275 38.1646 83.8275ZM21.3986 69.8395C7.2656 59.9137 0.406596 47.7735 10.9926 49.1515L9.0668 51.4445C4.4848 57.6398 37.2818 81.9325 41.8788 75.7215L43.9647 72.2645C49.0194 81.8348 35.9685 80.0661 21.3986 69.8395ZM64.9886 47.2375C68.5042 52.2883 71.0706 59.5855 70.0784 65.7335C70.0706 65.7882 70.0823 65.8429 70.1096 65.8898C76.7385 76.4058 77.9846 77.0418 78.2619 78.3238C78.7893 80.8707 75.5041 82.9136 73.2853 84.2379C70.9455 85.652 68.4182 86.6441 65.7737 87.191C62.5706 87.8746 61.2111 86.9449 60.4298 84.2418C59.9806 82.7106 57.0626 77.4879 56.2814 76.1129C56.2541 76.066 56.2111 76.0269 56.1564 76.0113C54.8869 75.5699 53.8048 74.8707 52.9494 73.9371V73.9332C49.6135 70.3043 50.3908 64.4723 48.1017 59.9682C45.4884 54.7963 37.4607 50.7729 37.3787 46.1202C37.3553 44.378 38.6599 42.8194 40.6873 43.4366C44.6756 44.5811 48.6717 51.4483 54.0073 52.8272C57.4604 53.7256 59.6831 50.8155 56.1831 48.2061C53.4917 46.1983 50.144 44.8155 45.6951 43.8584C47.2928 42.335 49.1092 41.5459 51.2498 41.9482C53.1795 42.3037 54.8865 42.542 56.4725 42.6709C57.9686 42.7881 59.4686 42.6865 60.9452 42.3779C62.1483 43.3427 64.9144 47.1281 64.9886 47.2375ZM40.7856 52.5227C40.2934 54.4055 39.0512 56.0657 37.2036 55.3586C35.3169 54.6399 35.7427 51.9992 36.9458 50.6594C37.188 50.3938 37.6606 49.9211 38.2153 49.5383C38.9614 50.6438 39.8364 51.5852 40.7856 52.5227ZM45.3208 44.2415C49.0083 45.011 53.3091 46.4017 56.1958 48.7962C58.8755 51.0189 57.0005 53.1321 54.1216 52.39C50.2739 51.3939 47.6411 47.9056 44.5083 45.2806C44.7466 44.9134 45.0161 44.5658 45.3208 44.2415ZM60.9658 41.9134C59.497 42.2298 57.997 42.3314 56.5127 42.2181C54.9424 42.0892 53.251 41.8587 51.3369 41.5033C48.3994 40.9642 45.7002 42.6244 44.1572 44.9955C43.2197 44.2377 41.9814 43.3393 40.8174 43.0033C38.4971 42.2962 36.8955 44.058 36.9268 46.1283C36.9424 47.0736 37.3018 48.0736 37.9737 49.1556C34.7042 51.3744 34.837 54.9486 37.044 55.7845C39.0752 56.5618 40.5401 54.9563 41.1573 52.8861C43.087 54.7377 44.8331 56.1713 46.2979 58.0267C47.3291 61.9915 46.7784 66.2767 44.7471 70.0927L41.5049 75.4755C37.2901 81.1591 5.23191 57.4015 9.42691 51.7295C11.8019 49.2842 14.1261 44.667 20.2749 42.542C23.1343 41.5498 26.5913 41.3662 30.5449 41.9951C31.3379 42.124 35.2754 43.1865 37.3496 40.9404C38.3184 39.8896 38.9863 38.5693 39.2832 37.1162C39.2871 37.1006 39.2949 37.0888 39.2949 37.0771C39.9277 33.788 38.2558 32.4599 36.5801 27.0927C35.2949 22.9521 35.8379 18.3896 38.0176 14.3777C40.4356 18.4793 45.5488 23.616 52.2676 28.3267C52.3731 28.397 52.5137 28.3736 52.584 28.272C56.3496 30.9087 60.0879 33.0142 63.455 34.4829C63.455 34.4829 63.4511 34.4829 63.4511 34.4868C63.4003 34.604 63.455 34.7368 63.5683 34.7876C65.8925 35.7915 67.998 36.4712 69.8105 36.8267C69.7207 36.8931 66.6308 40.6978 60.9667 41.9126L60.9658 41.9134ZM80.3878 28.8514C80.2433 29.0663 80.0558 29.2616 79.8253 29.4217C76.6651 31.7029 66.9153 28.2498 57.1343 21.3826C43.3683 11.7146 36.8883 0.585623 45.2903 0.585623C49.7434 0.585623 57.5173 3.87862 65.2473 9.30832C75.8413 16.7497 82.6338 25.5194 80.3878 28.8514Z" fill="black"/>
<path d="M43.332 28.824L40.9218 36.9881C40.8359 37.2772 41.2734 37.4061 41.3593 37.117L43.7695 28.9529C43.8554 28.6639 43.4179 28.535 43.332 28.824Z" fill="black"/>
<path d="M23.844 48.758L19.5081 57.0158C19.3675 57.2814 19.7698 57.4924 19.9104 57.2267L24.2463 48.9689C24.3831 48.6994 23.9846 48.4924 23.844 48.758Z" fill="black"/>
<path d="M28.602 58.363C26.9106 60.0271 25.9262 62.4802 26.0903 64.6169C26.2934 67.2263 29.5669 68.9255 31.9731 65.2419C35.1762 60.3396 32.1645 54.8709 28.602 58.363ZM31.5903 64.9958C29.4653 68.2458 26.7153 66.8239 26.5395 64.5856C26.3832 62.5778 27.3168 60.2614 28.9184 58.6911C32.1137 55.5583 34.4223 60.6638 31.5903 64.9958Z" fill="black"/>
<path d="M37.867 71.676C38.7928 68.6682 40.0154 65.7346 41.4998 62.9572C41.6404 62.6916 41.242 62.4807 41.0975 62.7424C39.6014 65.5471 38.367 68.508 37.4295 71.5432C37.3435 71.8283 37.7772 71.9612 37.867 71.676Z" fill="black"/>
<path d="M33.402 44.746L31.1403 49.3358C31.0075 49.6053 31.4137 49.8046 31.5505 49.535L33.8122 44.9452C33.9411 44.6796 33.5387 44.4765 33.402 44.746Z" fill="black"/>
<path d="M50.594 36.414C47.2268 37.246 44.2346 39.5742 42.5979 42.6328C42.4573 42.8984 42.8596 43.1133 43.0002 42.8476C44.5783 39.8984 47.4572 37.6562 50.7033 36.8554C51.0002 36.7812 50.8831 36.3359 50.594 36.414Z" fill="black"/>
<path d="M65.637 12.398C62.3636 9.9722 57.9456 7.0152 52.762 5.6832C48.7737 4.6559 47.5511 6.50351 48.9925 9.0543C52.2816 14.859 58.8948 19.4493 63.2075 20.2883C64.6567 20.5735 66.8481 20.9992 67.2895 19.2922C68.4028 14.9641 57.2505 8.46821 55.7975 11.6984C55.5592 12.2258 55.6725 12.9367 56.0866 13.5539C56.8913 14.7531 58.446 15.6125 60.0514 15.7453C60.3248 15.8 60.4107 15.3195 60.0904 15.2922C58.6216 15.1711 57.1998 14.3899 56.4693 13.3C56.1412 12.8117 56.0435 12.2688 56.2154 11.882C57.1295 9.85859 64.4107 13.2922 66.3604 16.9367C66.8409 17.8351 67.0049 18.589 66.8526 19.175C66.544 20.3703 64.9932 20.1711 63.2979 19.8391C59.1338 19.0226 52.6219 14.5265 49.3919 8.82305C47.8997 6.18635 49.681 5.35825 52.6536 6.11605C57.763 7.42855 62.1341 10.3544 65.3726 12.7567C68.6695 15.202 72.1968 18.2059 73.3335 21.9286C74.1187 24.5067 72.4663 25.5262 70.2593 24.9949C69.2398 24.7489 68.3491 24.202 67.5366 23.6472C67.2905 23.4754 67.0327 23.8543 67.2827 24.0222C68.1304 24.6004 69.0639 25.1745 70.1538 25.4363C72.685 26.0457 74.6655 24.7293 73.7671 21.7957C72.5874 17.9559 68.9937 14.8896 65.6382 12.3974L65.637 12.398Z" fill="black"/>
<path d="M38.934 19.609C39.0316 19.3199 38.602 19.1793 38.5043 19.4567C37.6527 21.8903 38.0551 24.7028 39.559 26.7965C39.7348 27.0387 40.102 26.7769 39.9301 26.5309C38.5082 24.5582 38.1293 21.9059 38.934 19.609Z" fill="black"/>
<path d="M12.762 33.18C14.9065 34.0628 16.1448 36.1917 17.262 38.1448C17.4143 38.4065 17.8011 38.1761 17.6526 37.9143C16.4768 35.8596 15.2073 33.6955 12.9338 32.762C10.0744 31.5862 7.35572 33.3206 7.41042 35.7151C7.44167 37.0315 8.51982 38.2112 9.76592 38.2854H9.77764C10.0667 38.2854 10.0862 37.8479 9.78936 37.8323C8.78936 37.7737 7.89096 36.7776 7.86356 35.7073C7.82059 33.6721 10.1839 32.1175 12.762 33.18Z" fill="black"/>
<path d="M19.375 32.777L21.3203 37.0543C21.4453 37.3277 21.8594 37.1402 21.7344 36.8668L19.7891 32.5895C19.6641 32.3122 19.25 32.5075 19.375 32.777Z" fill="black"/>
<path d="M26.004 28.766C25.8126 28.5316 25.461 28.809 25.6446 29.0473C25.8126 29.2621 26.0821 29.3793 26.3712 29.3598C27.4298 29.3051 27.6446 28.2582 27.5001 27.184C27.0352 23.7035 24.5313 23.4223 22.9806 25.4379C22.0118 26.6957 21.6134 28.5043 21.8829 30.3988C22.1329 32.1683 22.8868 33.805 23.5743 35.1957C23.7071 35.4652 24.1133 35.266 23.9844 34.9964C23.3126 33.6331 22.5742 32.0394 22.3321 30.3362C22.0821 28.5628 22.4493 26.8792 23.3438 25.7151C24.6641 24.0003 26.6446 24.1917 27.0508 27.2424C27.2969 29.0744 26.2267 29.0512 26.004 28.766Z" fill="black"/>
<path d="M41.598 45.129C40.8246 44.4767 40.4574 45.6642 39.4964 46.3907C39.1331 46.6641 38.2347 47.0313 38.4339 47.4102C39.1409 48.8047 40.1722 50.1094 41.7425 50.1094C42.5277 50.1094 43.2698 49.6953 43.6058 49.0586C44.0355 48.2461 43.6566 47.6524 43.2894 47.0742C43.0433 46.7383 42.7035 46.047 41.598 45.129ZM43.2035 48.8438C42.934 49.3516 42.3168 49.6797 41.6683 49.6485C40.3714 49.5977 39.5003 48.4727 38.8988 47.3204C39.6449 46.7149 39.5316 47.1251 40.6058 45.9259C41.1527 45.3204 41.1449 45.3361 41.305 45.4728C42.3441 46.34 42.6214 46.9259 42.9027 47.3126C43.2543 47.8673 43.5082 48.2696 43.2035 48.8438Z" fill="black"/>
</svg>
